<ttFont>
<head>
    <!-- Most of this table will be recalculated by the compiler -->
    <tableVersion value="1.0"/>
    <fontRevision value="1.0"/>
    <checkSumAdjustment value="0x842b2a3e"/>
    <magicNumber value="0x5f0f3cf5"/>
    <flags value="00000000 00001011"/>
    <unitsPerEm value="1000"/>
    <created value="Sat Jun 30 00:36:56 2018"/>
    <modified value="Sat Jun 30 00:36:59 2018"/>
    <xMin value="-581"/>
    <yMin value="-422"/>
    <xMax value="1504"/>
    <yMax value="1316"/>
    <macStyle value="00000000 00000000"/>
    <lowestRecPPEM value="8"/>
    <fontDirectionHint value="2"/>
    <indexToLocFormat value="0"/>
    <glyphDataFormat value="0"/>
  </head>
          <CharString index="0">
            6 -161 36 -248 97 0 35 248 6 161 rlineto
            return
          </CharString>
          <CharString index="1">
            140 0 443 847 -142 0 rlineto
            return
          </CharString>
          <CharString index="2">
            -163 84 -97 118 117 85 97 163 vhcurveto
            return
          </CharString>
          <CharString index="3">
            164 -85 94 -117 -118 -84 -94 -164 vhcurveto
            return
          </CharString>
          <CharString index="4">
            -590 -150 590 hlineto
            return
          </CharString>
          <CharString index="5">
            126 0 249 980 -127 0 rlineto
            return
          </CharString>
          <CharString index="6">
            -57 45 -45 58 57 45 45 57 58 -45 46 -57 -58 -45 -46 -58 vhcurveto
            return
          </CharString>
          <CharString index="7">
            9 30 rlineto
            81 268 10 64 0 0 0 0 10 -64 81 -268 rrcurveto
            8 -30 rlineto
            return
          </CharString>
          <CharString index="8">
            192 0 -270 803 -224 0 -269 -803 186 0 50 167 285 0 rlineto
            return
          </CharString>
          <CharString index="9">
            -65 40 -85 4 -58 0 rrcurveto
            -247 -168 -170 -244 -246 182 -163 232 hvcurveto
            58 0 86 4 65 41 rrcurveto
            175 vlineto
            -53 -38 -75 -20 -64 0 rrcurveto
            -139 -101 92 155 159 105 94 127 hvcurveto
            74 0 55 -12 71 -43 rrcurveto
            return
          </CharString>
          <CharString index="10">
            510 86 vlineto
            154 83 -100 -141 -169 -83 -100 -153 hvcurveto
            return
          </CharString>
          <CharString index="11">
            -803 272 vlineto
            248 166 157 258 219 -168 169 -244 hvcurveto
            return
          </CharString>
          <CharString index="12">
            198 278 141 -278 179 312 142 -491 -803 496 143 vlineto
            return
          </CharString>
          <CharString index="13">
            -306 -152 132 -157 hlineto
            -31 -10 -36 -7 -37 0 rrcurveto
            -156 -93 99 153 152 97 100 154 hvcurveto
            60 0 80 -12 94 -54 rrcurveto
            178 vlineto
            -78 39 -83 12 -74 0 rrcurveto
            -251 -191 -159 -256 -257 179 -155 254 hvcurveto
            138 0 95 44 53 39 rrcurveto
            return
          </CharString>
          <CharString index="14">
            -318 -300 318 -178 -803 178 333 300 -333 180 803 vlineto
            return
          </CharString>
          <CharString index="15">
            313 143 -70 517 70 143 -313 -143 71 -517 -71 hlineto
            return
          </CharString>
          <CharString index="16">
            29 -15 61 -9 43 0 rrcurveto
            147 96 86 156 hvcurveto
            561 -178 -557 vlineto
            -65 -42 -25 -58 vhcurveto
            -34 0 -44 13 -20 13 rrcurveto
            return
          </CharString>
          <CharString index="17">
            178 186 hlineto
            89 114 192 -300 228 0 -307 444 282 359 -212 0 -272 -350 0 350 -178 0 rlineto
            return
          </CharString>
          <CharString index="18">
            647 -178 -803 478 156 vlineto
            return
          </CharString>
          <CharString index="19">
            178 0 25 312 rlineto
            7 90 5 87 0 65 0 0 23 -85 57 -157 rrcurveto
            112 -303 107 0 113 303 rlineto
            56 148 33 94 0 0 0 0 3 -95 13 -147 rrcurveto
            30 -312 178 0 -83 803 -196 0 -113 -290 rlineto
            -65 -166 -22 -86 0 0 0 0 -21 88 -63 164 rrcurveto
            -112 290 -196 0 rlineto
            return
          </CharString>
          <CharString index="20">
            178 333 hlineto
            147 -18 109 0 vhcurveto
            0 0 35 -105 88 -151 rrcurveto
            193 -333 196 0 0 803 -178 0 0 -332 rlineto
            -162 11 -89 0 vhcurveto
            0 0 -28 88 -93 163 rrcurveto
            -188 332 -196 0 rlineto
            return
          </CharString>
          <CharString index="21">
            -248 152 -166 238 237 152 168 246 247 -151 165 -239 -237 -152 -167 -245 vhcurveto
            return
          </CharString>
          <CharString index="22">
            153 76 97 122 123 76 -97 -153 -154 -76 -98 -122 -123 -76 98 154 vhcurveto
            return
          </CharString>
          <CharString index="23">
            178 281 60 hlineto
            176 -281 213 0 -205 310 rlineto
            87 38 60 77 0 122 rrcurveto
            151 -115 105 -182 vhcurveto
            -272 hlineto
            return
          </CharString>
          <CharString index="24">
            232 92 vlineto
            74 46 -42 -71 -78 -38 -41 -85 hvcurveto
            return
          </CharString>
          <CharString index="25">
            -64 30 -75 11 -67 0 -180 0 -105 -95 0 -136 0 -130 89 -59 86 -39 91 -43 72 -21 0 -60 0 -50 -43 -33 -58 0 -75 0 -78 21 -77 56 rrcurveto
            -179 vlineto
            59 -33 88 -17 83 0 175 0 115 97 0 145 0 146 -112 56 -100 44 -69 30 -54 30 0 46 0 40 33 31 67 0 67 0 73 -21 59 -34 rrcurveto
            return
          </CharString>
          <CharString index="26">
            -594 -143 208 -660 179 660 207 hlineto
            return
          </CharString>
          <CharString index="27">
            -124 -66 -35 -81 -77 -69 35 118 vhcurveto
            500 -178 -501 vlineto
            -206 134 -108 190 194 131 109 214 vhcurveto
            492 -178 vlineto
            return
          </CharString>
          <CharString index="28">
            -80 -283 rlineto
            -60 -211 -23 -103 0 0 0 0 -14 105 -51 209 rrcurveto
            -75 295 -187 0 215 -803 200 0 74 254 rlineto
            62 209 5 55 0 0 0 0 10 -54 58 -210 rrcurveto
            70 -254 200 0 213 803 -181 0 -74 -294 rlineto
            -50 -199 -18 -117 0 0 0 0 -26 118 -55 197 rrcurveto
            -79 283 rlineto
            return
          </CharString>
          <CharString index="29">
            -52 -116 rlineto
            -96 -208 -13 -52 0 0 0 0 -15 52 -89 208 rrcurveto
            -49 116 -208 0 274 -508 0 -295 178 0 0 296 277 507 rlineto
            return
          </CharString>
          <CharString index="30">
            -573 -143 357 hlineto
            -364 -528 0 -132 595 0 0 144 -381 0 366 533 rlineto
            return
          </CharString>
          <CharString index="31">
            -171 0 143 -210 131 0 rlineto
            return
          </CharString>
          <CharString index="32">
            -64 vlineto
            -53 -30 -35 -52 -50 -23 24 40 vhcurveto
            0 54 53 10 43 11 rrcurveto
            return
          </CharString>
          <CharString index="33">
            44 30 66 25 71 0 rrcurveto
            79 25 -32 -48 hvcurveto
            0 -21 -79 -17 rlineto
            -147 -35 -105 -11 0 -141 0 -97 66 -79 121 0 89 0 40 31 22 38 rrcurveto
            -65 166 387 vlineto
            156 -84 72 -170 vhcurveto
            -92 0 -76 -20 -36 -20 rrcurveto
            return
          </CharString>
          <CharString index="34">
            1 114 72 59 95 0 48 0 51 -14 41 -26 rrcurveto
            146 vlineto
            -54 29 -56 5 -47 0 -205 0 -116 -140 -2 -173 0 -183 131 -128 182 0 61 0 60 13 46 25 rrcurveto
            142 vlineto
            -44 -28 -52 -14 -47 0 -98 0 -61 66 -6 107 rrcurveto
            return
          </CharString>
          <CharString index="35">
            -73 -60 65 101 113 62 58 70 67 71 -51 -111 hvcurveto
            -110 -58 -65 -79 vhcurveto
            return
          </CharString>
          <CharString index="36">
            -322 vlineto
            -46 67 -62 24 -72 0 rrcurveto
            -147 -115 -113 -196 -162 96 -149 165 hvcurveto
            71 0 63 21 47 71 rrcurveto
            return
          </CharString>
          <CharString index="37">
            17 73 45 43 57 0 68 0 24 -49 4 -61 rrcurveto
            -6 vlineto
            return
          </CharString>
          <CharString index="38">
            366 hlineto
            4 22 3 45 0 25 rrcurveto
            180 -105 93 -156 -151 -128 -108 -200 -176 111 -133 204 vhcurveto
            60 0 84 12 44 28 rrcurveto
            142 vlineto
            -38 -29 -52 -21 -70 0 -94 0 -62 48 -20 72 rrcurveto
            return
          </CharString>
          <CharString index="39">
            -71 -43 54 104 98 44 59 72 71 49 -46 -120 -80 -43 -69 -79 hvcurveto
            return
          </CharString>
          <CharString index="40">
            -72 vlineto
            -36 55 -48 23 -76 0 rrcurveto
            -153 -99 -128 -170 -206 124 -87 121 hvcurveto
            75 0 52 18 40 55 rrcurveto
            -33 vlineto
            -97 -46 -44 -106 vhcurveto
            -76 0 -74 23 -54 42 rrcurveto
            -172 vlineto
            70 -33 78 -13 73 0 rrcurveto
            162 142 87 205 hvcurveto
            547 vlineto
            return
          </CharString>
          <CharString index="41">
            -168 -843 168 320 hlineto
            134 77 20 39 56 40 -41 -74 vhcurveto
            -359 169 387 vlineto
            156 -88 68 -111 vhcurveto
            -95 0 -54 -32 -33 -67 rrcurveto
            return
          </CharString>
          <CharString index="42">
            168 605 -168 hlineto
            return
          </CharString>
          <CharString index="43">
            -54 44 -44 55 54 45 44 54 55 -45 45 -54 vhcurveto
            -55 -44 -45 -55 hvcurveto
            return
          </CharString>
          <CharString index="44">
            38 -14 28 -5 28 0 rrcurveto
            136 69 85 123 hvcurveto
            633 -168 -623 vlineto
            -60 -27 -21 -36 vhcurveto
            -20 0 -24 7 -24 11 rrcurveto
            return
          </CharString>
          <CharString index="45">
            -216 315 212 290 -194 0 -195 -272 0 490 -168 0 0 -823 168 0 0 297 198 -297 rlineto
            return
          </CharString>
          <CharString index="46">
            -145 44 -84 143 vhcurveto
            29 0 24 2 25 10 rrcurveto
            137 vlineto
            -15 -5 -18 -5 -19 0 rrcurveto
            -36 -9 29 71 hvcurveto
            609 -168 vlineto
            return
          </CharString>
          <CharString index="47">
            -168 -605 168 320 hlineto
            128 64 26 43 52 29 -44 -69 vhcurveto
            -361 169 320 vlineto
            128 64 26 43 53 28 -44 -69 vhcurveto
            -361 168 389 vlineto
            147 -74 75 -118 vhcurveto
            -85 0 -68 -36 -30 -71 -28 67 -57 40 -82 0 -79 0 -59 -29 -33 -63 rrcurveto
            return
          </CharString>
          <CharString index="48">
            168 320 hlineto
            107 54 47 62 60 37 -36 -75 vhcurveto
            -363 169 394 vlineto
            144 -78 73 -121 vhcurveto
            -89 0 -60 -33 -34 -66 rrcurveto
            93 -168 vlineto
            return
          </CharString>
          <CharString index="49">
            192 102 139 176 172 -99 137 -195 -183 -114 -137 -182 -170 101 -135 196 hvcurveto
            return
          </CharString>
          <CharString index="50">
            90 30 -83 -98 -99 -34 -79 -83 -83 -38 81 99 98 35 81 83 hvcurveto
            return
          </CharString>
          <CharString index="51">
            -167 0 -1 -605 168 0 0 304 rlineto
            92 52 61 75 vhcurveto
            20 0 30 -5 24 -11 rrcurveto
            160 vlineto
            -17 5 -21 2 -16 0 -72 0 -49 -38 -26 -68 rrcurveto
            return
          </CharString>
          <CharString index="52">
            -41 17 -56 8 -57 0 -126 0 -107 -65 0 -120 0 -96 61 -47 62 -29 61 -28 61 -17 0 -39 0 -29 -25 -15 -43 0 -69 0 -65 28 -40 28 rrcurveto
            -151 vlineto
            41 -20 68 -17 74 0 137 0 96 64 0 122 0 87 -63 45 -62 31 -61 31 -60 17 0 40 0 26 22 20 45 0 56 0 55 -15 36 -22 rrcurveto
            return
          </CharString>
          <CharString index="53">
            142 124 -142 143 -170 -143 -87 -124 87 -283 hlineto
            -132 67 -72 138 vhcurveto
            32 0 53 6 33 14 rrcurveto
            140 vlineto
            -26 -17 -31 -7 -28 0 rrcurveto
            -38 -30 21 46 hvcurveto
            return
          </CharString>
          <CharString index="54">
            -136 75 -68 122 vhcurveto
            90 0 60 29 34 63 rrcurveto
            -87 169 605 -169 -321 vlineto
            -115 -48 -39 -69 -59 -37 36 72 vhcurveto
            367 -168 vlineto
            return
          </CharString>
          <CharString index="55">
            174 0 53 198 rlineto
            39 150 13 79 0 0 0 0 11 -79 40 -150 rrcurveto
            53 -198 175 0 193 605 -167 0 -57 -200 rlineto
            -50 -175 -8 -71 0 0 0 0 -9 71 -50 175 rrcurveto
            -58 200 -146 0 -59 -200 rlineto
            -51 -174 -9 -72 0 0 0 0 -8 73 -46 173 rrcurveto
            -52 200 -175 0 rlineto
            return
          </CharString>
          <CharString index="56">
            -30 -73 -42 -35 -72 0 -13 0 -14 0 -14 4 rrcurveto
            -134 vlineto
            23 -5 14 -1 29 0 125 0 95 79 65 172 rrcurveto
            218 588 -173 0 -61 -189 rlineto
            -53 -169 -13 -47 0 0 0 0 -8 47 -59 169 rrcurveto
            -67 189 -184 0 rlineto
            return
          </CharString>
          <CharString index="57">
            -448 -130 256 hlineto
            -267 -353 0 -122 473 0 0 132 -282 0 268 356 rlineto
            return
          </CharString>
          <CharString index="58">
            -177 0 -181 -193 181 -194 177 0 -175 194 rlineto
            return
          </CharString>
          <CharString index="59">
            315 139 -315 hlineto
            return
          </CharString>
          <CharString index="60">
            114 -419 -114 vlineto
            return
          </CharString>
          <CharString index="61">
            131 0 143 210 -170 0 rlineto
            return
          </CharString>
          <CharString index="62">
            -58 46 -46 57 58 47 46 58 57 -47 46 -58 -57 -46 -46 -57 vhcurveto
            return
          </CharString>
          <CharString index="63">
            131 0 143 210 -171 0 rlineto
            return
          </CharString>
          <CharString index="64">
            42 0 30 -43 71 0 73 0 56 39 31 61 rrcurveto
            return
          </CharString>
          <CharString index="65">
            -54 41 -42 55 55 42 42 54 52 -42 42 -55 -55 -41 -42 -52 vhcurveto
            return
          </CharString>
          <CharString index="66">
            -88 72 -71 88 89 72 71 88 89 -72 71 -89 -88 -72 -71 -89 vhcurveto
            return
          </CharString>
          <CharString index="67">
            35 25 31 37 38 25 -31 -35 -35 -25 -32 -38 -37 -25 32 35 vhcurveto
            return
          </CharString>
          <CharString index="68">
            15 30 rlineto
            82 161 68 140 36 90 rrcurveto
            -421 vlineto
            return
          </CharString>
          <CharString index="69">
            188 278 141 -278 189 311 142 -637 vlineto
            -392 -803 186 0 85 167 274 0 0 -167 489 0 0 143 rlineto
            return
          </CharString>
          <CharString index="70">
            -184 -210 161 0 95 116 95 -116 161 0 -184 210 rlineto
            return
          </CharString>
          <CharString index="71">
            -54 42 -42 55 55 41 42 54 52 -41 42 -55 vhcurveto
            -55 -42 -42 -52 hvcurveto
            return
          </CharString>
          <CharString index="72">
            -170 0 143 -210 131 0 rlineto
            return
          </CharString>
          <CharString index="73">
            -54 41 -42 55 55 42 42 54 52 -42 42 -55 vhcurveto
            -55 -41 -42 -52 hvcurveto
            return
          </CharString>
          <CharString index="74">
            177 168 144 -168 189 86 vlineto
            154 83 -100 -141 -169 -83 -100 -153 hvcurveto
            return
          </CharString>
          <CharString index="75">
            -336 -81 -144 81 -323 272 vlineto
            248 166 157 258 219 -168 169 -244 hvcurveto
            return
          </CharString>
          <CharString index="76">
            -185 -210 161 0 95 116 95 -116 162 0 -185 210 rlineto
            return
          </CharString>
          <CharString index="77">
            -248 152 -166 238 237 152 168 246 247 -151 165 -239 vhcurveto
            -237 -152 -167 -245 hvcurveto
            return
          </CharString>
          <CharString index="78">
            15 -36 7 -45 0 -51 0 -160 -79 -100 -127 0 -34 0 -30 6 -26 14 rrcurveto
            return
          </CharString>
          <CharString index="79">
            -15 37 -9 46 0 53 0 159 81 100 126 0 35 0 31 -7 27 -14 rrcurveto
            return
          </CharString>
          <CharString index="80">
            -168 0 -31 -42 rlineto
            -55 29 -63 14 -73 0 -237 0 -153 -167 0 -245 0 -117 34 -98 61 -72 rrcurveto
            -93 -127 169 0 31 43 rlineto
            54 -27 63 -16 71 0 237 0 152 168 0 246 0 116 -33 97 -59 70 rrcurveto
            return
          </CharString>
          <CharString index="81">
            131 0 144 210 -171 0 rlineto
            return
          </CharString>
          <CharString index="82">
            -184 -210 161 0 95 116 94 -116 162 0 -184 210 rlineto
            return
          </CharString>
          <CharString index="83">
            -54 42 -42 55 55 40 42 54 52 -40 42 -55 vhcurveto
            -55 -42 -42 -52 hvcurveto
            return
          </CharString>
          <CharString index="84">
            -54 41 -42 55 55 41 42 54 52 -41 42 -55 vhcurveto
            -55 -41 -42 -52 hvcurveto
            return
          </CharString>
          <CharString index="85">
            -170 0 143 -209 131 0 rlineto
            return
          </CharString>
          <CharString index="86">
            132 0 143 209 -171 0 rlineto
            return
          </CharString>
          <CharString index="87">
            -184 -209 161 0 95 115 94 -115 162 0 -184 209 rlineto
            return
          </CharString>
          <CharString index="88">
            -16 -31 -28 -21 -39 0 rrcurveto
            return
          </CharString>
          <CharString index="89">
            43 0 30 -43 71 0 73 0 56 39 30 62 rrcurveto
            return
          </CharString>
          <CharString index="90">
            -53 42 -42 55 55 41 42 53 53 -41 41 -55 vhcurveto
            -55 -42 -41 -53 hvcurveto
            return
          </CharString>
          <CharString index="91">
            -88 72 -71 88 89 71 71 88 89 -71 71 -89 vhcurveto
            -88 -72 -71 -89 hvcurveto
            return
          </CharString>
          <CharString index="92">
            35 25 31 38 38 25 -31 -35 -35 -25 -32 -38 -38 -25 32 35 vhcurveto
            return
          </CharString>
          <CharString index="93">
            44 30 66 25 71 0 rrcurveto
            79 25 -32 -48 hvcurveto
            0 -21 -79 -17 rlineto
            -147 -35 -105 -11 0 -141 rrcurveto
            return
          </CharString>
          <CharString index="94">
            -97 66 -79 121 vhcurveto
            89 0 40 31 22 38 rrcurveto
            -65 166 387 vlineto
            156 -84 72 -170 vhcurveto
            -92 0 -76 -20 -36 -20 rrcurveto
            return
          </CharString>
          <CharString index="95">
            -105 74 -72 137 vhcurveto
            125 0 61 60 22 51 rrcurveto
            return
          </CharString>
          <CharString index="96">
            48 -79 101 -33 82 0 61 0 76 12 43 28 rrcurveto
            142 vlineto
            -38 -29 -51 -21 -70 0 -83 0 -66 38 -24 72 rrcurveto
            361 hlineto
            4 24 4 42 0 26 0 192 -104 91 -157 0 -79 0 -71 -31 -37 -54 -26 54 -66 35 -88 0 -92 0 -65 -20 -36 -20 rrcurveto
            -153 vlineto
            44 30 66 25 70 0 rrcurveto
            80 25 -32 -48 hvcurveto
            return
          </CharString>
          <CharString index="97">
            -41 -79 vlineto
            -170 -82 -72 -112 hvcurveto
            return
          </CharString>
          <CharString index="98">
            40 34 30 63 vhcurveto
            58 -46 hlineto
            -53 -31 -35 -51 -50 -23 23 41 vhcurveto
            return
          </CharString>
          <CharString index="99">
            15 86 52 40 53 0 68 0 25 -49 4 -63 rrcurveto
            return
          </CharString>
          <CharString index="100">
            131 0 144 209 -171 0 rlineto
            return
          </CharString>
          <CharString index="101">
            131 0 143 209 -170 0 rlineto
            return
          </CharString>
          <CharString index="102">
            43 0 29 -43 71 0 73 0 56 40 31 61 rrcurveto
            return
          </CharString>
          <CharString index="103">
            -53 42 -42 56 54 41 42 53 53 -41 41 -54 vhcurveto
            -56 -42 -41 -53 hvcurveto
            return
          </CharString>
          <CharString index="104">
            -53 41 -42 56 54 42 42 53 53 -42 41 -54 vhcurveto
            -56 -41 -41 -53 hvcurveto
            return
          </CharString>
          <CharString index="105">
            7 -26 2 -29 0 -30 0 -109 -40 -87 -98 0 -24 0 -21 4 -18 11 rrcurveto
            return
          </CharString>
          <CharString index="106">
            -7 25 -2 26 0 30 0 108 43 89 96 0 24 0 20 -6 18 -7 rrcurveto
            return
          </CharString>
          <CharString index="107">
            -142 0 -19 -26 rlineto
            -38 16 -45 10 -50 0 -183 0 -113 -137 0 -182 0 -81 23 -73 45 -55 rrcurveto
            -68 -96 141 0 20 28 rlineto
            37 -18 46 -10 52 0 192 0 102 139 0 176 0 83 -22 74 -47 55 rrcurveto
            return
          </CharString>
          <CharString index="108">
            131 0 143 209 -171 0 rlineto
            return
          </CharString>
          <CharString index="109">
            115 -419 -115 vlineto
            return
          </CharString>
          <CharString index="110">
            -153 102 -61 132 132 102 61 153 vhcurveto
            -130 hlineto
            -68 -42 -39 -62 -61 -43 39 68 vhcurveto
            return
          </CharString>
          <CharString index="111">
            -184 -209 161 0 95 115 95 -115 161 0 -184 209 rlineto
            return
          </CharString>
          <CharString index="112">
            -184 -210 161 0 95 115 94 -115 162 0 -184 210 rlineto
            return
          </CharString>
          <CharString index="113">
            184 210 -162 0 -94 -115 -95 115 -161 0 184 -210 rlineto
            return
          </CharString>
          <CharString index="114">
            184 210 -162 0 -94 -116 -95 116 -161 0 184 -210 rlineto
            return
          </CharString>
          <CharString index="115">
            -153 101 -61 132 132 102 61 153 vhcurveto
            -130 hlineto
            -68 -42 -39 -62 -61 -42 39 68 vhcurveto
            return
          </CharString>
          <CharString index="116">
            -54 41 -42 55 55 41 42 54 52 -41 41 -55 vhcurveto
            -55 -41 -41 -52 hvcurveto
            return
          </CharString>
          <CharString index="117">
            184 210 -161 0 -95 -115 -95 115 -161 0 184 -210 rlineto
            return
          </CharString>
          <CharString index="118">
            184 209 -162 0 -94 -115 -95 115 -161 0 184 -209 rlineto
            return
          </CharString>
          <CharString index="119">
            -154 102 -61 132 132 102 61 154 vhcurveto
            -130 hlineto
            -69 -42 -39 -62 -62 -42 39 69 vhcurveto
            return
          </CharString>
          <CharString index="120">
            -153 102 -61 132 131 102 61 153 vhcurveto
            -130 hlineto
            -68 -42 -39 -61 -62 -42 39 68 vhcurveto
            return
          </CharString>
          <CharString index="121">
            -53 41 -42 55 55 41 42 53 53 -41 41 -55 -55 -41 -41 -53 vhcurveto
            return
          </CharString>
          <CharString index="122">
            145 0 161 309 -187 0 rlineto
            return
          </CharString>
          <CharString index="123">
            -54 45 -44 54 55 44 44 54 55 -44 45 -55 vhcurveto
            -54 -45 -45 -55 hvcurveto
            return
          </CharString>
          <CharString index="124">
            146 0 161 309 -188 0 rlineto
            return
          </CharString>
          <CharString index="125">
            146 0 161 309 -187 0 rlineto
            return
          </CharString>
          <CharString index="126">
            145 0 162 309 -188 0 rlineto
            return
          </CharString>
          <CharString index="127">
            145 0 162 308 -188 0 rlineto
            return
          </CharString>
          <CharString index="128">
            116 0 143 209 -155 0 rlineto
            return
          </CharString>
          <CharString index="129">
            -104 -165 138 0 146 165 rlineto
            return
          </CharString>
          <CharString index="130">
            -106 165 -179 0 147 -165 rlineto
            return
          </CharString>
          <CharString index="131">
            -44 -183 99 0 99 183 rlineto
            return
          </CharString>
          <CharString index="132">
            -21 -186 76 0 91 186 rlineto
            return
          </CharString>
          <CharString index="133">
            -44 -183 100 0 98 183 rlineto
            return
          </CharString>
          <CharString index="134">
            180 0 53 200 254 0 53 -200 187 0 -258 816 -212 0 rlineto
            return
          </CharString>
          <CharString index="135">
            22 81 rlineto
            23 83 23 93 20 88 rrcurveto
            4 hlineto
            23 -86 22 -95 24 -83 rrcurveto
            21 -81 rlineto
            return
          </CharString>
          <CharString index="136">
            520 149 -342 198 280 149 -280 172 330 148 -508 hlineto
            return
          </CharString>
          <CharString index="137">
            178 345 290 -345 177 816 -177 -316 -290 316 -178 hlineto
            return
          </CharString>
          <CharString index="138">
            178 816 -178 hlineto
            return
          </CharString>
          <CharString index="139">
            -266 150 -161 219 219 150 161 266 265 -150 155 -219 -219 -150 -153 -267 vhcurveto
            return
          </CharString>
          <CharString index="140">
            167 72 100 115 115 73 -100 -167 -167 -73 -106 -115 -115 -72 106 167 vhcurveto
            return
          </CharString>
          <CharString index="141">
            245 -522 0 -294 178 0 0 294 245 522 -185 0 -75 -191 rlineto
            -23 -61 -24 -57 -24 -63 rrcurveto
            -4 hlineto
            -24 63 -22 57 -23 61 rrcurveto
            -75 191 rlineto
            return
          </CharString>
          <CharString index="142">
            330 129 hlineto
            -85 77 -45 92 0 132 rrcurveto
            145 71 104 116 117 71 -104 -145 vhcurveto
            0 -132 -45 -92 -85 -77 rrcurveto
            -129 330 143 -139 5 vlineto
            55 57 67 104 0 138 rrcurveto
            227 -150 158 -221 -221 -148 -158 -227 vhcurveto
            0 -138 67 -104 55 -57 rrcurveto
            -5 -140 vlineto
            return
          </CharString>
          <CharString index="143">
            -122 39 -81 132 vhcurveto
            51 0 28 9 26 11 rrcurveto
            -21 131 rlineto
            -13 -5 -15 -3 -10 0 -34 0 -17 13 0 39 rrcurveto
            return
          </CharString>
          <CharString index="144">
            0 109 8 183 4 148 rrcurveto
            -178 hlineto
            return
          </CharString>
          <CharString index="145">
            298 hlineto
            179 139 76 165 hvcurveto
            0 110 -63 61 -86 21 rrcurveto
            5 vlineto
            return
          </CharString>
          <CharString index="146">
            68 25 41 78 0 74 rrcurveto
            154 -131 47 -168 vhcurveto
            -277 hlineto
            return
          </CharString>
          <CharString index="147">
            178 668 333 148 -511 hlineto
            return
          </CharString>
          <CharString index="148">
            159 313 hlineto
            0 79 -14 118 -9 78 rrcurveto
            5 0 65 -193 120 -323 100 0 rlineto
            62 171 64 170 59 175 rrcurveto
            5 hlineto
            -9 -78 -14 -118 0 -79 rrcurveto
            -313 162 816 -195 vlineto
            -130 -368 rlineto
            -17 -49 -14 -53 -17 -52 rrcurveto
            -5 hlineto
            -16 52 -15 53 -17 49 rrcurveto
            -135 368 -194 0 rlineto
            return
          </CharString>
          <CharString index="149">
            178 668 277 -668 177 816 -632 hlineto
            return
          </CharString>
          <CharString index="150">
            178 281 103 hlineto
            174 144 85 190 197 -143 63 -180 hvcurveto
            -276 hlineto
            return
          </CharString>
          <CharString index="151">
            253 87 vlineto
            104 56 -30 -89 -88 -50 -46 -105 hvcurveto
            return
          </CharString>
          <CharString index="152">
            225 -668 178 668 227 148 -630 hlineto
            return
          </CharString>
          <CharString index="153">
            190 0 79 171 rlineto
            19 42 19 43 20 50 rrcurveto
            5 hlineto
            23 -50 19 -43 20 -42 rrcurveto
            84 -171 198 0 -227 413 213 403 -188 0 -69 -158 rlineto
            -17 -38 -18 -41 -19 -52 rrcurveto
            -5 hlineto
            -24 52 -18 41 -18 38 rrcurveto
            -74 158 -198 0 214 -395 rlineto
            return
          </CharString>
          <CharString index="154">
            -54 41 -41 56 54 42 41 54 53 -42 41 -54 vhcurveto
            -56 -41 -41 -53 hvcurveto
            return
          </CharString>
          <CharString index="155">
            -39 90 -62 37 -71 0 rrcurveto
            -144 -131 -123 -207 hvcurveto
            return
          </CharString>
          <CharString index="156">
            127 61 55 59 vhcurveto
            51 0 38 -36 26 -78 rrcurveto
            -8 -108 rlineto
            -6 -77 -55 -62 -57 0 rrcurveto
            -67 -42 56 123 hvcurveto
            return
          </CharString>
          <CharString index="157">
            -126 129 -65 159 vhcurveto
            79 0 70 15 80 58 rrcurveto
            -70 112 rlineto
            -48 -37 -54 -13 -39 0 rrcurveto
            -87 -45 28 46 46 31 19 68 hvcurveto
            33 0 37 -3 36 -2 rrcurveto
            127 vlineto
            -29 -2 -32 -3 -26 0 rrcurveto
            return
          </CharString>
          <CharString index="158">
            -61 -31 21 38 40 40 25 60 hvcurveto
            48 0 48 -14 42 -28 rrcurveto
            66 113 rlineto
            -61 41 -78 24 -74 0 -139 0 -125 -55 0 -122 0 -51 31 -58 64 -21 rrcurveto
            -6 vlineto
            -74 -19 -48 -45 0 -83 rrcurveto
            return
          </CharString>
          <CharString index="159">
            10 -68 3 -71 0 -49 rrcurveto
            -432 176 390 vlineto
            return
          </CharString>
          <CharString index="160">
            43 65 34 29 47 0 55 0 20 -29 0 -91 rrcurveto
            return
          </CharString>
          <CharString index="161">
            0 -146 -6 -245 -6 -195 rrcurveto
            179 hlineto
            return
          </CharString>
          <CharString index="162">
            607 vlineto
            156 -50 94 -131 vhcurveto
            -86 0 -59 -51 -55 -73 rrcurveto
            -4 0 rlineto
            return
          </CharString>
          <CharString index="163">
            12 -68 2 -71 0 -49 rrcurveto
            return
          </CharString>
          <CharString index="164">
            0 -62 -5 -61 0 -61 rrcurveto
            -156 79 -107 182 183 99 127 212 vhcurveto
            0 104 -19 107 -29 101 rrcurveto
            -170 -39 rlineto
            32 -112 10 -88 0 -81 rrcurveto
            -130 -38 -58 -68 -53 -43 35 70 vhcurveto
            return
          </CharString>
          <CharString index="165">
            0 82 8 100 0 52 0 58 -2 52 -10 43 rrcurveto
            return
          </CharString>
          <CharString index="166">
            -205 142 -119 158 158 141 119 205 207 -141 120 -158 -158 -142 -120 -207 vhcurveto
            return
          </CharString>
          <CharString index="167">
            112 39 71 80 80 37 -71 -112 -111 -37 -70 -80 -80 -39 70 111 vhcurveto
            return
          </CharString>
          <CharString index="168">
            -214 95 -115 146 vhcurveto
            74 0 60 31 35 86 rrcurveto
            4 hlineto
            34 -86 71 -31 74 0 151 0 83 120 0 213 0 130 -39 97 -57 91 rrcurveto
            -162 -60 rlineto
            61 -99 20 -67 0 -103 rrcurveto
            -117 -33 -62 -48 -51 -28 30 89 vhcurveto
            0 58 7 35 8 72 rrcurveto
            -187 hlineto
            10 -72 5 -35 0 -58 rrcurveto
            -81 -31 -38 -53 -55 -26 61 91 vhcurveto
            0 104 35 87 61 101 rrcurveto
            -166 64 rlineto
            -56 -91 -42 -126 0 -105 rrcurveto
            return
          </CharString>
          <CharString index="169">
            188 0 222 418 81 176 5 0 rlineto
            -9 -89 -14 -107 0 -96 rrcurveto
            -302 176 816 -188 vlineto
            -222 -416 -81 -177 -5 0 rlineto
            8 86 14 112 0 95 rrcurveto
            300 -175 vlineto
            return
          </CharString>
          <CharString index="170">
            13 83 53 41 60 0 rrcurveto
            76 32 -50 -74 hvcurveto
            return
          </CharString>
          <CharString index="171">
            161 0 169 271 rlineto
            20 36 31 57 21 37 rrcurveto
            5 hlineto
            -7 -77 -9 -82 0 -62 rrcurveto
            -180 171 620 -161 vlineto
            -168 -271 rlineto
            -19 -36 -34 -56 -20 -37 rrcurveto
            -4 hlineto
            6 76 9 82 0 62 rrcurveto
            180 -171 vlineto
            return
          </CharString>
          <CharString index="172">
            -50 40 -40 50 50 40 40 50 50 -40 40 -50 -50 -40 -40 -50 vhcurveto
            return
          </CharString>
          <CharString index="173">
            115 -1 58 212 28 154 -177 1 rlineto
            return
          </CharString>
          <CharString index="174">
            -63 45 -50 62 62 46 50 63 63 -46 49 -62 vhcurveto
            -62 -45 -49 -63 hvcurveto
            return
          </CharString>
          <CharString index="175">
            6 -162 26 -391 115 0 25 391 6 162 rlineto
            return
          </CharString>
          <CharString index="176">
            171 hlineto
            2 51 23 41 52 0 51 0 22 -32 0 -54 0 -60 -46 -35 -39 -32 -55 -47 -24 -60 0 -102 rrcurveto
            161 hlineto
            0 100 40 29 51 49 43 41 40 46 0 80 rrcurveto
            155 -88 68 -156 vhcurveto
            -160 -88 -77 -161 hvcurveto
            return
          </CharString>
          <CharString index="177">
            -63 45 -50 62 62 47 50 63 63 -47 49 -62 vhcurveto
            -62 -45 -49 -63 hvcurveto
            return
          </CharString>
          <CharString index="178">
            55 38 42 55 55 41 -42 -55 -55 -37 -43 -55 -55 -42 43 55 vhcurveto
            return
          </CharString>
          <CharString index="179">
            -68 0 -46 56 -127 0 -82 0 -68 -66 -37 -51 rrcurveto
            107 -86 rlineto
            32 39 29 26 53 0 rrcurveto
            return
          </CharString>
          <CharString index="180">
            81 0 43 -56 115 0 91 0 60 65 36 52 rrcurveto
            return
          </CharString>
        <CharString name=".notdef">
          213 -32 89 658 89 hstem
          192 95 328 95 vstem
          192 -32 rmoveto
          518 836 -518 hlineto
          95 -89 rmoveto
          328 -658 -328 hlineto
          endchar
        </CharString>
        <CharString name="A">
          132 -11 -21 167 144 hstem
          308 279 rmoveto
          -100 callsubr
          93 -311 rmoveto
          -99 callsubr
          endchar
        </CharString>
        <CharString name="AE">
          428 -32 143 24 144 20 141 189 142 hstem
          556 173 vstem
          355 279 rmoveto
          -39 callsubr
          173 -168 rmoveto
          -38 callsubr
          endchar
        </CharString>
        <CharString name="AEacute">
          428 -32 143 24 144 20 141 189 142 hstem
          556 173 vstem
          439 845 rmoveto
          -21 callsubr
          -188 -775 rmoveto
          -39 callsubr
          173 -168 rmoveto
          -38 callsubr
          endchar
        </CharString>
        <CharString name="Aacute">
          132 -11 -21 167 144 hstem
          340 856 rmoveto
          -44 callsubr
          -135 -787 rmoveto
          -100 callsubr
          93 -311 rmoveto
          -99 callsubr
          endchar
        </CharString>
        <CharString name="Abreve">
          132 -11 -21 167 144 577 107 hstem
          177 130 207 130 vstem
          177 1071 rmoveto
          -154 102 -61 131 132 102 61 154 vhcurveto
          -130 hlineto
          -69 -42 -39 -62 -61 -42 39 69 vhcurveto
          1 -792 rmoveto
          -100 callsubr
          93 -311 rmoveto
          -99 callsubr
          endchar
        </CharString>
        <CharString name="Acircumflex">
          132 -11 -21 167 144 hstem
          338 1066 rmoveto
          -184 -210 161 0 95 116 95 -116 162 0 -185 210 rlineto
          -174 -787 rmoveto
          -100 callsubr
          93 -311 rmoveto
          -99 callsubr
          endchar
        </CharString>
        <CharString name="Adieresis">
          132 -11 -21 167 144 577 190 hstem
          156 193 122 193 vstem
          156 952 rmoveto
          -54 42 -42 55 55 41 42 54 52 -41 42 -55 -55 -42 -42 -52 vhcurveto
          315 hmoveto
          -42 callsubr
          -163 -673 rmoveto
          -100 callsubr
          93 -311 rmoveto
          -99 callsubr
          endchar
        </CharString>
        <CharString name="Agrave">
          132 -11 -21 167 144 hstem
          377 1066 rmoveto
          -76 callsubr
          -172 -577 rmoveto
          -100 callsubr
          93 -311 rmoveto
          -99 callsubr
          endchar
        </CharString>
        <CharString name="Alpha">
          25 -14 -21 200 137 479 -20 hstem
          -7 -35 rmoveto
          27 callsubr
          12 -479 rmoveto
          28 callsubr
          endchar
        </CharString>
        <CharString name="Alphatonos">
          25 -14 -21 200 137 479 -20 hstem
          77 851 rmoveto
          26 callsubr
          -238 -886 rmoveto
          27 callsubr
          12 -479 rmoveto
          28 callsubr
          endchar
        </CharString>
        <CharString name="Amacron">
          132 -11 -21 167 144 577 115 hstem
          620 856 rmoveto
          2 callsubr
          107 -577 rmoveto
          -100 callsubr
          93 -311 rmoveto
          -99 callsubr
          endchar
        </CharString>
        <CharString name="Aogonek">
          132 -340 111 218 -21 167 144 hstem
          516 135 vstem
          308 279 rmoveto
          -100 callsubr
          93 -311 rmoveto
          9 hlineto
          -50 -42 -43 -57 0 -70 0 -75 46 -64 116 0 54 0 39 11 35 18 rrcurveto
          118 vlineto
          -28 -19 -33 -17 -42 0 -33 0 -19 16 0 27 0 54 71 58 69 42 rrcurveto
          1 0 -270 803 -224 0 -269 -803 186 0 50 167 285 0 rlineto
          endchar
        </CharString>
        <CharString name="Aring">
          132 -11 -21 167 144 496 96 133 90 hstem
          250 98 125 98 vstem
          250 934 rmoveto
          -41 callsubr
          98 4 rmoveto
          -40 callsubr
          -40 -659 rmoveto
          -100 callsubr
          93 -311 rmoveto
          -99 callsubr
          endchar
        </CharString>
        <CharString name="Aringacute">
          132 -11 -21 167 144 496 96 133 90 hstem
          250 98 125 98 vstem
          345 1103 rmoveto
          -26 callsubr
          -199 -379 rmoveto
          -41 callsubr
          98 4 rmoveto
          -40 callsubr
          -40 -659 rmoveto
          -100 callsubr
          93 -311 rmoveto
          -99 callsubr
          endchar
        </CharString>
        <CharString name="Atilde">
          132 -11 -21 167 144 587 119 -76 119 hstemhm
          hintmask 11100000
          558 1037 rmoveto
          -16 -30 -28 -22 -39 0 rrcurveto
          hintmask 11010000
          -52 0 -30 43 -79 0 -62 0 -52 -47 -24 -50 rrcurveto
          76 -75 rlineto
          32 38 16 15 42 0 rrcurveto
          hintmask 11100000
          -43 callsubr
          -337 -687 rmoveto
          -100 callsubr
          93 -311 rmoveto
          -99 callsubr
          endchar
        </CharString>
        <CharString name="B">
          31 -32 143 192 140 186 142 hstemhm
          79 178 219 181 -161 181 hintmask 11110100
          257 111 rmoveto
          192 102 vlineto
          103 34 -44 -52 -62 -44 -34 -93 hvcurveto
          -102 518 rmoveto
          100 hlineto
          hintmask 11111000
          83 36 -33 -55 -55 -46 -43 -102 hvcurveto
          -71 hlineto
          -178 328 rmoveto
          -803 343 vlineto
          hintmask 11110100
          161 94 94 124 hvcurveto
          0 112 -68 55 -73 22 rrcurveto
          hintmask 11111000
          71 22 50 68 0 86 rrcurveto
          121 -86 99 -185 vhcurveto
          endchar
        </CharString>
        <CharString name="Beta">
          53 -35 137 219 132 192 136 hstemhm
          87 178 225 173 -133 173 hintmask 11110100
          87 -35 rmoveto
          38 callsubr
          hintmask 11111000
          39 callsubr
          178 -679 rmoveto
          219 106 vlineto
          hintmask 11110100
          105 54 -30 -74 -78 -55 -37 -104 hvcurveto
          -106 351 rmoveto
          192 90 vlineto
          hintmask 11111000
          91 44 -26 -66 -61 -43 -39 -94 hvcurveto
          endchar
        </CharString>
        <CharString name="C">
          42 -41 162 500 161 hstem
          48 191 vstem
          671 738 rmoveto
          -98 callsubr
          endchar
        </CharString>
        <CharString name="Cacute">
          42 -41 162 500 161 hstem
          48 191 vstem
          360 856 rmoveto
          -26 callsubr
          207 -328 rmoveto
          -98 callsubr
          endchar
        </CharString>
        <CharString name="Ccaron">
          42 -41 162 500 161 hstem
          48 191 vstem
          505 856 rmoveto
          6 callsubr
          310 -118 rmoveto
          -98 callsubr
          endchar
        </CharString>
        <CharString name="Ccedilla">
          42 -291 106 806 161 hstem
          48 191 188 120 vstem
          671 738 rmoveto
          -65 40 -85 4 -58 0 -247 0 -168 -170 0 -244 0 -223 149 -155 201 -27 12 -16 17 -26 0 -29 0 -47 -32 -29 -59 -1 rrcurveto
          -106 vlineto
          146 1 65 77 0 92 0 29 -5 32 -12 22 47 4 51 11 43 27 rrcurveto
          175 vlineto
          -53 -38 -75 -20 -64 0 rrcurveto
          -139 -101 92 155 159 105 94 127 hvcurveto
          74 0 55 -12 71 -43 rrcurveto
          endchar
        </CharString>
        <CharString name="Ccircumflex">
          42 -41 162 500 161 hstem
          48 191 vstem
          332 1054 rmoveto
          4 callsubr
          195 -316 rmoveto
          -98 callsubr
          endchar
        </CharString>
        <CharString name="Cdotaccent">
          42 -41 162 500 161 63 188 hstem
          48 191 98 192 vstem
          337 940 rmoveto
          -54 41 -41 56 54 41 41 54 53 -41 40 -54 -56 -41 -40 -53 vhcurveto
          334 -202 rmoveto
          -98 callsubr
          endchar
        </CharString>
        <CharString name="Chi">
          13 -14 -21 816 -20 hstem
          12 -35 rmoveto
          46 callsubr
          endchar
        </CharString>
        <CharString name="D">
          125 -32 146 510 147 hstem
          79 182 323 181 vstem
          261 114 rmoveto
          -97 callsubr
          -269 657 rmoveto
          -96 callsubr
          endchar
        </CharString>
        <CharString name="Dcaron">
          125 -32 146 510 147 hstem
          79 182 323 181 vstem
          453 856 rmoveto
          185 210 -162 0 -95 -115 -95 115 -161 0 184 -210 rlineto
          -48 -742 rmoveto
          -97 callsubr
          -269 657 rmoveto
          -96 callsubr
          endchar
        </CharString>
        <CharString name="Dcroat">
          204 -32 146 177 144 189 147 hstem
          158 182 323 181 vstem
          340 114 rmoveto
          -33 callsubr
          -269 657 rmoveto
          -32 callsubr
          endchar
        </CharString>
        <CharString name="E">
          -42 -32 143 198 141 179 142 hstem
          79 179 vstem
          258 111 rmoveto
          -95 callsubr
          endchar
        </CharString>
        <CharString name="Eacute">
          -42 -32 143 198 141 179 142 hstem
          79 179 vstem
          253 856 rmoveto
          -44 callsubr
          -98 -955 rmoveto
          -95 callsubr
          endchar
        </CharString>
        <CharString name="Ebreve">
          -42 -32 143 198 141 179 142 74 107 hstemhm
          79 179 -167 130 207 130 hintmask 11110110
          91 1059 rmoveto
          8 callsubr
          hintmask 11111010
          37 -948 rmoveto
          -95 callsubr
          endchar
        </CharString>
        <CharString name="Ecaron">
          -42 -32 143 198 141 179 142 hstem
          79 179 vstem
          396 856 rmoveto
          10 callsubr
          6 -745 rmoveto
          -95 callsubr
          endchar
        </CharString>
        <CharString name="Ecircumflex">
          -42 -32 143 198 141 179 142 hstem
          79 179 vstem
          252 1066 rmoveto
          -37 callsubr
          -138 -955 rmoveto
          -95 callsubr
          endchar
        </CharString>
        <CharString name="Edieresis">
          -42 -32 143 198 141 179 142 85 190 hstemhm
          70 193 -184 179 127 193 hintmask 11111010
          70 952 rmoveto
          -36 callsubr
          315 hmoveto
          -42 callsubr
          hintmask 11110110
          -127 -841 rmoveto
          -95 callsubr
          endchar
        </CharString>
        <CharString name="Edotaccent">
          -42 -32 143 198 141 179 142 86 189 hstemhm
          79 179 -29 192 hintmask 11110100
          229 953 rmoveto
          9 callsubr
          hintmask 11111000
          29 -842 rmoveto
          -95 callsubr
          endchar
        </CharString>
        <CharString name="Egrave">
          -42 -32 143 198 141 179 142 hstem
          79 179 vstem
          293 1066 rmoveto
          -171 0 144 -210 131 0 rlineto
          -139 -745 rmoveto
          -95 callsubr
          endchar
        </CharString>
        <CharString name="Emacron">
          -42 -32 143 198 141 179 142 85 115 hstem
          79 179 vstem
          534 856 rmoveto
          2 callsubr
          143 -745 rmoveto
          -95 callsubr
          endchar
        </CharString>
        <CharString name="Eng">
          121 -275 136 128 -21 hstem
          68 180 310 180 vstem
          68 -32 rmoveto
          180 0 1 529 309 -531 0 -5 rlineto
          -64 -23 -36 -48 vhcurveto
          -18 0 -16 1 -19 4 rrcurveto
          -6 -133 rlineto
          26 -6 27 -2 32 0 rrcurveto
          146 79 85 149 hvcurveto
          813 -180 -528 vlineto
          -102 176 -103 176 -104 176 rrcurveto
          -181 hlineto
          endchar
        </CharString>
        <CharString name="Eogonek">
          -42 -340 111 197 143 198 141 179 142 hstemhm
          79 179 -63 135 hintmask 11111000
          258 111 rmoveto
          198 278 141 -278 179 312 142 -491 -803 209 vlineto
          hintmask 11110100
          -50 -42 -43 -57 0 -70 0 -75 46 -64 116 0 54 0 39 11 34 18 rrcurveto
          118 vlineto
          -27 -19 -33 -17 -42 0 -33 0 -19 16 0 27 0 54 71 58 69 42 rrcurveto
          105 143 hlineto
          endchar
        </CharString>
        <CharString name="Epsilon">
          -20 -35 149 198 149 172 148 hstem
          87 178 vstem
          87 -35 rmoveto
          29 callsubr
          endchar
        </CharString>
        <CharString name="Epsilontonos">
          -20 -35 149 198 149 172 148 hstem
          87 178 vstem
          -72 852 rmoveto
          26 callsubr
          5 -887 rmoveto
          29 callsubr
          endchar
        </CharString>
        <CharString name="Eta">
          132 -14 -21 345 155 316 -20 hstem
          87 178 290 177 vstem
          87 -35 rmoveto
          30 callsubr
          endchar
        </CharString>
        <CharString name="Etatonos">
          132 -14 -21 345 155 316 -20 hstem
          87 178 290 177 vstem
          -71 851 rmoveto
          26 callsubr
          4 -886 rmoveto
          30 callsubr
          endchar
        </CharString>
        <CharString name="Eth">
          204 -32 146 177 144 189 147 hstem
          158 182 323 181 vstem
          340 114 rmoveto
          -33 callsubr
          -269 657 rmoveto
          -32 callsubr
          endchar
        </CharString>
        <CharString name="Euro">
          51 -41 155 95 105 79 105 101 159 hstem
          140 178 vstem
          692 714 rmoveto
          -47 29 -49 15 -94 0 -153 0 -139 -89 -51 -171 rrcurveto
          -110 -105 92 hlineto
          -1 -13 0 -16 0 -14 0 -13 0 -11 1 -12 rrcurveto
          -92 -105 111 hlineto
          49 -150 125 -100 174 0 102 0 43 19 39 22 rrcurveto
          171 vlineto
          -38 -31 -52 -26 -78 0 -77 0 -61 34 -35 61 rrcurveto
          215 105 -247 hlineto
          -1 11 0 12 0 12 0 14 1 16 1 14 rrcurveto
          246 105 -213 hlineto
          36 65 61 36 80 0 76 0 48 -24 38 -31 rrcurveto
          endchar
        </CharString>
        <CharString name="F">
          -85 -11 -21 316 142 203 142 hstem
          79 179 vstem
          565 629 rmoveto
          142 -486 -803 179 316 268 142 -268 203 vlineto
          endchar
        </CharString>
        <CharString name="G">
          152 -41 160 174 152 178 163 hstem
          48 192 353 174 vstem
          767 445 rmoveto
          -94 callsubr
          endchar
        </CharString>
        <CharString name="Gamma">
          -52 -14 -21 668 148 hstem
          87 178 vstem
          87 -35 rmoveto
          40 callsubr
          endchar
        </CharString>
        <CharString name="Gbreve">
          152 -41 160 174 152 178 163 71 107 hstemhm
          48 192 -22 130 208 130 -93 174 hintmask 11110110
          218 1072 rmoveto
          12 callsubr
          hintmask 11111001
          419 -627 rmoveto
          -94 callsubr
          endchar
        </CharString>
        <CharString name="Gcircumflex">
          152 -41 160 174 152 178 163 hstem
          48 192 353 174 vstem
          354 1056 rmoveto
          -25 callsubr
          269 -611 rmoveto
          -94 callsubr
          endchar
        </CharString>
        <CharString name="Gdotaccent">
          152 -41 160 174 152 178 163 60 189 hstem
          48 192 155 192 6 174 vstem
          395 942 rmoveto
          -54 41 -42 55 55 41 42 54 52 -41 41 -55 -55 -41 -41 -52 vhcurveto
          372 -497 rmoveto
          -94 callsubr
          endchar
        </CharString>
        <CharString name="H">
          127 -11 -21 333 152 hstem
          79 178 300 180 vstem
          557 771 rmoveto
          -93 callsubr
          endchar
        </CharString>
        <CharString name="Hbar">
          127 -11 -21 333 152 106 90 hstem
          79 178 300 180 vstem
          257 559 rmoveto
          300 -106 -300 hlineto
          300 318 rmoveto
          -122 -300 122 -178 -122 -61 -90 61 -591 178 333 300 -333 180 591 vlineto
          61 90 -61 122 hlineto
          endchar
        </CharString>
        <CharString name="Hcircumflex">
          127 -11 -21 333 152 hstem
          79 178 300 180 vstem
          336 1054 rmoveto
          -20 callsubr
          77 -283 rmoveto
          -93 callsubr
          endchar
        </CharString>
        <CharString name="I">
          -290 -32 143 517 143 hstem
          42 313 vstem
          42 -32 rmoveto
          -92 callsubr
          endchar
        </CharString>
        <CharString name="IJ">
          134 -33 156 -155 143 517 143 hstemhm
          42 313 217 178 hintmask 10111000
          374 -9 rmoveto
          29 -15 60 -9 44 0 rrcurveto
          146 97 86 156 hvcurveto
          561 -178 -557 vlineto
          -65 -42 -25 -58 vhcurveto
          -34 0 -44 13 -20 13 rrcurveto
          hintmask 01111000
          -332 -181 rmoveto
          -92 callsubr
          endchar
        </CharString>
        <CharString name="Iacute">
          -290 -32 143 517 143 hstem
          42 313 vstem
          109 856 rmoveto
          -44 callsubr
          -170 -1098 rmoveto
          -92 callsubr
          endchar
        </CharString>
        <CharString name="Ibreve">
          -290 -32 143 517 143 74 107 hstemhm
          -55 130 -33 313 -73 130 hintmask 11110100
          -55 1059 rmoveto
          8 callsubr
          hintmask 11101000
          -33 -1091 rmoveto
          -92 callsubr
          endchar
        </CharString>
        <CharString name="Icircumflex">
          -290 -32 143 517 143 hstem
          42 313 vstem
          107 1066 rmoveto
          -37 callsubr
          -209 -1098 rmoveto
          -92 callsubr
          endchar
        </CharString>
        <CharString name="Idieresis">
          -290 -32 143 517 143 85 190 hstemhm
          -75 193 -76 313 -115 193 hintmask 11110000
          -75 952 rmoveto
          -36 callsubr
          hintmask 11100100
          315 hmoveto
          -34 callsubr
          hintmask 11101000
          -198 -984 rmoveto
          -92 callsubr
          endchar
        </CharString>
        <CharString name="Idotaccent">
          -290 -32 143 517 143 86 189 hstemhm
          42 313 -272 192 hintmask 11101000
          83 953 rmoveto
          9 callsubr
          hintmask 11110000
          -41 -985 rmoveto
          -92 callsubr
          endchar
        </CharString>
        <CharString name="Igrave">
          -290 -32 143 517 143 hstem
          42 313 vstem
          145 1066 rmoveto
          -35 callsubr
          -207 -888 rmoveto
          -92 callsubr
          endchar
        </CharString>
        <CharString name="Imacron">
          -290 -32 143 517 143 85 115 hstem
          42 313 vstem
          389 856 rmoveto
          2 callsubr
          72 -888 rmoveto
          -92 callsubr
          endchar
        </CharString>
        <CharString name="Iogonek">
          -290 -341 112 197 143 517 143 hstemhm
          -7 135 -86 313 -242 172 hintmask 11101000
          42 -32 rmoveto
          46 hlineto
          hintmask 11110000
          -51 -42 -44 -57 0 -71 0 -75 46 -64 117 0 53 0 40 11 34 18 rrcurveto
          118 vlineto
          -28 -19 -32 -16 -42 0 -33 0 -20 15 0 27 0 54 71 58 69 43 rrcurveto
          hintmask 11101000
          87 143 hlineto
          hintmask 11100100
          -70 517 hlineto
          hintmask 11101000
          70 143 -313 -143 hlineto
          hintmask 11100100
          71 -517 hlineto
          hintmask 11101000
          -71 hlineto
          endchar
        </CharString>
        <CharString name="Iota">
          -336 -14 -21 816 -20 hstem
          87 178 vstem
          87 -35 rmoveto
          31 callsubr
          endchar
        </CharString>
        <CharString name="Iotadieresis">
          -336 -14 -21 816 -20 84 189 hstemhm
          -78 193 -28 178 -28 193 hintmask 11110000
          -78 940 rmoveto
          -54 42 -41 55 55 41 41 54 53 -41 41 -55 vhcurveto
          -55 -42 -41 -53 hvcurveto
          hintmask 11100100
          315 hmoveto
          47 callsubr
          hintmask 11101000
          -150 -975 rmoveto
          31 callsubr
          endchar
        </CharString>
        <CharString name="Iotatonos">
          -336 -14 -21 816 -20 hstem
          87 178 vstem
          -95 852 rmoveto
          -43 -183 99 0 99 183 rlineto
          27 -887 rmoveto
          31 callsubr
          endchar
        </CharString>
        <CharString name="Itilde">
          -290 -32 143 517 143 83 120 -77 119 hstemhm
          42 313 hintmask 11101000
          326 1025 rmoveto
          -16 -30 -28 -21 -39 0 rrcurveto
          hintmask 11011000
          -52 0 -30 42 -79 0 -62 0 -52 -47 -24 -50 rrcurveto
          76 -74 rlineto
          31 37 17 15 42 0 rrcurveto
          hintmask 11101000
          42 0 30 -43 71 0 73 0 56 39 30 62 rrcurveto
          -370 -987 rmoveto
          -92 callsubr
          endchar
        </CharString>
        <CharString name="J">
          -223 -33 156 hstem
          214 178 vstem
          16 -9 rmoveto
          -91 callsubr
          endchar
        </CharString>
        <CharString name="Jcircumflex">
          -223 -33 156 hstem
          214 178 vstem
          231 1054 rmoveto
          -20 callsubr
          -359 -1063 rmoveto
          -91 callsubr
          endchar
        </CharString>
        <CharString name="K">
          95 -11 -21 hstem
          79 178 vstem
          79 -32 rmoveto
          -90 callsubr
          endchar
        </CharString>
        <CharString name="Kappa">
          65 -14 -21 816 -20 hstem
          87 178 vstem
          87 -35 rmoveto
          178 222 hlineto
          99 130 202 -352 195 0 -293 492 248 324 -195 0 -253 -340 -3 0 0 340 -178 0 rlineto
          endchar
        </CharString>
        <CharString name="L">
          -107 -32 156 hstem
          79 178 vstem
          257 124 rmoveto
          -89 callsubr
          endchar
        </CharString>
        <CharString name="Lacute">
          -107 -32 156 hstem
          79 178 vstem
          247 856 rmoveto
          -46 callsubr
          -94 -942 rmoveto
          -89 callsubr
          endchar
        </CharString>
        <CharString name="Lambda">
          3 -14 -21 816 -20 hstem
          -8 -35 rmoveto
          180 0 100 387 rlineto
          23 89 18 83 25 90 rrcurveto
          6 hlineto
          25 -90 17 -83 25 -89 rrcurveto
          100 -387 188 0 -248 816 -213 0 rlineto
          endchar
        </CharString>
        <CharString name="Lcaron">
          -107 -32 156 661 -20 hstem
          79 178 vstem
          289 476 rmoveto
          19 callsubr
          -151 -661 rmoveto
          -89 callsubr
          endchar
        </CharString>
        <CharString name="Ldot">
          -107 -32 156 149 208 hstem
          79 178 60 208 vstem
          317 377 rmoveto
          -57 46 -47 58 57 47 47 57 58 -47 46 -57 -58 -46 -46 -58 vhcurveto
          -60 -253 rmoveto
          -89 callsubr
          endchar
        </CharString>
        <CharString name="Lslash">
          -21 -32 156 hstem
          146 179 vstem
          325 124 rmoveto
          0 191 195 111 0 141 -195 -110 0 314 -179 0 0 -415 -93 -54 0 -140 93 54 0 -248 478 0 0 156 rlineto
          endchar
        </CharString>
        <CharString name="M">
          374 -11 -21 hstem
          61 -32 rmoveto
          -88 callsubr
          endchar
        </CharString>
        <CharString name="Mu">
          240 -14 -21 816 -20 hstem
          87 159 434 162 vstem
          87 -35 rmoveto
          41 callsubr
          endchar
        </CharString>
        <CharString name="N">
          142 -11 -21 hstem
          79 178 316 178 vstem
          79 -32 rmoveto
          -87 callsubr
          endchar
        </CharString>
        <CharString name="NULL">
          -687 endchar
        </CharString>
        <CharString name="Nacute">
          142 -11 -21 hstem
          79 178 316 178 vstem
          344 856 rmoveto
          -46 callsubr
          -369 -1098 rmoveto
          -87 callsubr
          endchar
        </CharString>
        <CharString name="Ncaron">
          142 -11 -21 hstem
          79 178 316 178 vstem
          487 856 rmoveto
          6 callsubr
          -264 -888 rmoveto
          -87 callsubr
          endchar
        </CharString>
        <CharString name="Ntilde">
          142 -11 -21 898 119 -76 119 hstemhm
          79 178 316 178 hintmask 11011000
          562 1037 rmoveto
          -15 -30 -29 -22 -38 0 rrcurveto
          hintmask 10111000
          -53 0 -30 43 -79 0 -61 0 -52 -47 -24 -50 rrcurveto
          76 -75 rlineto
          31 38 16 15 42 0 rrcurveto
          hintmask 11011000
          43 0 29 -43 71 0 74 0 55 39 31 61 rrcurveto
          -570 -998 rmoveto
          -87 callsubr
          endchar
        </CharString>
        <CharString name="Nu">
          122 -14 -21 816 -20 hstem
          87 169 297 169 vstem
          87 -35 rmoveto
          169 302 hlineto
          0 96 -15 107 -8 89 rrcurveto
          6 0 81 -177 221 -417 181 0 0 816 -169 0 0 -300 rlineto
          0 -95 13 -112 10 -86 rrcurveto
          -5 0 -81 178 -222 415 -181 0 rlineto
          endchar
        </CharString>
        <CharString name="O">
          187 -41 162 502 162 hstem
          48 191 397 191 vstem
          48 373 rmoveto
          -86 callsubr
          191 hmoveto
          -85 callsubr
          endchar
        </CharString>
        <CharString name="OE">
          435 -41 162 -151 143 188 141 181 162 -154 143 hstemhm
          48 191 318 179 hintmask 10100110
          48 373 rmoveto
          -248 152 -166 238 vhcurveto
          hintmask 01101110
          35 0 54 4 30 7 rrcurveto
          497 143 -318 188 278 141 -278 189 313 143 -489 hlineto
          hintmask 10110110
          -32 7 -55 4 -36 0 rrcurveto
          -237 -152 -167 -245 hvcurveto
          191 hmoveto
          153 76 97 122 vhcurveto
          38 0 54 -10 28 -17 rrcurveto
          -447 vlineto
          -28 -18 -54 -10 -37 0 rrcurveto
          -123 -76 98 154 hvcurveto
          endchar
        </CharString>
        <CharString name="Oacute">
          187 -41 162 502 162 hstem
          48 191 397 191 vstem
          367 856 rmoveto
          -44 callsubr
          -422 -693 rmoveto
          -86 callsubr
          191 hmoveto
          -85 callsubr
          endchar
        </CharString>
        <CharString name="Obreve">
          187 -41 162 502 162 60 107 hstemhm
          48 191 -35 130 207 130 -35 191 hintmask 11101100
          204 1059 rmoveto
          13 callsubr
          hintmask 11110010
          -286 -686 rmoveto
          -30 callsubr
          191 hmoveto
          -85 callsubr
          endchar
        </CharString>
        <CharString name="Ocircumflex">
          187 -41 162 502 162 hstem
          48 191 397 191 vstem
          366 1066 rmoveto
          -31 callsubr
          -461 -693 rmoveto
          -86 callsubr
          191 hmoveto
          -85 callsubr
          endchar
        </CharString>
        <CharString name="Odieresis">
          187 -41 162 502 162 71 190 hstemhm
          48 191 -56 193 122 193 -55 191 hintmask 11101000
          183 952 rmoveto
          -36 callsubr
          hintmask 11100100
          315 hmoveto
          -34 callsubr
          hintmask 11110010
          -450 -579 rmoveto
          -30 callsubr
          191 hmoveto
          -85 callsubr
          endchar
        </CharString>
        <CharString name="Ograve">
          187 -41 162 502 162 hstem
          48 191 397 191 vstem
          404 1066 rmoveto
          -35 callsubr
          -460 -483 rmoveto
          -86 callsubr
          191 hmoveto
          -85 callsubr
          endchar
        </CharString>
        <CharString name="Ohorn">
          120 -45 139 547 141 44 -20 hstemhm
          45 183 331 184 -24 103 hintmask 11111000
          45 340 rmoveto
          1 -77 16 -67 29 -59 53 -105 101 -77 150 0 68 0 62 15 52 33 102 63 64 121 0 163 rrcurveto
          39 vlineto
          0 79 -19 64 -25 63 rrcurveto
          hintmask 11110100
          80 31 42 67 1 133 rrcurveto
          -103 hlineto
          0 -80 -9 -60 -58 -18 -47 69 -102 45 -109 0 -69 0 -61 -17 -53 -33 -102 -62 -64 -120 0 -164 rrcurveto
          183 -36 rmoveto
          1 61 rlineto
          6 150 53 80 106 0 rrcurveto
          hintmask 11111000
          125 40 -119 -135 hvcurveto
          -40 vlineto
          -132 -40 -121 -124 -128 -39 119 137 vhcurveto
          endchar
        </CharString>
        <CharString name="Ohungarumlaut">
          187 -41 162 502 162 hstem
          48 191 397 191 vstem
          485 856 rmoveto
          116 0 166 210 -170 0 rlineto
          -333 -210 rmoveto
          116 0 143 210 -156 0 rlineto
          -319 -693 rmoveto
          -86 callsubr
          191 hmoveto
          -85 callsubr
          endchar
        </CharString>
        <CharString name="Omacron">
          187 -41 162 502 162 71 115 hstem
          48 191 397 191 vstem
          647 856 rmoveto
          2 callsubr
          -180 -483 rmoveto
          -86 callsubr
          191 hmoveto
          -85 callsubr
          endchar
        </CharString>
        <CharString name="Omegatonos">
          189 -35 143 536 153 hstem
          69 182 375 183 vstem
          -31 851 rmoveto
          24 callsubr
          -72 -886 rmoveto
          35 callsubr
          endchar
        </CharString>
        <CharString name="Omicron">
          155 -50 154 540 153 hstem
          52 182 375 181 vstem
          52 377 rmoveto
          32 callsubr
          182 hmoveto
          33 callsubr
          endchar
        </CharString>
        <CharString name="Omicrontonos">
          155 -50 154 540 153 hstem
          52 182 375 181 vstem
          -51 851 rmoveto
          24 callsubr
          -51 -474 rmoveto
          32 callsubr
          182 hmoveto
          33 callsubr
          endchar
        </CharString>
        <CharString name="Oslash">
          160 -41 154 519 153 hstem
          45 183 413 183 vstem
          619 505 rmoveto
          -29 callsubr
          -93 104 rmoveto
          -28 callsubr
          297 173 rmoveto
          -27 callsubr
          endchar
        </CharString>
        <CharString name="Oslashacute">
          160 -41 154 519 153 hstem
          45 183 413 183 vstem
          369 845 rmoveto
          -6 callsubr
          146 -549 rmoveto
          -29 callsubr
          -93 104 rmoveto
          -28 callsubr
          297 173 rmoveto
          -27 callsubr
          endchar
        </CharString>
        <CharString name="Otilde">
          187 -41 162 502 162 81 119 -76 119 hstemhm
          48 191 397 191 hintmask 11101100
          585 1037 rmoveto
          -16 -30 -28 -22 -39 0 rrcurveto
          hintmask 11011100
          -52 0 -30 43 -79 0 -61 0 -53 -47 -24 -50 rrcurveto
          76 -75 rlineto
          32 38 16 15 42 0 rrcurveto
          hintmask 11101100
          -43 callsubr
          -624 -593 rmoveto
          -86 callsubr
          191 hmoveto
          -85 callsubr
          endchar
        </CharString>
        <CharString name="P">
          -18 -11 -21 262 142 257 142 hstem
          79 178 213 180 vstem
          257 372 rmoveto
          257 74 vlineto
          98 41 -48 -74 -81 -41 -54 -107 hvcurveto
          -243 399 rmoveto
          -803 178 262 94 vlineto
          160 139 93 184 151 -117 113 -182 hvcurveto
          endchar
        </CharString>
        <CharString name="Phi">
          250 -41 -21 109 135 386 134 108 -20 hstem
          55 168 168 157 167 168 vstem
          55 377 rmoveto
          0 -197 134 -117 202 -16 rrcurveto
          -109 157 109 vlineto
          202 16 133 117 0 197 0 197 -133 112 -202 16 rrcurveto
          108 -157 -108 vlineto
          -202 -16 -134 -112 0 -197 rrcurveto
          168 hmoveto
          0 107 66 69 102 15 rrcurveto
          -386 vlineto
          -102 15 -66 73 0 107 rrcurveto
          325 -195 rmoveto
          386 vlineto
          101 -15 66 -69 0 -107 0 -107 -66 -73 -101 -15 rrcurveto
          endchar
        </CharString>
        <CharString name="Pi">
          118 -14 -21 668 148 hstem
          87 178 277 177 vstem
          87 -35 rmoveto
          42 callsubr
          endchar
        </CharString>
        <CharString name="Psi">
          233 -14 -21 278 140 398 -20 hstem
          59 173 146 166 144 174 vstem
          59 580 rmoveto
          0 -222 120 -101 199 -14 rrcurveto
          -278 166 278 vlineto
          199 14 119 101 0 222 rrcurveto
          201 -174 -190 vlineto
          0 -143 -50 -54 -94 -11 rrcurveto
          398 -166 -398 vlineto
          -95 10 -51 55 0 143 rrcurveto
          190 -173 vlineto
          endchar
        </CharString>
        <CharString name="Q">
          193 -40 161 502 162 hstem
          48 191 397 191 vstem
          239 373 rmoveto
          -85 callsubr
          636 -507 rmoveto
          -244 139 rlineto
          123 65 73 132 0 171 rrcurveto
          247 -151 165 -239 -237 -152 -167 -245 -247 150 -166 238 vhcurveto
          238 -171 rlineto
          endchar
        </CharString>
        <CharString name="R">
          40 -11 -21 659 144 hstem
          79 178 212 179 vstem
          79 -32 rmoveto
          -84 callsubr
          178 -376 rmoveto
          -83 callsubr
          endchar
        </CharString>
        <CharString name="Racute">
          40 -11 -21 659 144 hstem
          79 178 212 179 vstem
          244 856 rmoveto
          -46 callsubr
          -269 -1098 rmoveto
          -84 callsubr
          178 -376 rmoveto
          -83 callsubr
          endchar
        </CharString>
        <CharString name="Rcaron">
          40 -11 -21 659 144 hstem
          79 178 212 179 vstem
          387 856 rmoveto
          6 callsubr
          -164 -888 rmoveto
          -84 callsubr
          178 -376 rmoveto
          -83 callsubr
          endchar
        </CharString>
        <CharString name="Rho">
          40 -14 -21 281 141 253 141 hstem
          87 178 247 174 vstem
          87 -35 rmoveto
          43 callsubr
          178 -394 rmoveto
          44 callsubr
          endchar
        </CharString>
        <CharString name="S">
          -74 -41 152 513 153 hstem
          49 192 146 189 vstem
          540 736 rmoveto
          -82 callsubr
          endchar
        </CharString>
        <CharString name="Sacute">
          -74 -41 152 513 153 hstem
          49 192 146 189 vstem
          244 856 rmoveto
          -44 callsubr
          193 -330 rmoveto
          -82 callsubr
          endchar
        </CharString>
        <CharString name="Scaron">
          -74 -41 152 513 153 hstem
          49 192 146 189 vstem
          386 856 rmoveto
          10 callsubr
          298 -120 rmoveto
          -82 callsubr
          endchar
        </CharString>
        <CharString name="Scircumflex">
          -74 -41 152 513 153 hstem
          49 192 146 189 vstem
          262 1054 rmoveto
          4 callsubr
          134 -318 rmoveto
          -82 callsubr
          endchar
        </CharString>
        <CharString name="Sigma">
          -12 -35 149 519 148 hstem
          42 -35 rmoveto
          595 149 -373 hlineto
          211 268 -207 251 335 0 0 148 -557 0 0 -106 251 -297 -255 -306 rlineto
          endchar
        </CharString>
        <CharString name="T">
          -24 -11 -21 660 143 hstem
          243 179 vstem
          629 771 rmoveto
          -81 callsubr
          endchar
        </CharString>
        <CharString name="Tau">
          0 -14 -21 668 148 hstem
          254 178 vstem
          29 633 rmoveto
          45 callsubr
          endchar
        </CharString>
        <CharString name="Tbar">
          -24 -11 -21 406 95 159 143 hstem
          243 179 vstem
          629 771 rmoveto
          -594 -143 208 -159 -111 -95 111 -406 179 406 101 95 -101 159 207 hlineto
          endchar
        </CharString>
        <CharString name="Tcaron">
          -24 -11 -21 660 143 hstem
          243 179 vstem
          394 856 rmoveto
          6 callsubr
          379 -85 rmoveto
          -81 callsubr
          endchar
        </CharString>
        <CharString name="Theta">
          155 -50 154 206 155 179 153 hstem
          52 182 63 249 63 181 vstem
          52 377 rmoveto
          32 callsubr
          182 hmoveto
          33 callsubr
          63 -67 rmoveto
          249 155 -249 hlineto
          endchar
        </CharString>
        <CharString name="Thorn">
          -18 -11 -21 132 142 255 143 hstem
          79 178 213 179 vstem
          257 242 rmoveto
          255 80 vlineto
          103 30 -70 -59 -69 -40 -57 -92 hvcurveto
          -81 398 rmoveto
          131 -178 -803 178 132 94 vlineto
          160 138 91 184 151 -116 114 -183 hvcurveto
          endchar
        </CharString>
        <CharString name="U">
          107 -44 162 hstem
          73 178 293 178 vstem
          544 277 rmoveto
          -80 callsubr
          endchar
        </CharString>
        <CharString name="Uacute">
          107 -44 162 hstem
          73 178 293 178 vstem
          327 856 rmoveto
          -26 callsubr
          113 -789 rmoveto
          -80 callsubr
          endchar
        </CharString>
        <CharString name="Ubreve">
          107 -44 162 727 107 hstemhm
          73 178 -88 130 208 130 -87 178 hintmask 11011000
          163 1059 rmoveto
          3 callsubr
          hintmask 11100100
          251 -782 rmoveto
          -80 callsubr
          endchar
        </CharString>
        <CharString name="Ucircumflex">
          107 -44 162 hstem
          73 178 293 178 vstem
          325 1066 rmoveto
          -25 callsubr
          75 -789 rmoveto
          -80 callsubr
          endchar
        </CharString>
        <CharString name="Udieresis">
          107 -44 162 738 190 hstemhm
          73 178 -108 192 123 192 -106 178 hintmask 11010000
          143 952 rmoveto
          -24 callsubr
          hintmask 11001000
          315 hmoveto
          -23 callsubr
          hintmask 11100100
          86 -675 rmoveto
          -80 callsubr
          endchar
        </CharString>
        <CharString name="Ugrave">
          107 -44 162 hstem
          73 178 293 178 vstem
          364 1066 rmoveto
          -35 callsubr
          76 -579 rmoveto
          -80 callsubr
          endchar
        </CharString>
        <CharString name="Uhorn">
          132 -43 137 469 80 173 -20 hstem
          65 182 266 180 114 103 vstem
          65 241 rmoveto
          -183 127 -101 188 190 123 99 189 vhcurveto
          318 vlineto
          160 1 56 84 1 168 rrcurveto
          -103 hlineto
          -108 -12 -65 -102 vhcurveto
          128 -180 -524 vlineto
          -100 -39 -53 -94 -85 -48 48 95 vhcurveto
          534 -182 vlineto
          endchar
        </CharString>
        <CharString name="Uhungarumlaut">
          107 -44 162 hstem
          73 178 293 178 vstem
          446 856 rmoveto
          115 0 166 210 -169 0 rlineto
          -333 -210 rmoveto
          115 0 143 210 -155 0 rlineto
          216 -789 rmoveto
          -80 callsubr
          endchar
        </CharString>
        <CharString name="Umacron">
          107 -44 162 738 115 hstem
          73 178 293 178 vstem
          607 856 rmoveto
          2 callsubr
          356 -579 rmoveto
          -80 callsubr
          endchar
        </CharString>
        <CharString name="Uogonek">
          107 -331 111 hstem
          73 178 6 135 152 178 vstem
          544 277 rmoveto
          -124 -66 -35 -81 -77 -69 35 118 vhcurveto
          500 -178 -501 vlineto
          0 -182 104 -105 155 -22 -42 -40 -33 -51 0 -62 0 -75 46 -64 117 0 53 0 40 11 34 18 rrcurveto
          118 vlineto
          -27 -19 -33 -17 -42 0 -33 0 -20 16 0 27 0 54 71 58 69 42 117 41 73 102 0 159 rrcurveto
          492 -178 vlineto
          endchar
        </CharString>
        <CharString name="Upsilon">
          -37 -14 -21 816 -20 hstem
          237 178 vstem
          -8 781 rmoveto
          34 callsubr
          endchar
        </CharString>
        <CharString name="Upsilondieresis">
          -37 -14 -21 816 -20 84 189 hstemhm
          72 193 -28 178 -28 193 hintmask 11110000
          72 940 rmoveto
          -54 42 -41 56 54 41 41 54 53 -41 41 -54 vhcurveto
          -56 -42 -41 -53 hvcurveto
          hintmask 11100100
          315 hmoveto
          47 callsubr
          -395 -159 rmoveto
          hintmask 11101000
          34 callsubr
          endchar
        </CharString>
        <CharString name="Upsilontonos">
          -37 -14 -21 816 -20 hstem
          237 178 vstem
          -170 851 rmoveto
          26 callsubr
          8 -70 rmoveto
          34 callsubr
          endchar
        </CharString>
        <CharString name="Uring">
          107 -44 162 738 97 133 90 hstemhm
          73 178 -14 97 126 97 -13 178 hintmask 11101100
          237 1016 rmoveto
          -89 72 -71 88 89 71 71 89 88 -71 72 -89 vhcurveto
          -88 -72 -72 -88 hvcurveto
          97 3 rmoveto
          35 25 32 38 38 25 -32 -35 -34 -25 -32 -38 -38 -25 32 34 vhcurveto
          hintmask 11110010
          210 -742 rmoveto
          -80 callsubr
          endchar
        </CharString>
        <CharString name="Utilde">
          107 -44 162 736 120 -77 119 hstemhm
          73 178 293 178 hintmask 11011000
          544 1025 rmoveto
          -15 -30 -28 -21 -39 0 rrcurveto
          hintmask 10111000
          -53 0 -30 42 -79 0 -61 0 -52 -47 -24 -50 rrcurveto
          76 -74 rlineto
          31 37 17 15 41 0 rrcurveto
          hintmask 11011000
          -18 callsubr
          -87 -678 rmoveto
          -80 callsubr
          endchar
        </CharString>
        <CharString name="V">
          96 -11 -21 hstem
          760 771 rmoveto
          -190 0 -97 -320 rlineto
          -60 -196 -20 -126 0 0 0 0 -20 125 -60 197 rrcurveto
          -97 320 -192 0 268 -803 197 0 rlineto
          endchar
        </CharString>
        <CharString name="W">
          467 -11 -21 hstem
          514 759 rmoveto
          -79 callsubr
          endchar
        </CharString>
        <CharString name="Wcircumflex">
          467 -11 -21 hstem
          506 1054 rmoveto
          -20 callsubr
          -136 -295 rmoveto
          -79 callsubr
          endchar
        </CharString>
        <CharString name="X">
          99 -11 -21 hstem
          287 375 rmoveto
          -254 -407 215 0 rlineto
          45 79 55 95 45 82 rrcurveto
          150 -256 210 0 -259 406 244 397 -218 0 rlineto
          -39 -73 -52 -91 -40 -75 rrcurveto
          -137 239 -207 0 rlineto
          endchar
        </CharString>
        <CharString name="Xi">
          12 -35 149 198 149 172 148 hstem
          61 -35 rmoveto
          580 149 -580 hlineto
          12 519 rmoveto
          555 148 -555 hlineto
          74 -469 rmoveto
          407 149 -407 hlineto
          endchar
        </CharString>
        <CharString name="Y">
          75 -11 -21 hstem
          291 178 vstem
          539 771 rmoveto
          -78 callsubr
          endchar
        </CharString>
        <CharString name="Yacute">
          75 -11 -21 hstem
          291 178 vstem
          311 856 rmoveto
          -26 callsubr
          124 -295 rmoveto
          -78 callsubr
          endchar
        </CharString>
        <CharString name="Ycircumflex">
          75 -11 -21 hstem
          291 178 vstem
          310 1054 rmoveto
          -20 callsubr
          85 -283 rmoveto
          -78 callsubr
          endchar
        </CharString>
        <CharString name="Ydieresis">
          75 -11 -21 888 190 hstemhm
          127 192 -28 178 -27 192 hintmask 11100000
          127 952 rmoveto
          -54 42 -42 55 54 41 42 54 52 -41 42 -54 vhcurveto
          -55 -42 -42 -52 hvcurveto
          hintmask 11001000
          315 hmoveto
          -23 callsubr
          97 -181 rmoveto
          -52 -116 rlineto
          -96 -208 -13 -52 0 0 0 0 -15 52 -89 208 rrcurveto
          -49 116 -208 0 rlineto
          hintmask 11010000
          274 -508 0 -295 178 0 0 296 277 507 rlineto
          endchar
        </CharString>
        <CharString name="Z">
          49 -32 144 516 143 hstem
          651 771 rmoveto
          -77 callsubr
          endchar
        </CharString>
        <CharString name="Zacute">
          49 -32 144 516 143 hstem
          294 856 rmoveto
          -46 callsubr
          253 -295 rmoveto
          -77 callsubr
          endchar
        </CharString>
        <CharString name="Zcaron">
          49 -32 144 516 143 hstem
          437 856 rmoveto
          6 callsubr
          358 -85 rmoveto
          -77 callsubr
          endchar
        </CharString>
        <CharString name="Zdotaccent">
          49 -32 144 516 143 86 189 hstem
          269 191 vstem
          269 953 rmoveto
          -54 40 -42 56 54 41 42 54 52 -41 41 -54 -56 -40 -41 -52 vhcurveto
          382 -182 rmoveto
          -77 callsubr
          endchar
        </CharString>
        <CharString name="Zeta">
          -22 -35 149 519 148 hstem
          40 -35 rmoveto
          590 149 -371 hlineto
          367 561 0 106 -550 0 0 -148 332 0 -368 -561 rlineto
          endchar
        </CharString>
        <CharString name="a">
          -75 -36 120 361 138 hstem
          43 176 155 173 vstem
          374 236 rmoveto
          -75 callsubr
          -226 167 rmoveto
          -74 callsubr
          endchar
        </CharString>
        <CharString name="aacute">
          -75 -36 120 361 138 hstem
          43 176 155 173 vstem
          223 655 rmoveto
          -21 callsubr
          47 -628 rmoveto
          -75 callsubr
          -226 167 rmoveto
          -74 callsubr
          endchar
        </CharString>
        <CharString name="abreve">
          -75 -36 120 361 138 72 107 hstemhm
          43 176 -160 130 185 173 -150 130 hintmask 11101010
          59 869 rmoveto
          3 callsubr
          hintmask 11110100
          185 -633 rmoveto
          -75 callsubr
          -226 167 rmoveto
          -74 callsubr
          endchar
        </CharString>
        <CharString name="acircumflex">
          -75 -36 120 361 138 hstem
          43 176 155 173 vstem
          221 864 rmoveto
          -20 callsubr
          9 -628 rmoveto
          -75 callsubr
          -226 167 rmoveto
          -74 callsubr
          endchar
        </CharString>
        <CharString name="acute">
          -98 710 210 hstem
          158 274 vstem
          158 710 rmoveto
          -46 callsubr
          endchar
        </CharString>
        <CharString name="acutecomb">
          -687 650 165 hstem
          -374 284 vstem
          -270 815 rmoveto
          22 callsubr
          endchar
        </CharString>
        <CharString name="adieresis">
          -75 -36 120 361 138 72 189 hstemhm
          39 193 -189 176 135 193 -173 173 hintmask 11110000
          39 750 rmoveto
          -17 callsubr
          hintmask 11100100
          315 hmoveto
          -53 41 -42 55 55 42 42 53 53 -42 41 -55 vhcurveto
          -55 -41 -41 -53 hvcurveto
          hintmask 11101010
          20 -514 rmoveto
          -75 callsubr
          -226 167 rmoveto
          -74 callsubr
          endchar
        </CharString>
        <CharString name="ae">
          277 -38 132 -131 121 120 120 -106 106 121 138 hstemhm
          49 176 534 157 hintmask 01001110
          49 140 rmoveto
          -12 callsubr
          hintmask 10101110
          -11 callsubr
          hintmask 01011110
          -10 callsubr
          176 8 rmoveto
          -9 callsubr
          317 176 rmoveto
          -8 callsubr
          hintmask 00101110
          -14 vlineto
          endchar
        </CharString>
        <CharString name="aeacute">
          277 -38 132 -131 121 120 120 -106 106 121 138 hstemhm
          49 176 534 157 hintmask 00001110
          406 643 rmoveto
          -46 callsubr
          -461 -713 rmoveto
          hintmask 01001110
          -12 callsubr
          hintmask 10101110
          -11 callsubr
          hintmask 01011110
          -10 callsubr
          176 8 rmoveto
          -9 callsubr
          317 176 rmoveto
          -8 callsubr
          hintmask 00101110
          -14 vlineto
          endchar
        </CharString>
        <CharString name="agrave">
          -75 -36 120 361 138 hstem
          43 176 155 173 vstem
          260 864 rmoveto
          -22 callsubr
          10 -419 rmoveto
          -75 callsubr
          -226 167 rmoveto
          -74 callsubr
          endchar
        </CharString>
        <CharString name="alpha">
          44 -50 145 361 145 -16 -20 hstemhm
          41 181 hintmask 10110000
          41 271 rmoveto
          -201 99 -120 149 vhcurveto
          74 0 58 34 42 71 rrcurveto
          5 hlineto
          19 -77 52 -28 85 0 49 0 34 9 22 11 rrcurveto
          -21 131 rlineto
          -14 -6 -15 -2 -12 0 -35 0 -25 15 0 42 0 96 49 193 32 146 rrcurveto
          -175 0 -21 -111 -4 0 rlineto
          hintmask 11010000
          48 callsubr
          181 3 rmoveto
          49 callsubr
          endchar
        </CharString>
        <CharString name="alphatonos">
          44 -50 145 361 145 -16 -20 279 -20 hstemhm
          41 181 hintmask 10011000
          261 844 rmoveto
          24 callsubr
          -374 -573 rmoveto
          -201 99 -120 149 vhcurveto
          74 0 58 34 42 71 rrcurveto
          5 hlineto
          19 -77 52 -28 85 0 49 0 34 9 22 11 rrcurveto
          -21 131 rlineto
          -14 -6 -15 -2 -12 0 -35 0 -25 15 0 42 rrcurveto
          hintmask 10111000
          0 96 49 193 32 146 rrcurveto
          -175 0 -21 -111 -4 0 rlineto
          hintmask 11011000
          48 callsubr
          181 3 rmoveto
          49 callsubr
          endchar
        </CharString>
        <CharString name="amacron">
          -75 -36 120 361 138 72 114 hstem
          43 176 155 173 vstem
          503 655 rmoveto
          -47 callsubr
          290 -419 rmoveto
          -75 callsubr
          -226 167 rmoveto
          -74 callsubr
          endchar
        </CharString>
        <CharString name="ampersand">
          140 -50 135 -96 -21 711 117 hstemhm
          32 168 -88 146 154 136 hintmask 10110100
          287 318 rmoveto
          176 -178 rlineto
          -42 -33 -46 -22 -51 0 -75 0 -49 44 0 64 rrcurveto
          0 49 37 38 50 38 rrcurveto
          -255 -135 rmoveto
          -126 95 -107 176 vhcurveto
          103 0 86 34 70 55 rrcurveto
          hintmask 01101100
          71 -71 195 0 -168 171 rlineto
          66 86 45 103 30 97 rrcurveto
          -161 hlineto
          -14 -54 -29 -68 -41 -60 rrcurveto
          -154 156 rlineto
          77 55 69 65 0 95 rrcurveto
          111 -85 71 -121 -135 -95 -95 -115 vhcurveto
          0 -56 24 -53 53 -59 -83 -50 -74 -66 0 -119 rrcurveto
          226 403 rmoveto
          59 42 34 44 40 28 -26 -39 vhcurveto
          0 -55 -43 -37 -56 -34 -35 34 -20 34 0 30 rrcurveto
          endchar
        </CharString>
        <CharString name="anoteleia">
          -326 170 207 hstem
          55 208 vstem
          55 274 rmoveto
          -45 callsubr
          endchar
        </CharString>
        <CharString name="aogonek">
          -75 -341 112 193 120 361 138 hstemhm
          43 176 54 135 -34 173 hintmask 11110100
          374 236 rmoveto
          -75 callsubr
          -226 167 rmoveto
          44 30 66 25 71 0 rrcurveto
          79 25 -32 -48 hvcurveto
          0 -21 -79 -17 rlineto
          -147 -35 -105 -11 0 -141 0 -97 66 -79 121 0 89 0 40 31 22 38 rrcurveto
          -54 vlineto
          hintmask 11111000
          -56 -43 -52 -61 0 -77 0 -75 46 -64 116 0 54 0 39 11 34 18 rrcurveto
          118 vlineto
          -27 -19 -33 -16 -42 0 -33 0 -19 15 0 27 0 54 71 58 69 43 rrcurveto
          hintmask 11110100
          -1 1 0 386 rlineto
          156 -84 72 -170 vhcurveto
          -92 0 -76 -20 -36 -20 rrcurveto
          endchar
        </CharString>
        <CharString name="apostrophemod">
          -376 487 308 hstem
          32 307 vstem
          32 487 rmoveto
          20 callsubr
          endchar
        </CharString>
        <CharString name="approxequal">
          17 155 138 -82 138 49 138 -82 138 hstemhm
          hintmask 10000000
          567 358 rmoveto
          -31 -38 -28 -27 -53 0 rrcurveto
          hintmask 01000000
          72 callsubr
          hintmask 10000000
          73 callsubr
          -107 329 rmoveto
          hintmask 00100000
          -31 -38 -28 -27 -53 0 rrcurveto
          hintmask 00010000
          72 callsubr
          hintmask 00100000
          73 callsubr
          endchar
        </CharString>
        <CharString name="aring">
          -75 -36 120 361 138 72 96 133 90 hstemhm
          43 176 -86 97 126 97 -79 173 hintmask 11110110
          133 814 rmoveto
          -16 callsubr
          97 4 rmoveto
          -15 callsubr
          hintmask 11111001
          144 -582 rmoveto
          -75 callsubr
          -226 167 rmoveto
          -14 callsubr
          hintmask 11110101
          -13 callsubr
          endchar
        </CharString>
        <CharString name="aringacute">
          -75 -36 120 361 138 72 96 133 90 hstemhm
          43 176 -86 97 126 97 -79 173 hintmask 11110000
          228 1034 rmoveto
          -46 callsubr
          hintmask 11110110
          -199 -430 rmoveto
          -16 callsubr
          97 4 rmoveto
          -15 callsubr
          hintmask 11111001
          144 -582 rmoveto
          -75 callsubr
          -226 167 rmoveto
          -14 callsubr
          hintmask 11110101
          -13 callsubr
          endchar
        </CharString>
        <CharString name="asciicircum">
          -104 364 313 hstem
          543 364 rmoveto
          -179 313 -144 0 -180 -313 157 0 95 179 94 -179 rlineto
          endchar
        </CharString>
        <CharString name="asciitilde">
          -32 268 126 -30 125 hstemhm
          hintmask 01000000
          37 361 rmoveto
          92 -70 rlineto
          26 48 31 25 34 0 rrcurveto
          hintmask 10000000
          69 0 44 -96 103 0 62 0 63 35 60 92 rrcurveto
          -92 70 rlineto
          -26 -46 -30 -25 -35 0 rrcurveto
          hintmask 01000000
          -68 0 -45 95 -102 0 rrcurveto
          -63 0 -63 -35 -60 -93 rrcurveto
          endchar
        </CharString>
        <CharString name="asterisk">
          -90 231 137 vstem
          33 383 rmoveto
          170 -48 -111 -135 111 -81 98 145 95 -145 110 80 -111 137 171 46 -42 130 -164 -62 8 175 -137 0 9 -175 -164 63 rlineto
          endchar
        </CharString>
        <CharString name="at">
          472 -286 137 96 124 -94 120 283 121 126 137 hstemhm
          49 149 115 140 231 100 194 139 hintmask 1011111110000000
          453 182 rmoveto
          120 95 78 61 42 33 -30 -63 vhcurveto
          0 -28 -7 -20 -7 -23 -34 -81 -60 -38 -46 0 rrcurveto
          -43 -34 31 54 hvcurveto
          -404 25 rmoveto
          -263 178 -230 327 vhcurveto
          69 0 91 14 77 36 rrcurveto
          141 vlineto
          -77 -37 -89 -17 -72 0 rrcurveto
          -192 -163 127 224 219 161 206 252 201 166 -104 -237 hvcurveto
          hintmask 1101111110000000
          -145 -72 -70 -54 -37 -31 31 53 vhcurveto
          0 19 6 31 9 30 rrcurveto
          76 263 -126 0 -25 -84 rlineto
          -15 60 -41 27 -56 0 rrcurveto
          -133 -166 -146 -209 hvcurveto
          hintmask 1011111110000000
          -97 46 -72 99 vhcurveto
          72 0 74 30 55 71 rrcurveto
          hintmask 1101111110000000
          23 -87 76 -44 79 0 rrcurveto
          131 149 116 235 291 -237 175 -263 -309 -259 -244 -313 hvcurveto
          endchar
        </CharString>
        <CharString name="atilde">
          -75 -36 120 361 138 81 120 -77 119 10 -20 hstemhm
          43 176 155 173 hintmask 11101110
          441 836 rmoveto
          -19 callsubr
          hintmask 11010110
          -52 0 -31 42 -78 0 -62 0 -52 -47 -24 -50 rrcurveto
          76 -74 rlineto
          31 37 17 15 41 0 rrcurveto
          hintmask 11101110
          -18 callsubr
          -153 -529 rmoveto
          -75 callsubr
          -226 167 rmoveto
          -74 callsubr
          endchar
        </CharString>
        <CharString name="b">
          37 -40 142 -113 -21 471 141 231 -20 hstemhm
          73 168 271 171 hintmask 10111100
          378 102 rmoveto
          -79 -58 65 110 111 71 51 67 70 63 -58 -113 hvcurveto
          -101 -61 -65 -73 vhcurveto
          -137 709 rmoveto
          -168 hlineto
          hintmask 01111100
          -843 168 84 vlineto
          hintmask 10111100
          47 -71 63 -21 72 0 rrcurveto
          165 95 149 162 196 -114 113 -147 hvcurveto
          -72 0 -63 -24 -46 -67 rrcurveto
          endchar
        </CharString>
        <CharString name="backslash">
          -264 409 -95 rmoveto
          -249 980 -126 0 248 -980 rlineto
          endchar
        </CharString>
        <CharString name="bar">
          -356 109 115 vstem
          109 -120 rmoveto
          115 1000 -115 hlineto
          endchar
        </CharString>
        <CharString name="beta">
          44 -236 -21 207 145 625 139 hstemhm
          72 179 -179 166 219 169 -107 173 hintmask 11110000
          72 -257 rmoveto
          179 hlineto
          hintmask 11101010
          -4 96 -3 96 -6 100 63 -67 75 -18 68 0 121 0 127 84 0 180 0 118 -74 87 -97 19 rrcurveto
          5 vlineto
          hintmask 11101100
          68 43 37 62 0 84 rrcurveto
          156 -131 71 -137 -197 -89 -133 -175 vhcurveto
          165 -379 rmoveto
          0 125 2 120 4 123 3 111 37 69 76 0 51 0 47 -34 0 -70 0 -71 -33 -59 -99 -16 rrcurveto
          22 -129 rlineto
          16 4 17 4 19 0 rrcurveto
          hintmask 11100010
          80 40 -55 -68 -88 -57 -43 -68 hvcurveto
          -50 0 -58 15 -49 62 rrcurveto
          endchar
        </CharString>
        <CharString name="braceleft">
          -262 -93 94 330 103 330 95 hstemhm
          135 144 -131 135 hintmask 11101000
          40 331 rmoveto
          81 -2 27 -46 0 -46 rrcurveto
          hintmask 11110000
          0 -80 -13 18 0 -88 rrcurveto
          -136 49 -44 110 vhcurveto
          78 94 -25 hlineto
          -54 -14 20 71 hvcurveto
          hintmask 11101000
          0 69 4 -4 0 78 0 93 -28 37 -62 15 rrcurveto
          6 vlineto
          62 15 28 38 0 93 rrcurveto
          hintmask 11110000
          0 79 -4 -6 0 69 rrcurveto
          71 14 19 54 vhcurveto
          25 95 -78 hlineto
          -110 -49 -44 -136 hvcurveto
          hintmask 11101000
          0 -88 13 18 0 -82 0 -44 -27 -46 -81 -3 rrcurveto
          endchar
        </CharString>
        <CharString name="braceright">
          -262 -92 94 330 103 330 94 hstemhm
          144 136 -129 141 cntrmask 11100000
          hintmask 11101000
          56 2 rmoveto
          -94 77 vlineto
          110 49 43 137 hvcurveto
          hintmask 11110000
          0 87 -12 -18 0 81 0 46 27 46 81 2 rrcurveto
          103 vlineto
          -81 3 -27 46 0 44 rrcurveto
          hintmask 11101000
          0 82 12 -19 0 89 rrcurveto
          136 -49 43 -110 vhcurveto
          -77 -94 25 hlineto
          54 16 -21 -69 hvcurveto
          hintmask 11110000
          0 -69 -7 6 0 -79 0 -93 29 -39 64 -15 rrcurveto
          -5 vlineto
          -64 -15 -29 -37 0 -93 rrcurveto
          hintmask 11101000
          0 -78 7 4 0 -69 rrcurveto
          -72 -16 -19 -54 vhcurveto
          endchar
        </CharString>
        <CharString name="bracketleft">
          -262 -95 104 743 104 hstemhm
          110 262 -262 142 hintmask 11100000
          110 -95 rmoveto
          262 104 hlineto
          hintmask 11010000
          -120 743 hlineto
          hintmask 11100000
          120 104 -262 hlineto
          endchar
        </CharString>
        <CharString name="bracketright">
          -262 -95 104 743 104 hstemhm
          56 261 -141 141 hintmask 11100000
          56 9 rmoveto
          -104 261 951 -261 -104 vlineto
          hintmask 11010000
          120 -743 hlineto
          endchar
        </CharString>
        <CharString name="breve">
          -98 705 107 hstem
          61 130 208 130 vstem
          61 920 rmoveto
          -154 102 -61 132 132 102 61 154 vhcurveto
          -130 hlineto
          -69 -42 -39 -62 -61 -43 39 69 vhcurveto
          endchar
        </CharString>
        <CharString name="brokenbar">
          -358 811 -20 hstem
          84 162 vstem
          246 408 rmoveto
          403 -162 -403 vlineto
          162 -584 rmoveto
          403 -162 -403 vlineto
          endchar
        </CharString>
        <CharString name="bullet">
          -179 234 317 hstem
          97 316 vstem
          97 392 rmoveto
          -89 66 -69 92 88 70 69 89 90 -70 69 -90 -90 -66 -69 -90 vhcurveto
          endchar
        </CharString>
        <CharString name="c">
          -129 -42 138 346 140 hstem
          42 172 vstem
          214 269 rmoveto
          -73 callsubr
          endchar
        </CharString>
        <CharString name="cacute">
          -129 -42 138 346 140 hstem
          42 172 vstem
          272 654 rmoveto
          -46 callsubr
          -162 -595 rmoveto
          -73 callsubr
          endchar
        </CharString>
        <CharString name="caron">
          -98 710 210 hstem
          367 710 rmoveto
          6 callsubr
          endchar
        </CharString>
        <CharString name="ccaron">
          -129 -42 138 346 140 hstem
          42 172 vstem
          417 654 rmoveto
          7 callsubr
          -59 -385 rmoveto
          -73 callsubr
          endchar
        </CharString>
        <CharString name="ccedilla">
          -129 -291 106 627 140 hstem
          42 172 106 121 vstem
          214 269 rmoveto
          1 114 72 59 95 0 48 0 51 -14 41 -26 rrcurveto
          146 vlineto
          -54 29 -56 5 -47 0 -205 0 -116 -140 -2 -173 0 -161 101 -118 148 -26 13 -17 16 -25 0 -30 0 -47 -31 -29 -59 -1 rrcurveto
          -106 vlineto
          146 65 78 92 hvcurveto
          0 29 -5 33 -13 22 36 6 34 11 29 16 rrcurveto
          142 vlineto
          -44 -28 -52 -14 -47 0 -98 0 -61 66 -6 107 rrcurveto
          endchar
        </CharString>
        <CharString name="ccircumflex">
          -129 -42 138 346 140 hstem
          42 172 vstem
          223 852 rmoveto
          5 callsubr
          -153 -583 rmoveto
          -73 callsubr
          endchar
        </CharString>
        <CharString name="cdotaccent">
          -129 -42 138 346 140 60 189 hstem
          42 172 2 192 vstem
          216 737 rmoveto
          -53 41 -42 56 54 41 42 53 53 -41 41 -54 -56 -41 -41 -53 vhcurveto
          -2 -468 rmoveto
          -73 callsubr
          endchar
        </CharString>
        <CharString name="cedilla">
          -98 -350 106 hstem
          279 121 vstem
          400 -181 rmoveto
          0 31 -6 34 -14 23 rrcurveto
          -132 hlineto
          13 -17 18 -27 0 -31 rrcurveto
          -47 -31 -29 -59 vhcurveto
          -106 vlineto
          145 66 77 92 hvcurveto
          endchar
        </CharString>
        <CharString name="cent">
          -129 -36 136 339 140 hstem
          42 162 80 140 vstem
          284 119 rmoveto
          -48 27 -32 51 0 72 0 70 32 50 48 28 rrcurveto
          290 vmoveto
          -133 vlineto
          -154 -32 -86 -124 -2 -149 0 -158 98 -117 144 -29 rrcurveto
          -129 140 128 vlineto
          36 6 34 11 28 15 rrcurveto
          142 vlineto
          -30 -19 -34 -13 -34 -6 rrcurveto
          339 vlineto
          35 -6 34 -13 29 -18 rrcurveto
          146 vlineto
          -33 18 -33 9 -32 4 rrcurveto
          128 vlineto
          endchar
        </CharString>
        <CharString name="chi">
          -35 585 -20 hstem
          9 -257 rmoveto
          182 -14 140 302 4 0 159 -302 175 38 -249 408 214 410 -184 0 -115 -258 -4 0 -148 274 -175 -40 237 -389 rlineto
          endchar
        </CharString>
        <CharString name="circumflex">
          -98 710 210 hstem
          223 920 rmoveto
          -25 callsubr
          endchar
        </CharString>
        <CharString name="colon">
          -331 15 206 297 206 hstem
          76 205 vstem
          76 620 rmoveto
          -101 callsubr
          -501 vmoveto
          -58 45 -46 58 57 45 46 58 57 -45 45 -57 -58 -45 -45 -57 vhcurveto
          endchar
        </CharString>
        <CharString name="comma">
          -343 -183 328 hstem
          -8 307 vstem
          -8 -183 rmoveto
          136 0 171 328 -188 -19 rlineto
          endchar
        </CharString>
        <CharString name="copyright">
          220 -42 113 99 107 186 109 96 114 hstem
          42 114 108 131 358 113 vstem
          42 371 rmoveto
          -227 186 -186 227 227 184 186 227 227 -184 184 -227 -227 -186 -184 -227 vhcurveto
          114 -2 rmoveto
          172 127 127 172 172 126 -127 -172 -173 -126 -125 -172 -172 -127 125 173 vhcurveto
          239 hmoveto
          1 65 49 29 42 0 32 0 33 -8 29 -18 rrcurveto
          110 vlineto
          -37 19 -38 6 -31 0 rrcurveto
          -130 -81 -85 -118 -122 97 -77 107 hvcurveto
          42 0 41 8 30 17 rrcurveto
          111 vlineto
          -30 -18 -35 -11 -32 0 -46 0 -39 34 -4 58 rrcurveto
          endchar
        </CharString>
        <CharString name="currency">
          -9 76 132 262 131 hstem
          69 141 260 141 vstem
          69 338 rmoveto
          0 -48 13 -48 22 -38 rrcurveto
          -71 -68 99 -95 69 68 rlineto
          41 -23 47 -10 51 0 50 0 46 11 40 21 rrcurveto
          71 -67 98 95 -70 68 rlineto
          22 38 14 48 0 49 0 48 -15 47 -20 38 rrcurveto
          69 68 -98 95 -70 -67 rlineto
          -39 20 -47 13 -51 0 -51 0 -48 -12 -40 -22 rrcurveto
          -69 68 -99 -95 70 -69 rlineto
          -20 -37 -14 -48 0 -48 rrcurveto
          141 1 rmoveto
          70 53 61 77 77 53 -61 -70 -70 -53 -61 -77 -77 -53 61 70 vhcurveto
          endchar
        </CharString>
        <CharString name="d">
          37 -40 142 -113 -21 471 141 231 -20 hstemhm
          42 172 270 169 hintmask 10111100
          347 102 rmoveto
          -72 callsubr
          137 709 rmoveto
          -71 callsubr
          hintmask 01111100
          -84 169 843 vlineto
          endchar
        </CharString>
        <CharString name="dagger">
          313 -36 -21 hstemhm
          427 146 -134 122 hintmask 10100000
          250 427 rmoveto
          189 11 rlineto
          hintmask 11000000
          -12 -495 146 0 rlineto
          hintmask 10100000
          -12 495 189 -11 0 127 -189 -10 rlineto
          hintmask 11000000
          12 230 -146 0 rlineto
          hintmask 10100000
          12 -230 -189 10 rlineto
          endchar
        </CharString>
        <CharString name="daggerdbl">
          313 -36 -21 hstem
          439 123 vstem
          250 150 rmoveto
          189 11 -12 -218 146 0 -12 218 189 -11 0 128 -188 -11 -1 187 189 -11 0 127 -189 -10 12 214 -146 0 12 -214 -189 10 rlineto
          0 -127 189 11 0 -187 -189 11 rlineto
          endchar
        </CharString>
        <CharString name="dcaron">
          37 -40 142 -113 -21 471 141 231 -20 hstemhm
          42 172 270 169 hintmask 00111100
          701 503 rmoveto
          146 0 161 308 -187 0 rlineto
          hintmask 10111100
          -474 -709 rmoveto
          -72 callsubr
          137 709 rmoveto
          -71 callsubr
          hintmask 01111100
          -84 169 843 vlineto
          endchar
        </CharString>
        <CharString name="dcroat">
          37 -40 142 -113 -21 471 141 63 95 73 -20 hstemhm
          42 172 270 169 hintmask 10111110
          347 102 rmoveto
          -72 callsubr
          375 636 rmoveto
          -69 73 -169 -73 -183 -95 183 -164 hlineto
          -42 68 -66 33 -72 0 rrcurveto
          -147 -115 -113 -196 -162 96 -149 165 hvcurveto
          71 0 67 31 43 71 rrcurveto
          hintmask 01111110
          -94 169 675 69 vlineto
          endchar
        </CharString>
        <CharString name="degree">
          -170 338 118 210 118 hstem
          36 119 208 119 vstem
          36 561 rmoveto
          -124 99 -99 124 124 99 99 124 124 -99 99 -124 -124 -99 -99 -124 vhcurveto
          119 hmoveto
          57 47 48 57 57 47 -48 -57 -57 -47 -48 -57 -57 -47 48 57 vhcurveto
          endchar
        </CharString>
        <CharString name="delta">
          -15 -50 143 634 131 hstemhm
          45 168 -107 165 186 172 hintmask 11101000
          45 235 rmoveto
          -179 134 -106 156 184 110 119 175 vhcurveto
          0 135 -73 74 -110 80 rrcurveto
          hintmask 11011000
          -93 68 -82 44 0 47 0 21 17 14 43 0 64 0 83 -19 88 -30 rrcurveto
          39 131 rlineto
          -87 29 -98 20 -88 0 -155 0 -71 -69 0 -81 0 -95 64 -65 70 -52 rrcurveto
          -105 -45 -90 -84 0 -132 rrcurveto
          hintmask 11101000
          168 2 rmoveto
          0 97 57 57 87 23 58 -45 42 -50 0 -74 rrcurveto
          -105 -47 -47 -70 vhcurveto
          -68 -59 51 93 hvcurveto
          endchar
        </CharString>
        <CharString name="dieresis">
          -98 720 190 hstem
          41 193 122 192 vstem
          41 815 rmoveto
          -53 42 -42 55 55 41 42 53 53 -41 42 -55 -55 -42 -42 -53 vhcurveto
          315 hmoveto
          -53 41 -42 55 55 41 42 53 53 -41 42 -55 -55 -41 -42 -53 vhcurveto
          endchar
        </CharString>
        <CharString name="dieresistonos">
          -46 657 135 hstem
          61 156 196 155 vstem
          292 947 rmoveto
          25 callsubr
          -299 -290 rmoveto
          42 36 29 40 39 -36 27 -42 -41 -37 -29 -37 -39 37 -30 41 hvcurveto
          352 hmoveto
          42 35 29 40 38 -36 28 -41 -42 -36 -27 -39 -40 36 -29 42 hvcurveto
          endchar
        </CharString>
        <CharString name="divide">
          12 56 177 64 150 67 177 hstem
          260 178 vstem
          260 602 rmoveto
          -48 42 -40 47 48 41 40 48 48 -41 41 -48 -47 -42 -41 -48 vhcurveto
          -457 vmoveto
          -48 42 -41 47 48 41 41 48 48 -41 40 -48 -47 -42 -40 -48 vhcurveto
          385 302 rmoveto
          -103 callsubr
          endchar
        </CharString>
        <CharString name="dollar">
          -74 -37 151 504 152 hstem
          49 164 212 151 vstem
          347 119 rmoveto
          17 144 rlineto
          36 -18 25 -20 0 -31 0 -40 -36 -24 -42 -11 rrcurveto
          -54 501 rmoveto
          -16 -137 rlineto
          -37 19 -27 21 0 30 0 38 34 21 46 8 rrcurveto
          247 116 rmoveto
          -37 17 -40 11 -40 6 rrcurveto
          16 139 -112 0 -15 -133 rlineto
          -166 -8 -97 -92 0 -130 0 -120 90 -61 85 -42 rrcurveto
          33 -15 -23 -194 rlineto
          -59 8 -60 23 -59 43 rrcurveto
          -179 vlineto
          43 -24 58 -15 60 -7 rrcurveto
          -16 -135 112 0 16 133 rlineto
          151 15 96 92 0 133 0 127 -100 58 -93 46 rrcurveto
          22 186 rlineto
          47 -8 47 -18 41 -23 rrcurveto
          endchar
        </CharString>
        <CharString name="dong">
          -32 -35 91 54 117 225 119 58 90 -83 83 63 -20 hstemhm
          82 150 175 145 hintmask 11110111
          82 346 rmoveto
          -152 80 -84 121 vhcurveto
          53 0 47 22 34 36 rrcurveto
          3 0 11 -46 121 0 0 507 rlineto
          hintmask 11101111
          92 7 rlineto
          hintmask 11110111
          83 -92 63 -145 -63 -182 -90 182 -22 vlineto
          4 -84 rlineto
          -35 32 -32 16 -56 0 rrcurveto
          -101 -105 -83 -142 hvcurveto
          16 -290 rmoveto
          -91 495 91 vlineto
          -361 291 rmoveto
          66 45 39 47 vhcurveto
          32 0 23 -10 28 -24 rrcurveto
          -143 vlineto
          -29 -35 -25 -13 -35 0 rrcurveto
          -53 -33 39 81 hvcurveto
          endchar
        </CharString>
        <CharString name="dotaccent">
          -98 722 189 hstem
          199 192 vstem
          199 817 rmoveto
          14 callsubr
          endchar
        </CharString>
        <CharString name="dotbelowcomb">
          -686 -240 152 hstem
          -430 195 vstem
          -332 -240 rmoveto
          52 45 28 48 48 -45 28 -52 -52 -46 -29 -47 -48 45 -28 53 hvcurveto
          endchar
        </CharString>
        <CharString name="dotlessi">
          -362 -11 -21 605 -20 hstem
          79 168 vstem
          79 -32 rmoveto
          -65 callsubr
          endchar
        </CharString>
        <CharString name="dottedcircle">
          99 3 106 -89 108 -61 105 -60 105 -33 106 -38 105 -13 104 -48 106 -22 107 -60 106 -72 107 -89 106 hstemhm
          53 105 -90 108 -61 104 -53 104 -35 106 -35 106 -26 107 -36 105 -31 105 -66 105 -58 106 -94 106 hintmask 000000000100000100000000
          166 585 rmoveto
          -31 21 -23 31 31 21 23 31 30 -21 22 -31 vhcurveto
          -31 -21 -22 -30 hvcurveto
          hintmask 000000010000010000000000
          -98 -132 rmoveto
          -30 24 -23 31 29 24 23 30 30 -24 23 -29 vhcurveto
          -31 -24 -23 -30 hvcurveto
          hintmask 000001000000100000000000
          -15 -150 rmoveto
          -30 22 -21 30 31 22 21 30 31 -22 23 -31 vhcurveto
          -30 -22 -23 -31 hvcurveto
          hintmask 000100000000001000000000
          62 -138 rmoveto
          -31 21 -22 31 29 23 22 31 30 -23 22 -29 vhcurveto
          -31 -21 -22 -30 hvcurveto
          hintmask 010000000000000010000000
          120 -90 rmoveto
          -31 22 -24 31 30 23 24 31 29 -23 24 -30 vhcurveto
          -31 -22 -24 -29 hvcurveto
          hintmask 100000000000000000100000
          151 -19 rmoveto
          -31 22 -22 31 31 23 22 31 31 -23 22 -31 vhcurveto
          -31 -22 -22 -31 hvcurveto
          hintmask 001000000000000000001000
          145 63 rmoveto
          -31 23 -21 29 30 23 21 31 30 -23 23 -30 vhcurveto
          -29 -23 -23 -30 hvcurveto
          hintmask 000010000000000000000010
          86 117 rmoveto
          -30 23 -22 31 29 23 22 30 31 -23 23 -29 vhcurveto
          -31 -23 -23 -31 hvcurveto
          hintmask 000000100000000000000001
          12 160 rmoveto
          -31 22 -21 31 30 23 21 31 31 -23 21 -30 vhcurveto
          -31 -22 -21 -31 hvcurveto
          hintmask 000000001000000000000100
          -59 141 rmoveto
          -30 22 -23 30 31 22 23 30 31 -22 23 -31 vhcurveto
          -30 -22 -23 -31 hvcurveto
          hintmask 000000000010000000010000
          -113 81 rmoveto
          -29 23 -24 31 30 21 24 29 31 -21 23 -30 vhcurveto
          -31 -23 -23 -31 hvcurveto
          hintmask 000000000001000001000000
          -151 18 rmoveto
          -31 22 -22 31 31 22 22 31 31 -22 22 -31 vhcurveto
          -31 -22 -22 -31 hvcurveto
          endchar
        </CharString>
        <CharString name="e">
          -53 -38 132 120 120 116 129 hstem
          424 158 vstem
          209 334 rmoveto
          -70 callsubr
          -215 -120 rmoveto
          -69 callsubr
          endchar
        </CharString>
        <CharString name="eacute">
          -53 -38 132 120 120 116 129 hstem
          424 158 vstem
          209 334 rmoveto
          -70 callsubr
          -215 -120 rmoveto
          -69 callsubr
          41 440 rmoveto
          -7 callsubr
          endchar
        </CharString>
        <CharString name="ebreve">
          -53 -38 132 120 120 116 129 63 107 hstemhm
          87 130 207 158 -157 130 hintmask 11111100
          209 334 rmoveto
          -70 callsubr
          -215 -120 rmoveto
          -69 callsubr
          -122 643 rmoveto
          -154 102 -61 132 vhcurveto
          hintmask 11111010
          132 102 61 154 hvcurveto
          -130 hlineto
          -69 -42 -39 -62 -61 -43 39 69 vhcurveto
          endchar
        </CharString>
        <CharString name="ecaron">
          -53 -38 132 120 120 116 129 hstem
          424 158 vstem
          209 334 rmoveto
          -70 callsubr
          -215 -120 rmoveto
          -69 callsubr
          184 440 rmoveto
          11 callsubr
          endchar
        </CharString>
        <CharString name="ecircumflex">
          -53 -38 132 120 120 116 129 hstem
          424 158 vstem
          209 334 rmoveto
          -70 callsubr
          -215 -120 rmoveto
          -69 callsubr
          40 649 rmoveto
          -20 callsubr
          endchar
        </CharString>
        <CharString name="edieresis">
          -53 -38 132 120 120 116 129 75 189 hstemhm
          67 192 123 192 -150 158 hintmask 11111010
          209 334 rmoveto
          -70 callsubr
          -215 -120 rmoveto
          -69 callsubr
          -142 535 rmoveto
          -53 42 -42 55 54 41 42 53 53 -41 41 -54 -55 -42 -41 -53 vhcurveto
          hintmask 11111100
          315 hmoveto
          -53 41 -42 55 55 41 42 53 53 -41 41 -55 vhcurveto
          -55 -41 -41 -53 hvcurveto
          endchar
        </CharString>
        <CharString name="edotaccent">
          -53 -38 132 120 120 116 129 75 188 hstem
          225 191 8 158 vstem
          209 334 rmoveto
          -70 callsubr
          -215 -120 rmoveto
          -69 callsubr
          16 535 rmoveto
          -53 41 -42 55 55 40 42 53 53 -40 40 -55 -55 -41 -40 -53 vhcurveto
          endchar
        </CharString>
        <CharString name="egrave">
          -53 -38 132 120 120 116 129 hstem
          424 158 vstem
          209 334 rmoveto
          -70 callsubr
          -215 -120 rmoveto
          -69 callsubr
          78 649 rmoveto
          -22 callsubr
          endchar
        </CharString>
        <CharString name="eight">
          -16 -45 139 201 153 199 139 hstemhm
          45 175 -162 176 205 174 -161 175 hintmask 11110010
          334 94 rmoveto
          -85 -29 48 47 52 33 54 81 78 40 -46 -57 hvcurveto
          -49 -35 -49 -83 vhcurveto
          hintmask 11101100
          -100 455 rmoveto
          49 25 49 74 87 19 -49 -48 -69 -48 -33 -54 vhcurveto
          -56 -47 34 67 hvcurveto
          276 -173 rmoveto
          64 36 39 60 0 75 rrcurveto
          167 -124 72 -156 -153 -122 -84 -155 vhcurveto
          0 -78 41 -59 65 -37 rrcurveto
          hintmask 11110010
          -71 -34 -48 -62 0 -93 rrcurveto
          -141 112 -88 176 173 121 94 141 vhcurveto
          0 97 -46 58 -71 31 rrcurveto
          endchar
        </CharString>
        <CharString name="ellipsis">
          313 290 180 hstem
          77 180 153 180 153 180 vstem
          cntrmask 01110000
          77 380 rmoveto
          65 callsubr
          333 hmoveto
          65 callsubr
          333 hmoveto
          65 callsubr
          endchar
        </CharString>
        <CharString name="emacron">
          -53 -38 132 120 120 116 129 75 114 hstem
          424 158 vstem
          209 334 rmoveto
          -70 callsubr
          -215 -120 rmoveto
          -69 callsubr
          322 440 rmoveto
          114 -420 -114 vlineto
          endchar
        </CharString>
        <CharString name="emdash">
          313 313 134 hstem
          313 vmoveto
          1000 134 -1000 hlineto
          endchar
        </CharString>
        <CharString name="endash">
          -187 313 134 hstem
          313 vmoveto
          500 134 -500 hlineto
          endchar
        </CharString>
        <CharString name="eng">
          -46 -275 131 133 -21 475 131 hstemhm
          56 172 -172 162 194 175 hintmask 11110100
          56 -32 rmoveto
          172 428 hlineto
          24 31 37 16 44 0 rrcurveto
          64 15 -49 -66 hvcurveto
          -373 vlineto
          -64 -23 -35 -48 vhcurveto
          -18 0 -14 1 -19 4 rrcurveto
          -8 -128 rlineto
          24 -6 30 -2 29 0 rrcurveto
          143 79 84 145 hvcurveto
          382 vlineto
          143 -53 95 -133 vhcurveto
          -80 0 -47 -41 -49 -66 rrcurveto
          hintmask 11101100
          -7 96 -162 0 rlineto
          endchar
        </CharString>
        <CharString name="eogonek">
          -53 -335 112 437 120 116 129 hstem
          194 134 96 158 vstem
          209 334 rmoveto
          -70 callsubr
          59 -639 rmoveto
          117 vlineto
          -27 -18 -33 -17 -42 0 -33 0 -20 16 0 27 0 53 72 59 69 42 29 6 28 10 19 12 rrcurveto
          142 vlineto
          -38 -29 -52 -21 -70 0 -94 0 -62 48 -20 72 rrcurveto
          366 hlineto
          4 22 3 45 0 25 rrcurveto
          180 -105 93 -156 -151 -128 -108 -200 vhcurveto
          0 -153 83 -120 156 -29 -48 -41 -39 -56 0 -68 0 -74 46 -65 116 0 53 0 40 12 34 18 rrcurveto
          endchar
        </CharString>
        <CharString name="epsilon">
          -107 -50 135 139 117 124 136 hstemhm
          41 174 -147 173 hintmask 11110000
          41 141 rmoveto
          50 callsubr
          hintmask 11101000
          51 callsubr
          endchar
        </CharString>
        <CharString name="epsilontonos">
          -107 -50 135 139 117 124 136 243 -20 hstemhm
          41 174 -147 173 hintmask 11110000
          277 844 rmoveto
          24 callsubr
          hintmask 11111000
          -390 -703 rmoveto
          50 callsubr
          hintmask 11110100
          51 callsubr
          endchar
        </CharString>
        <CharString name="equal">
          12 169 139 131 139 hstem
          55 439 rmoveto
          590 139 -590 hlineto
          -409 vmoveto
          590 139 -590 hlineto
          endchar
        </CharString>
        <CharString name="estimated">
          313 -49 25 384 24 384 25 hstem
          58 163 563 161 vstem
          cntrmask 11100000
          58 372 rmoveto
          -232 198 -189 245 vhcurveto
          144 0 128 65 81 99 rrcurveto
          -66 hlineto
          -69 -85 -101 -54 -114 0 -107 0 -98 48 -68 76 -6 8 -4 8 0 10 rrcurveto
          230 vlineto
          3 2 1 2 vhcurveto
          720 12 hlineto
          234 -198 187 -246 -245 -198 -187 -234 vhcurveto
          163 19 rmoveto
          225 vlineto
          0 11 4 10 7 7 69 75 96 49 107 0 104 0 95 -47 70 -72 6 -8 5 -9 0 -10 rrcurveto
          -231 vlineto
          -4 -3 -3 -4 vhcurveto
          -552 hlineto
          -2 -2 3 4 hvcurveto
          endchar
        </CharString>
        <CharString name="eta">
          -4 -236 -21 243 -21 484 151 -15 -20 hstemhm
          74 176 187 179 -167 167 hintmask 11011010
          61 585 rmoveto
          52 callsubr
          hintmask 11101010
          53 callsubr
          hintmask 11101100
          54 callsubr
          hintmask 11101010
          55 callsubr
          hintmask 11011010
          -12 109 rlineto
          endchar
        </CharString>
        <CharString name="etatonos">
          -4 -236 -21 243 -21 484 151 -15 -20 278 -20 hstemhm
          74 176 187 179 -167 167 hintmask 11001100
          350 843 rmoveto
          24 callsubr
          hintmask 11011101
          -443 -258 rmoveto
          52 callsubr
          hintmask 11101101
          53 callsubr
          hintmask 11101110
          54 callsubr
          hintmask 11101101
          55 callsubr
          hintmask 11011101
          -12 109 rlineto
          endchar
        </CharString>
        <CharString name="eth">
          -27 -44 151 198 143 333 -20 hstem
          42 172 vstem
          317 107 rmoveto
          -64 -39 38 54 66 37 40 65 hvcurveto
          50 0 39 -23 30 -33 -12 -117 -51 -25 -55 0 rrcurveto
          255 579 rmoveto
          0 95 -135 -67 rlineto
          -23 21 -22 19 -24 17 rrcurveto
          -215 hlineto
          58 -37 50 -40 43 -46 rrcurveto
          -116 -56 0 -95 170 84 rlineto
          39 -59 26 -64 11 -72 -39 37 -57 25 -68 0 rrcurveto
          -133 -95 -94 -143 -135 96 -120 180 192 95 148 207 hvcurveto
          0 107 -38 127 -73 102 rrcurveto
          endchar
        </CharString>
        <CharString name="exclam">
          -268 -70 226 628 -20 hstemhm
          102 215 -190 167 hintmask 11100000
          102 43 rmoveto
          -64 45 -49 62 62 46 49 64 62 -46 51 -62 vhcurveto
          -62 -45 -51 -62 hvcurveto
          19 741 rmoveto
          hintmask 11010000
          6 -162 25 -409 116 0 26 409 5 162 rlineto
          endchar
        </CharString>
        <CharString name="exclamdbl">
          73 -50 225 hstemhm
          103 215 -191 166 151 216 -197 178 -171 166 hintmask 11000000
          103 63 rmoveto
          67 callsubr
          18 741 rmoveto
          hintmask 10100000
          68 callsubr
          hintmask 10010000
          145 -741 rmoveto
          -63 46 -50 63 62 45 50 63 63 -45 49 -62 vhcurveto
          -63 -46 -49 -63 hvcurveto
          hintmask 10001000
          19 741 rmoveto
          hintmask 10000100
          7 -162 25 -391 115 0 26 391 rlineto
          hintmask 10001000
          5 162 rlineto
          endchar
        </CharString>
        <CharString name="exclamdown">
          -268 375 226 hstemhm
          103 215 -197 178 hintmask 11000000
          103 488 rmoveto
          -63 45 -50 62 62 46 50 63 65 -46 48 -62 vhcurveto
          -62 -45 -48 -65 hvcurveto
          hintmask 10100000
          18 -742 rmoveto
          178 0 -6 162 -25 410 -116 0 -25 -410 rlineto
          endchar
        </CharString>
        <CharString name="f">
          -278 -11 -21 481 124 117 136 hstem
          116 167 vstem
          36 449 rmoveto
          80 -481 167 481 116 124 -116 24 hlineto
          73 33 20 54 vhcurveto
          20 0 20 -3 23 -10 rrcurveto
          137 vlineto
          -30 11 -28 1 -31 0 rrcurveto
          -143 -85 -83 -146 hvcurveto
          -24 -80 vlineto
          endchar
        </CharString>
        <CharString name="f_f">
          66 -11 -21 481 124 117 136 hstem
          116 168 175 168 vstem
          459 573 rmoveto
          -175 24 hlineto
          73 32 20 55 vhcurveto
          29 0 35 -4 32 -15 -6 -23 -2 -25 0 -26 rrcurveto
          316 217 rmoveto
          -30 11 -29 1 -30 0 -59 0 -49 -14 -38 -28 -52 24 -72 18 -71 0 rrcurveto
          -143 -86 -83 -146 hvcurveto
          -24 -80 -124 80 -481 168 481 175 -481 168 481 114 124 -114 24 vlineto
          73 32 20 54 vhcurveto
          19 0 19 -3 24 -10 rrcurveto
          endchar
        </CharString>
        <CharString name="f_f_i">
          335 -11 -21 481 124 77 198 -158 136 hstemhm
          116 168 175 168 160 198 -183 169 hintmask 11011101
          36 449 rmoveto
          80 -481 168 481 175 -481 168 481 175 -481 169 605 -344 24 hlineto
          73 32 20 54 vhcurveto
          20 0 7 0 17 -5 rrcurveto
          136 vlineto
          -22 4 -18 1 -30 0 -59 0 -50 -14 -38 -28 -52 24 -72 18 -71 0 rrcurveto
          -143 -86 -83 -146 hvcurveto
          -24 -80 vlineto
          248 hmoveto
          24 vlineto
          73 32 20 55 vhcurveto
          29 0 35 -4 32 -15 -6 -23 -2 -25 0 -26 rrcurveto
          -24 vlineto
          hintmask 11101110
          328 175 rmoveto
          16 callsubr
          endchar
        </CharString>
        <CharString name="f_f_l">
          362 -37 139 347 124 117 136 hstem
          116 168 175 168 175 169 vstem
          36 449 rmoveto
          80 -481 168 481 175 -481 168 481 114 124 -114 24 hlineto
          75 34 18 59 vhcurveto
          25 0 28 -5 29 -8 rrcurveto
          -485 vlineto
          -145 45 -84 142 vhcurveto
          30 0 24 2 25 10 rrcurveto
          137 vlineto
          -15 -5 -18 -5 -19 0 rrcurveto
          -36 -9 29 71 hvcurveto
          550 vlineto
          -90 53 -83 21 -112 0 -59 0 -49 -14 -38 -28 -52 24 -72 18 -71 0 rrcurveto
          -143 -86 -83 -146 hvcurveto
          -24 -80 vlineto
          248 hmoveto
          24 vlineto
          73 32 20 55 vhcurveto
          29 0 36 -3 32 -16 -7 -23 -2 -25 0 -26 rrcurveto
          -24 vlineto
          endchar
        </CharString>
        <CharString name="fi">
          -7 -11 -21 481 124 77 198 -158 136 hstemhm
          116 168 160 199 -184 169 hintmask 11011010
          36 449 rmoveto
          80 -481 168 481 175 -481 169 605 -344 24 hlineto
          73 32 20 55 vhcurveto
          19 0 7 0 18 -5 rrcurveto
          136 vlineto
          -23 4 -18 1 -30 0 rrcurveto
          -142 -86 -83 -146 hvcurveto
          -24 -80 vlineto
          hintmask 11101100
          408 175 rmoveto
          -54 45 -44 54 55 45 44 54 55 -45 45 -55 vhcurveto
          -54 -45 -45 -55 hvcurveto
          endchar
        </CharString>
        <CharString name="five">
          -16 -41 157 221 150 139 148 hstem
          108 170 150 178 vstem
          278 626 rmoveto
          279 148 -449 -477 hlineto
          36 16 76 24 70 0 rrcurveto
          93 45 -39 -60 -75 -51 -47 -116 hvcurveto
          -70 0 -72 23 -46 28 rrcurveto
          -165 vlineto
          62 -32 77 -11 77 0 rrcurveto
          208 109 114 163 152 -94 99 -178 hvcurveto
          -17 0 -19 -2 -20 -2 rrcurveto
          endchar
        </CharString>
        <CharString name="fl">
          19 -37 139 347 124 117 136 hstem
          116 168 176 168 vstem
          36 449 rmoveto
          80 -481 168 481 115 124 -115 24 hlineto
          75 34 18 59 vhcurveto
          25 0 29 -5 29 -8 rrcurveto
          -485 vlineto
          -145 44 -84 142 vhcurveto
          30 0 24 2 25 10 rrcurveto
          137 vlineto
          -15 -5 -18 -5 -19 0 rrcurveto
          -36 -9 29 71 hvcurveto
          550 vlineto
          -90 53 -82 21 -112 0 rrcurveto
          -142 -86 -83 -146 hvcurveto
          -24 -80 vlineto
          endchar
        </CharString>
        <CharString name="florin">
          -75 -338 136 505 124 215 136 hstem
          224 427 rmoveto
          -124 -124 105 hlineto
          -59 -377 rlineto
          -13 -80 -22 -48 -65 0 -31 0 -28 6 -26 13 rrcurveto
          -137 vlineto
          25 -11 44 -7 44 0 142 0 75 107 23 146 rrcurveto
          61 388 134 0 0 124 -115 0 13 86 rlineto
          13 81 28 48 65 0 19 0 27 -5 21 -8 rrcurveto
          137 vlineto
          -30 10 -40 2 -31 0 -142 0 -74 -107 -23 -146 rrcurveto
          endchar
        </CharString>
        <CharString name="four">
          -16 -12 -21 173 148 hstem
          384 173 vstem
          200 288 rmoveto
          184 371 0 -371 rlineto
          273 hmoveto
          -100 486 -277 hlineto
          -250 -486 0 -148 354 0 0 -173 173 0 0 173 100 0 rlineto
          endchar
        </CharString>
        <CharString name="fraction">
          -264 34 -95 rmoveto
          -102 callsubr
          endchar
        </CharString>
        <CharString name="g">
          7 -266 153 65 -20 56 134 315 142 hstem
          48 176 236 169 vstem
          338 122 rmoveto
          -68 callsubr
          122 451 rmoveto
          -67 callsubr
          endchar
        </CharString>
        <CharString name="gamma">
          -30 -236 -21 842 -20 hstem
          240 175 49 175 vstem
          -2 561 rmoveto
          133 -185 109 -303 0 -161 0 -84 -2 -33 -7 -52 rrcurveto
          184 hlineto
          0 70 -3 90 -13 77 159 251 45 143 36 211 rrcurveto
          -175 hlineto
          -9 -152 -37 -137 -65 -130 rrcurveto
          -5 hlineto
          -44 177 -68 172 -57 86 rrcurveto
          endchar
        </CharString>
        <CharString name="gbreve">
          7 -266 153 65 -20 56 134 315 142 75 107 hstemhm
          48 176 -89 130 195 169 -157 130 hintmask 1111101010000000
          135 868 rmoveto
          13 callsubr
          73 -746 rmoveto
          hintmask 1111110100000000
          -68 callsubr
          122 451 rmoveto
          -67 callsubr
          endchar
        </CharString>
        <CharString name="gcircumflex">
          7 -266 153 65 -20 56 134 315 142 hstem
          48 176 236 169 vstem
          310 852 rmoveto
          -185 -210 161 0 95 115 95 -115 162 0 -185 210 rlineto
          -115 -730 rmoveto
          -68 callsubr
          122 451 rmoveto
          -67 callsubr
          endchar
        </CharString>
        <CharString name="gdotaccent">
          7 -266 153 65 -20 56 134 315 142 63 189 hstem
          48 176 27 192 17 169 vstem
          251 737 rmoveto
          14 callsubr
          87 -615 rmoveto
          -68 callsubr
          122 451 rmoveto
          -67 callsubr
          endchar
        </CharString>
        <CharString name="germandbls">
          21 -42 132 -101 -21 676 146 hstemhm
          73 165 115 174 -104 171 -68 158 hintmask 10110010
          332 -15 rmoveto
          32 -22 63 -5 43 0 131 0 83 79 0 119 rrcurveto
          hintmask 01111000
          0 172 -157 30 0 46 rrcurveto
          hintmask 01110100
          0 48 67 29 0 107 rrcurveto
          106 -99 96 -159 -169 -94 -98 -171 vhcurveto
          -553 165 562 vlineto
          80 36 34 72 52 25 -29 -42 vhcurveto
          hintmask 10111000
          0 -64 -70 -37 0 -86 rrcurveto
          hintmask 10110010
          0 -123 173 -21 0 -89 0 -39 -31 -24 -43 0 -42 0 -31 8 -47 30 rrcurveto
          endchar
        </CharString>
        <CharString name="grave">
          -98 710 210 hstem
          158 274 vstem
          329 920 rmoveto
          -76 callsubr
          endchar
        </CharString>
        <CharString name="gravecomb">
          -686 650 165 hstem
          -493 285 vstem
          -208 650 rmoveto
          23 callsubr
          endchar
        </CharString>
        <CharString name="greater">
          10 643 453 rmoveto
          -589 290 0 -167 421 -202 -421 -203 0 -167 589 289 rlineto
          endchar
        </CharString>
        <CharString name="greaterequal">
          6 70 134 hstem
          55 70 rmoveto
          590 134 -590 hlineto
          471 vmoveto
          0 -147 472 -62 -472 -61 0 -147 590 104 0 209 rlineto
          endchar
        </CharString>
        <CharString name="guillemotleft">
          9 389 463 rmoveto
          -49 callsubr
          435 193 rmoveto
          -49 callsubr
          endchar
        </CharString>
        <CharString name="guillemotright">
          8 224 463 rmoveto
          -176 0 175 -193 -175 -194 176 0 182 194 rlineto
          78 193 rmoveto
          -176 0 174 -193 -174 -194 176 0 182 194 rlineto
          endchar
        </CharString>
        <CharString name="guilsinglleft">
          -251 389 463 rmoveto
          -176 0 -182 -193 182 -194 176 0 -175 194 rlineto
          endchar
        </CharString>
        <CharString name="guilsinglright">
          -251 225 463 rmoveto
          -177 0 175 -193 -175 -194 177 0 181 194 rlineto
          endchar
        </CharString>
        <CharString name="h">
          1 -11 -21 474 137 232 -20 hstem
          73 168 212 169 vstem
          241 811 rmoveto
          -66 callsubr
          endchar
        </CharString>
        <CharString name="hbar">
          1 -11 -21 474 137 65 96 71 -20 hstem
          73 168 212 169 vstem
          241 644 rmoveto
          122 96 -122 71 -168 -71 -99 -96 99 -676 168 320 hlineto
          134 77 20 39 56 40 -41 -74 vhcurveto
          -359 169 387 vlineto
          156 -88 68 -111 vhcurveto
          -95 0 -54 -32 -33 -67 rrcurveto
          endchar
        </CharString>
        <CharString name="hcircumflex">
          1 -11 -21 474 137 232 -20 hstem
          73 168 212 169 vstem
          276 1081 rmoveto
          -31 callsubr
          -178 -270 rmoveto
          -66 callsubr
          endchar
        </CharString>
        <CharString name="hookabovecomb">
          -687 677 63 83 68 hstemhm
          -410 129 -63 149 hintmask 11010000
          -421 823 rmoveto
          47 -1 30 -14 0 -29 rrcurveto
          hintmask 11100000
          0 -26 -27 -9 -39 -4 rrcurveto
          -63 129 34 vlineto
          hintmask 11010000
          46 9 40 20 0 47 rrcurveto
          85 -108 19 -118 vhcurveto
          endchar
        </CharString>
        <CharString name="hungarumlaut">
          -98 710 210 hstem
          265 710 rmoveto
          115 0 167 210 -170 0 rlineto
          -333 -210 rmoveto
          115 0 144 210 -156 0 rlineto
          endchar
        </CharString>
        <CharString name="hyphen">
          12 297 150 hstem
          645 447 rmoveto
          -103 callsubr
          endchar
        </CharString>
        <CharString name="i">
          -362 -11 -21 605 -20 97 198 hstemhm
          64 198 -183 168 hintmask 11101000
          79 -32 rmoveto
          -65 callsubr
          hintmask 11110000
          -15 175 rmoveto
          -64 callsubr
          endchar
        </CharString>
        <CharString name="iacute">
          -362 -11 -21 605 -20 hstem
          79 168 vstem
          92 654 rmoveto
          -6 callsubr
          -117 -895 rmoveto
          -65 callsubr
          endchar
        </CharString>
        <CharString name="ibreve">
          -362 -11 -21 605 -20 89 107 hstem
          -71 130 20 168 20 130 vstem
          cntrmask 00011100
          -71 857 rmoveto
          12 callsubr
          20 -889 rmoveto
          -65 callsubr
          endchar
        </CharString>
        <CharString name="icircumflex">
          -362 -11 -21 605 -20 hstem
          79 168 vstem
          91 863 rmoveto
          -20 callsubr
          -156 -895 rmoveto
          -65 callsubr
          endchar
        </CharString>
        <CharString name="idieresis">
          -362 -11 -21 605 -20 101 189 hstemhm
          -91 192 -22 168 -23 192 hintmask 11110000
          -91 749 rmoveto
          -53 41 -42 56 54 41 42 53 53 -41 41 -54 vhcurveto
          -56 -41 -41 -53 hvcurveto
          hintmask 11100100
          315 hmoveto
          -53 41 -42 55 54 42 42 53 53 -42 41 -54 vhcurveto
          -55 -41 -41 -53 hvcurveto
          hintmask 11101000
          -145 -781 rmoveto
          -65 callsubr
          endchar
        </CharString>
        <CharString name="igrave">
          -362 -11 -21 605 -20 hstem
          79 168 vstem
          130 863 rmoveto
          -171 0 144 -209 131 0 rlineto
          -155 -686 rmoveto
          -65 callsubr
          endchar
        </CharString>
        <CharString name="ij">
          -39 -268 137 120 -21 605 -20 97 198 hstemhm
          64 198 -183 168 146 198 -182 168 hintmask 11110001
          277 -249 rmoveto
          39 -14 27 -5 29 0 rrcurveto
          136 69 85 123 hvcurveto
          633 -168 -623 vlineto
          -60 -27 -21 -36 vhcurveto
          -21 0 -24 7 -24 11 rrcurveto
          hintmask 11110010
          116 861 rmoveto
          16 callsubr
          hintmask 11110100
          -314 -780 rmoveto
          -65 callsubr
          hintmask 11111000
          -15 175 rmoveto
          -64 callsubr
          endchar
        </CharString>
        <CharString name="imacron">
          -362 -11 -21 605 -20 101 114 hstem
          79 168 vstem
          373 654 rmoveto
          114 -420 -114 vlineto
          126 -686 rmoveto
          -65 callsubr
          endchar
        </CharString>
        <CharString name="indianrupee">
          -23 -11 -21 474 127 76 126 hstem
          615 771 rmoveto
          -543 -126 101 hlineto
          73 0 42 -32 20 -44 rrcurveto
          -236 -127 243 hlineto
          -16 -50 -41 -26 -81 0 rrcurveto
          -105 -134 hlineto
          212 -264 213 0 -228 268 3 0 rlineto
          126 19 73 77 17 110 rrcurveto
          127 127 -139 hlineto
          -10 28 -14 25 -22 23 rrcurveto
          185 hlineto
          endchar
        </CharString>
        <CharString name="infinity">
          302 169 130 157 129 hstem
          54 148 586 149 vstem
          202 373 rmoveto
          49 30 30 53 vhcurveto
          47 0 41 -39 33 -34 -23 -33 -37 -52 -61 0 rrcurveto
          -52 -31 30 49 hvcurveto
          293 -93 rmoveto
          51 -61 66 -50 100 0 rrcurveto
          135 90 86 126 127 -81 77 -140 hvcurveto
          -113 0 -67 -64 -42 -48 -54 61 -62 48 -99 0 rrcurveto
          -137 -88 -84 -128 -131 77 -73 143 hvcurveto
          117 0 61 65 43 49 rrcurveto
          293 99 rmoveto
          -54 -31 -26 -52 vhcurveto
          -47 0 -39 39 -35 35 23 32 36 51 65 0 rrcurveto
          51 29 -34 -43 hvcurveto
          endchar
        </CharString>
        <CharString name="integral">
          -68 -265 136 804 136 hstem
          -248 vmoveto
          25 -11 44 -6 44 0 143 0 73 106 24 146 rrcurveto
          94 560 rlineto
          12 80 28 48 65 0 19 0 27 -5 21 -8 rrcurveto
          137 vlineto
          -30 11 -40 1 -31 0 -142 0 -74 -107 -24 -145 rrcurveto
          -93 -560 rlineto
          -13 -81 -22 -47 -65 0 -30 0 -29 6 -26 12 rrcurveto
          endchar
        </CharString>
        <CharString name="iogonek">
          -362 -340 111 802 -20 97 198 hstemhm
          -28 135 -43 198 -183 168 hintmask 11101000
          262 -311 rmoveto
          118 vlineto
          -28 -19 -33 -17 -42 0 rrcurveto
          hintmask 11110000
          -32 -20 16 27 hvcurveto
          hintmask 11100100
          0 54 71 58 69 42 rrcurveto
          605 -168 -594 vlineto
          hintmask 11110000
          -56 -43 -51 -60 0 -77 0 -75 46 -64 116 0 rrcurveto
          54 0 39 11 35 18 rrcurveto
          hintmask 11101000
          -198 1059 rmoveto
          -64 callsubr
          endchar
        </CharString>
        <CharString name="iota">
          -330 -50 143 492 -20 hstemhm
          74 178 -178 166 hintmask 11010000
          74 153 rmoveto
          36 callsubr
          hintmask 11100000
          37 callsubr
          endchar
        </CharString>
        <CharString name="iotadieresis">
          -330 -50 143 492 -20 81 190 hstemhm
          -91 193 -28 178 -178 166 -16 193 hintmask 11110000
          -91 741 rmoveto
          -53 42 -42 55 55 41 42 53 53 -41 42 -55 vhcurveto
          -55 -42 -42 -53 hvcurveto
          hintmask 11100010
          315 hmoveto
          -53 41 -42 55 55 42 42 53 53 -42 42 -55 vhcurveto
          -55 -41 -42 -53 hvcurveto
          hintmask 11100100
          -150 -588 rmoveto
          36 callsubr
          hintmask 11101000
          37 callsubr
          endchar
        </CharString>
        <CharString name="iotadieresistonos">
          -330 -50 143 492 -20 81 135 hstemhm
          -91 157 8 178 -178 166 21 156 hintmask 11110010
          141 936 rmoveto
          25 callsubr
          -300 -290 rmoveto
          43 36 29 40 39 -36 27 -43 -41 -37 -29 -37 -39 37 -30 41 hvcurveto
          352 hmoveto
          43 35 29 40 38 -36 28 -42 -42 -36 -27 -39 -40 36 -29 42 hvcurveto
          hintmask 11110110
          -265 -493 rmoveto
          36 callsubr
          hintmask 11111010
          37 callsubr
          endchar
        </CharString>
        <CharString name="iotatonos">
          -330 -50 143 492 -20 264 -20 hstemhm
          74 178 -178 166 hintmask 11100000
          137 829 rmoveto
          26 callsubr
          hintmask 11101000
          -217 -676 rmoveto
          36 callsubr
          hintmask 11110000
          37 callsubr
          endchar
        </CharString>
        <CharString name="itilde">
          -362 -11 -21 605 -20 98 120 -77 119 10 -20 hstemhm
          79 168 hintmask 11101100
          310 823 rmoveto
          -15 -31 -29 -21 -38 0 rrcurveto
          hintmask 11010100
          -53 0 -30 42 -79 0 -61 0 -52 -47 -24 -49 rrcurveto
          76 -75 rlineto
          31 38 16 14 42 0 rrcurveto
          hintmask 11101100
          -5 callsubr
          -318 -784 rmoveto
          -65 callsubr
          endchar
        </CharString>
        <CharString name="j">
          -365 -268 137 704 -20 97 198 hstemhm
          67 198 -182 168 hintmask 11101000
          -48 -249 rmoveto
          -63 callsubr
          hintmask 11110000
          115 861 rmoveto
          -54 45 -44 55 54 44 44 54 55 -44 45 -54 vhcurveto
          -55 -45 -45 -55 hvcurveto
          endchar
        </CharString>
        <CharString name="jcircumflex">
          -365 -268 137 704 -20 hstem
          83 168 vstem
          95 852 rmoveto
          -185 -210 161 0 96 115 94 -115 162 0 -184 210 rlineto
          -287 -1101 rmoveto
          -63 callsubr
          endchar
        </CharString>
        <CharString name="k">
          -39 -11 -21 605 -20 hstem
          73 168 vstem
          634 -32 rmoveto
          -62 callsubr
          endchar
        </CharString>
        <CharString name="kappa">
          -18 -14 -21 620 -20 hstem
          74 173 vstem
          60 585 rmoveto
          11 -65 3 -74 0 -49 rrcurveto
          -432 167 37 vlineto
          0 92 16 61 45 47 rrcurveto
          14 15 rlineto
          56 -112 55 -92 49 -62 rrcurveto
          200 14 rlineto
          -84 93 -99 151 -63 121 68 60 54 31 64 14 rrcurveto
          -13 166 rlineto
          -144 -22 -115 -123 -93 -146 rrcurveto
          -4 122 hlineto
          0 58 -3 56 -10 39 rrcurveto
          endchar
        </CharString>
        <CharString name="kgreenlandic">
          -39 -11 -21 605 -20 hstem
          73 168 vstem
          634 -32 rmoveto
          -216 315 212 290 -194 0 -195 -272 0 272 -168 0 0 -605 168 0 0 297 198 -297 rlineto
          endchar
        </CharString>
        <CharString name="l">
          -362 -37 139 709 -20 hstem
          79 168 vstem
          79 192 rmoveto
          -61 callsubr
          endchar
        </CharString>
        <CharString name="lacute">
          -362 -37 139 709 -20 hstem
          79 168 vstem
          92 883 rmoveto
          -46 callsubr
          -117 -901 rmoveto
          -61 callsubr
          endchar
        </CharString>
        <CharString name="lambda">
          -7 -14 -21 746 148 hstem
          15 -35 rmoveto
          191 -14 151 441 6 0 125 -427 190 0 -222 633 rlineto
          -54 181 -78 80 -141 0 -73 0 -35 -10 -40 -16 rrcurveto
          39 -143 rlineto
          28 13 22 8 38 0 53 0 47 -36 16 -68 rrcurveto
          4 -18 rlineto
          endchar
        </CharString>
        <CharString name="lcaron">
          -362 -37 139 709 -20 hstem
          79 168 vstem
          354 503 rmoveto
          20 callsubr
          -394 -619 rmoveto
          -61 callsubr
          endchar
        </CharString>
        <CharString name="ldot">
          -92 -37 139 251 208 250 -20 hstem
          79 168 85 208 vstem
          332 458 rmoveto
          -58 46 -47 57 58 47 47 58 57 -47 46 -58 -57 -46 -46 -57 vhcurveto
          -253 -266 rmoveto
          -61 callsubr
          endchar
        </CharString>
        <CharString name="less">
          10 55 293 rmoveto
          588 -289 0 167 -420 203 420 202 0 167 -588 -290 rlineto
          endchar
        </CharString>
        <CharString name="lessequal">
          6 70 134 hstem
          49 70 rmoveto
          590 134 -590 hlineto
          590 471 rmoveto
          -590 -104 0 -209 590 -104 0 147 -473 61 473 62 rlineto
          endchar
        </CharString>
        <CharString name="logicalnot">
          26 330 135 hstem
          523 139 vstem
          662 132 rmoveto
          333 -610 -135 471 -198 vlineto
          endchar
        </CharString>
        <CharString name="longs">
          -278 -11 -21 481 124 117 136 hstem
          116 167 vstem
          36 449 rmoveto
          80 -481 167 629 hlineto
          73 33 20 54 vhcurveto
          20 0 20 -3 23 -10 rrcurveto
          137 vlineto
          -30 11 -28 1 -31 0 rrcurveto
          -143 -85 -83 -146 hvcurveto
          -24 -80 vlineto
          endchar
        </CharString>
        <CharString name="lozenge">
          30 -11 -21 hstem
          480 316 rmoveto
          -89 -144 -33 -72 0 0 0 0 -37 79 -81 137 rrcurveto
          -31 53 31 55 rlineto
          81 137 37 79 0 0 0 0 33 -72 89 -144 rrcurveto
          32 -55 rlineto
          -67 402 rmoveto
          -175 0 -233 -402 233 -401 175 0 236 401 rlineto
          endchar
        </CharString>
        <CharString name="lslash">
          -285 -11 -21 843 -20 hstem
          122 169 vstem
          390 608 rmoveto
          -99 -68 0 271 -169 0 0 -385 -91 -63 0 -141 91 63 0 -317 169 0 0 431 99 68 rlineto
          endchar
        </CharString>
        <CharString name="m">
          334 -11 -21 474 137 hstem
          73 168 188 169 188 168 vstem
          cntrmask 00111000
          241 573 rmoveto
          -60 callsubr
          endchar
        </CharString>
        <CharString name="macron">
          -98 748 114 hstem
          505 748 rmoveto
          -47 callsubr
          endchar
        </CharString>
        <CharString name="minus">
          12 297 150 hstem
          645 447 rmoveto
          -103 callsubr
          endchar
        </CharString>
        <CharString name="minute">
          -445 835 -20 hstem
          103 201 vstem
          103 469 rmoveto
          66 callsubr
          endchar
        </CharString>
        <CharString name="multiply">
          12 506 634 rmoveto
          -155 -154 -153 154 -110 -111 154 -154 -153 -152 106 -107 153 154 152 -152 110 110 -152 152 154 154 rlineto
          endchar
        </CharString>
        <CharString name="n">
          -11 -21 474 137 hstem
          73 168 213 169 vstem
          73 -32 rmoveto
          -59 callsubr
          endchar
        </CharString>
        <CharString name="nacute">
          -11 -21 474 137 hstem
          73 168 213 169 vstem
          277 654 rmoveto
          -44 callsubr
          -307 -896 rmoveto
          -59 callsubr
          endchar
        </CharString>
        <CharString name="napostrophe">
          210 -11 -21 474 137 hstem
          281 169 213 169 vstem
          281 -32 rmoveto
          169 320 hlineto
          107 54 47 62 59 38 -36 -75 vhcurveto
          -363 169 394 vlineto
          144 -78 73 -121 vhcurveto
          -89 0 -60 -33 -34 -66 rrcurveto
          93 -169 vlineto
          -249 -86 rmoveto
          20 callsubr
          endchar
        </CharString>
        <CharString name="ncaron">
          -11 -21 474 137 hstem
          73 168 213 169 vstem
          419 654 rmoveto
          185 210 -162 0 -94 -116 -96 116 -161 0 185 -210 rlineto
          -203 -686 rmoveto
          -59 callsubr
          endchar
        </CharString>
        <CharString name="nine">
          -16 -42 156 134 141 238 155 hstem
          35 178 vstem
          443 446 rmoveto
          -30 -36 -34 -21 -58 0 rrcurveto
          -67 -41 51 67 76 44 44 65 hvcurveto
          61 0 50 -48 10 -133 rrcurveto
          -351 -466 rmoveto
          33 -12 55 -10 57 0 rrcurveto
          221 161 134 305 236 -112 149 -193 -178 -101 -125 -154 -157 101 -98 142 hvcurveto
          75 0 50 18 36 36 -21 -129 -70 -59 -129 0 -44 0 -52 16 -31 15 rrcurveto
          endchar
        </CharString>
        <CharString name="notequal">
          12 169 135 139 135 hstem
          645 443 rmoveto
          135 -155 vlineto
          44 96 -87 0 -45 -96 -347 0 0 -135 284 0 -66 -139 -218 0 0 -135 155 0 -45 -96 89 0 44 96 347 0 0 135 rlineto
          -283 0 64 139 rlineto
          endchar
        </CharString>
        <CharString name="ntilde">
          -11 -21 474 137 84 120 -77 119 10 -20 hstemhm
          73 168 213 169 hintmask 11101110
          495 835 rmoveto
          -19 callsubr
          hintmask 11010110
          -52 0 -30 42 -79 0 -61 0 -53 -47 -24 -50 rrcurveto
          76 -74 rlineto
          32 37 16 15 42 0 rrcurveto
          hintmask 11101110
          -5 callsubr
          -509 -796 rmoveto
          -59 callsubr
          endchar
        </CharString>
        <CharString name="nu">
          -43 -14 -21 620 -20 hstem
          451 176 vstem
          -2 561 rmoveto
          100 -152 94 -214 37 -230 rrcurveto
          167 hlineto
          136 228 58 172 37 220 rrcurveto
          -176 hlineto
          -12 -145 -32 -154 -61 -141 rrcurveto
          -5 hlineto
          -26 134 -68 207 -68 115 rrcurveto
          endchar
        </CharString>
        <CharString name="numbersign">
          211 -11 -21 185 128 167 134 hstem
          511 281 rmoveto
          -166 0 36 167 165 0 rlineto
          299 hmoveto
          134 -126 vlineto
          39 188 -143 0 -40 -188 -165 0 39 188 -144 0 -40 -188 -169 0 0 -134 141 0 -35 -167 -148 0 0 -128 120 0 -38 -185 rlineto
          142 0 40 185 165 0 -38 -185 143 0 40 185 175 0 0 128 -149 0 36 167 rlineto
          endchar
        </CharString>
        <CharString name="o">
          -13 -42 132 359 133 hstem
          42 177 238 176 vstem
          339 -42 rmoveto
          -58 callsubr
          -2 491 rmoveto
          -57 callsubr
          endchar
        </CharString>
        <CharString name="oacute">
          -13 -42 132 359 133 hstem
          42 177 238 176 vstem
          268 654 rmoveto
          -6 callsubr
          -33 -905 rmoveto
          -58 callsubr
          -2 491 rmoveto
          -57 callsubr
          endchar
        </CharString>
        <CharString name="obreve">
          -13 -42 132 359 133 60 107 hstemhm
          42 177 -114 130 207 130 -115 176 hintmask 11101100
          105 857 rmoveto
          -154 102 -61 132 132 101 61 154 vhcurveto
          -130 hlineto
          -69 -42 -39 -61 -62 -42 39 69 vhcurveto
          104 -899 rmoveto
          hintmask 11110010
          -58 callsubr
          -2 491 rmoveto
          -57 callsubr
          endchar
        </CharString>
        <CharString name="ocircumflex">
          -13 -42 132 359 133 hstem
          42 177 238 176 vstem
          267 863 rmoveto
          -20 callsubr
          -72 -905 rmoveto
          -58 callsubr
          -2 491 rmoveto
          -57 callsubr
          endchar
        </CharString>
        <CharString name="odieresis">
          -13 -42 132 359 133 72 189 hstemhm
          42 177 -135 193 122 193 -135 176 hintmask 11101000
          84 749 rmoveto
          -4 callsubr
          hintmask 11100100
          315 hmoveto
          -3 callsubr
          -60 -791 rmoveto
          hintmask 11110010
          -58 callsubr
          -2 491 rmoveto
          -57 callsubr
          endchar
        </CharString>
        <CharString name="oe">
          361 -42 132 114 120 125 133 hstemhm
          42 177 245 540 -158 158 hintmask 11110100
          846 324 rmoveto
          -217 hlineto
          16 87 51 39 54 0 63 0 26 -43 6 -57 rrcurveto
          -506 -260 rmoveto
          -83 -37 81 99 98 35 81 82 hvcurveto
          hintmask 11111000
          90 38 -83 -98 -99 -41 -79 -84 hvcurveto
          627 54 rmoveto
          -38 -29 -51 -21 -71 0 -83 0 -64 38 -23 72 rrcurveto
          358 hlineto
          4 24 6 42 0 26 0 192 -104 91 -157 0 -70 0 -73 -30 -53 -55 -49 55 -71 33 -89 0 rrcurveto
          -183 -113 -137 -182 -170 101 -135 195 hvcurveto
          89 0 72 36 50 59 54 -57 80 -34 95 0 60 0 84 12 44 28 rrcurveto
          endchar
        </CharString>
        <CharString name="ogonek">
          -98 -325 112 hstem
          150 135 vstem
          440 -295 rmoveto
          117 vlineto
          -27 -18 -33 -17 -42 0 -33 0 -20 16 0 27 0 53 71 59 69 42 rrcurveto
          -57 75 rlineto
          -70 -30 -148 -83 0 -131 0 -75 46 -65 117 0 53 0 40 12 34 18 rrcurveto
          endchar
        </CharString>
        <CharString name="ograve">
          -13 -42 132 359 133 hstem
          42 177 238 176 vstem
          305 863 rmoveto
          -171 0 143 -209 132 0 rlineto
          -70 -696 rmoveto
          -58 callsubr
          -2 491 rmoveto
          -57 callsubr
          endchar
        </CharString>
        <CharString name="ohorn">
          -23 -43 131 354 131 hstemhm
          33 172 227 172 -30 91 hintmask 11110000
          604 252 rmoveto
          13 vlineto
          -1 65 -11 55 -22 44 rrcurveto
          hintmask 11101000
          62 30 32 62 1 96 rrcurveto
          -91 hlineto
          -1 -66 -13 -39 -28 -25 -55 55 -64 31 -95 0 -59 0 -50 -12 -43 -25 -81 -46 -52 -94 0 -125 rrcurveto
          -31 vlineto
          9 -169 101 -114 176 0 rrcurveto
          176 0 107 120 2 175 rrcurveto
          -399 7 rmoveto
          34 vlineto
          96 43 53 70 vhcurveto
          hintmask 11110000
          76 38 -60 -111 hvcurveto
          -19 vlineto
          -1 -106 -38 -58 -74 0 rrcurveto
          -89 -25 76 95 hvcurveto
          endchar
        </CharString>
        <CharString name="ohungarumlaut">
          -13 -42 132 359 133 hstem
          42 177 238 176 vstem
          386 654 rmoveto
          116 0 166 209 -169 0 rlineto
          -334 -209 rmoveto
          21 callsubr
          70 -905 rmoveto
          -58 callsubr
          -2 491 rmoveto
          -57 callsubr
          endchar
        </CharString>
        <CharString name="omacron">
          -13 -42 132 359 133 72 114 hstem
          42 177 238 176 vstem
          548 654 rmoveto
          -47 callsubr
          210 -696 rmoveto
          -58 callsubr
          -2 491 rmoveto
          -57 callsubr
          endchar
        </CharString>
        <CharString name="omega">
          230 -50 143 hstem
          45 168 165 157 160 177 vstem
          45 279 rmoveto
          61 callsubr
          endchar
        </CharString>
        <CharString name="omegatonos">
          230 -50 143 751 -20 hstem
          45 168 165 157 160 177 vstem
          404 844 rmoveto
          26 callsubr
          -513 -565 rmoveto
          61 callsubr
          endchar
        </CharString>
        <CharString name="omicron">
          -8 -50 143 364 144 hstem
          41 181 236 182 vstem
          41 274 rmoveto
          59 callsubr
          181 hmoveto
          60 callsubr
          endchar
        </CharString>
        <CharString name="omicrontonos">
          -8 -50 143 364 144 243 -20 hstem
          41 181 236 182 vstem
          286 844 rmoveto
          24 callsubr
          -399 -570 rmoveto
          59 callsubr
          181 hmoveto
          60 callsubr
          endchar
        </CharString>
        <CharString name="one">
          -16 -12 -21 hstem
          282 174 vstem
          80 462 rmoveto
          202 123 0 -618 174 0 0 804 -152 0 -224 -130 rlineto
          endchar
        </CharString>
        <CharString name="onehalf">
          305 -32 105 298 118 327 -20 hstem
          154 120 552 130 vstem
          622 -32 rmoveto
          351 105 -196 hlineto
          101 66 78 83 0 104 0 104 -76 59 -107 0 -53 0 -50 -17 -36 -23 rrcurveto
          -122 vlineto
          37 26 46 18 35 0 49 0 25 -24 0 -38 0 -78 -103 -99 -101 -74 rrcurveto
          -606 554 rmoveto
          138 74 0 -386 120 0 0 516 -99 0 -159 -90 rlineto
          132 -758 rmoveto
          127 0 512 848 -125 0 rlineto
          endchar
        </CharString>
        <CharString name="onequarter">
          301 -11 -21 103 99 646 -20 hstem
          154 120 522 117 vstem
          154 300 rmoveto
          120 516 -99 hlineto
          -159 -90 0 -114 138 74 rlineto
          508 130 rmoveto
          -514 -848 127 0 512 848 rlineto
          -101 -646 rmoveto
          110 221 0 -221 rlineto
          181 hmoveto
          -64 311 -188 hlineto
          -161 -311 0 -99 232 0 0 -103 117 0 0 103 64 0 rlineto
          endchar
        </CharString>
        <CharString name="onesuperior">
          -358 150 119 vstem
          12 748 rmoveto
          138 73 0 -386 119 0 0 517 -99 0 -158 -90 rlineto
          endchar
        </CharString>
        <CharString name="ordfeminine">
          -215 432 102 113 90 101 117 hstem
          11 148 133 145 vstem
          292 647 rmoveto
          -41 vlineto
          -43 -27 -29 -42 -44 -20 20 33 34 30 26 52 vhcurveto
          -192 146 rmoveto
          39 25 56 20 58 0 rrcurveto
          68 22 -27 -41 hvcurveto
          -33 -67 vlineto
          -145 -69 -63 -93 -84 56 -65 102 hvcurveto
          74 0 39 32 17 33 rrcurveto
          -62 138 329 vlineto
          131 -69 60 -145 vhcurveto
          -77 0 -66 -16 -31 -17 rrcurveto
          endchar
        </CharString>
        <CharString name="ordmasculine">
          -166 428 112 305 113 hstem
          11 149 202 150 vstem
          262 428 rmoveto
          161 89 117 150 147 -86 116 -164 -157 -94 -116 -156 -143 83 -115 168 hvcurveto
          -2 417 rmoveto
          77 25 -70 -85 -83 -29 -67 -70 -72 -31 68 84 85 30 68 70 hvcurveto
          endchar
        </CharString>
        <CharString name="oslash">
          -18 -42 114 395 115 hstem
          44 155 280 155 vstem
          470 353 rmoveto
          -2 callsubr
          -70 102 rmoveto
          -1 callsubr
          234 128 rmoveto
          0 callsubr
          endchar
        </CharString>
        <CharString name="oslashacute">
          -18 -42 114 395 115 hstem
          44 155 280 155 vstem
          274 642 rmoveto
          -46 callsubr
          92 -499 rmoveto
          -2 callsubr
          -70 102 rmoveto
          -1 callsubr
          234 128 rmoveto
          0 callsubr
          endchar
        </CharString>
        <CharString name="otilde">
          -13 -42 132 359 133 81 120 -77 119 10 -20 hstemhm
          42 177 238 176 hintmask 11101110
          486 835 rmoveto
          -16 -31 -28 -21 -38 0 rrcurveto
          hintmask 11010110
          -53 0 -30 42 -79 0 -61 0 -53 -47 -23 -50 rrcurveto
          76 -74 rlineto
          31 37 16 15 42 0 rrcurveto
          hintmask 11101110
          43 0 29 -43 71 0 73 0 56 39 31 62 rrcurveto
          -234 -806 rmoveto
          -58 callsubr
          -2 491 rmoveto
          -57 callsubr
          endchar
        </CharString>
        <CharString name="p">
          37 -235 -21 216 142 337 141 -7 -20 hstemhm
          73 168 271 171 hintmask 11101100
          380 102 rmoveto
          -78 -61 65 109 112 72 51 68 72 59 -54 -116 hvcurveto
          -106 -56 -61 -76 vhcurveto
          hintmask 11011100
          -139 471 rmoveto
          -168 -829 168 304 hlineto
          46 -68 62 -20 75 0 rrcurveto
          168 91 140 172 hvcurveto
          hintmask 11101100
          189 -104 119 -155 vhcurveto
          -75 0 -61 -24 -47 -67 rrcurveto
          endchar
        </CharString>
        <CharString name="paragraph">
          313 -35 -21 732 100 hstemhm
          235 300 -102 102 80 101 hintmask 11101000
          235 515 rmoveto
          -151 129 -63 62 vhcurveto
          hintmask 11011000
          7 -357 102 732 80 -732 101 821 hlineto
          -34 7 -52 4 -68 0 rrcurveto
          -264 -63 -139 -122 hvcurveto
          endchar
        </CharString>
        <CharString name="parenleft">
          -262 95 142 vstem
          95 381 rmoveto
          0 -165 44 -166 88 -145 rrcurveto
          142 hlineto
          -88 153 -44 162 0 160 0 160 44 161 88 154 rrcurveto
          -142 hlineto
          -88 -144 -44 -165 0 -165 rrcurveto
          endchar
        </CharString>
        <CharString name="parenright">
          -262 192 143 vstem
          59 -95 rmoveto
          141 hlineto
          89 145 46 166 0 165 0 164 -46 165 -89 145 rrcurveto
          -141 hlineto
          89 -154 44 -161 0 -160 0 -161 -44 -160 -89 -154 rrcurveto
          endchar
        </CharString>
        <CharString name="partialdiff">
          -32 -44 151 233 143 hstem
          42 173 227 154 vstem
          317 107 rmoveto
          -67 -35 46 68 72 45 47 62 hvcurveto
          51 0 38 -16 31 -29 -5 -145 -58 -43 -62 0 rrcurveto
          -193 664 rmoveto
          127 -78 118 -114 49 -135 -34 25 -44 14 -54 0 rrcurveto
          -131 -113 -100 -154 -155 93 -118 182 175 104 128 223 hvcurveto
          0 155 -93 197 -147 112 rrcurveto
          endchar
        </CharString>
        <CharString name="percent">
          381 -50 99 229 100 -10 100 229 100 hstemhm
          33 124 156 125 195 123 156 125 hintmask 11011111
          33 539 rmoveto
          -164 84 -97 118 118 85 97 164 162 -85 96 -118 vhcurveto
          -118 -84 -96 -162 hvcurveto
          124 hmoveto
          117 35 41 43 43 35 -41 -117 -117 -35 -44 -43 -43 -35 44 117 vhcurveto
          87 -589 rmoveto
          -106 callsubr
          -52 -587 rmoveto
          -105 callsubr
          hintmask 10111111
          -104 callsubr
          123 hmoveto
          117 36 41 43 42 35 -41 -117 -117 -35 -44 -42 -43 -36 44 117 vhcurveto
          endchar
        </CharString>
        <CharString name="period">
          -387 -41 207 hstem
          47 207 vstem
          47 62 rmoveto
          -58 45 -45 58 58 46 45 58 58 -46 46 -58 -58 -45 -46 -58 vhcurveto
          endchar
        </CharString>
        <CharString name="periodcentered">
          -371 170 207 hstem
          55 208 vstem
          55 274 rmoveto
          -45 callsubr
          endchar
        </CharString>
        <CharString name="perthousand">
          848 -50 99 229 99 -8 99 230 99 hstemhm
          33 124 157 124 195 123 157 124 64 122 157 124 hintmask 1011111111000000
          1101 210 rmoveto
          -163 84 -97 117 117 85 97 163 164 -85 94 -117 vhcurveto
          -117 -84 -94 -164 hvcurveto
          122 hmoveto
          117 36 42 43 43 35 -42 -117 -117 -35 -44 -43 -43 -36 44 117 vhcurveto
          -1190 329 rmoveto
          hintmask 1101111111000000
          -164 84 -97 118 118 85 97 164 162 -85 96 -118 -118 -84 -96 -162 vhcurveto
          124 hmoveto
          117 34 42 44 43 36 -42 -117 -117 -36 -45 -43 -44 -34 45 117 vhcurveto
          87 -589 rmoveto
          -106 callsubr
          -52 -587 rmoveto
          -105 callsubr
          hintmask 1011111111000000
          -104 callsubr
          123 hmoveto
          117 35 42 44 43 35 -42 -117 -117 -35 -44 -43 -44 -35 44 117 vhcurveto
          endchar
        </CharString>
        <CharString name="phi">
          219 -236 -21 213 131 376 131 hstem
          41 181 151 162 150 181 vstem
          41 275 rmoveto
          0 -198 160 -112 172 -9 rrcurveto
          -213 162 212 vlineto
          172 9 159 113 0 198 0 199 -157 112 -174 8 rrcurveto
          156 -162 -156 vlineto
          -172 -9 -160 -111 0 -199 rrcurveto
          181 hmoveto
          0 118 61 65 90 5 rrcurveto
          -376 vlineto
          -90 4 -61 67 0 117 rrcurveto
          313 -188 rmoveto
          376 vlineto
          91 -5 59 -65 0 -118 0 -117 -61 -67 -89 -4 rrcurveto
          endchar
        </CharString>
        <CharString name="pi">
          97 -50 143 353 140 -140 132 hstemhm
          155 165 146 167 -161 169 hintmask 10110100
          19 446 rmoveto
          hintmask 11010100
          136 hlineto
          0 -140 -13 -173 -31 -168 rrcurveto
          178 -10 rlineto
          16 163 15 177 0 151 rrcurveto
          152 hlineto
          hintmask 11011000
          -1 -107 -5 -142 0 -40 0 -125 46 -82 134 0 47 0 39 9 24 9 rrcurveto
          -21 130 rlineto
          -18 -2 -17 -3 -11 0 -37 0 -19 13 0 43 rrcurveto
          hintmask 11010100
          0 32 0 153 8 112 rrcurveto
          117 140 -646 hlineto
          hintmask 10110100
          -93 -8 rlineto
          endchar
        </CharString>
        <CharString name="plus">
          12 297 150 hstem
          271 156 vstem
          645 447 rmoveto
          -218 217 -156 -217 -216 -150 216 -215 156 215 218 hlineto
          endchar
        </CharString>
        <CharString name="plusminus">
          313 7 110 340 110 247 -20 hstem
          445 110 vstem
          147 7 rmoveto
          715 110 -715 hlineto
          340 vmoveto
          298 -256 110 256 298 110 -298 247 -110 -247 -298 hlineto
          endchar
        </CharString>
        <CharString name="product">
          79 620 151 hstem
          104 177 230 178 vstem
          104 -247 rmoveto
          177 867 230 -867 178 1018 -585 hlineto
          endchar
        </CharString>
        <CharString name="psi">
          232 -236 -21 207 139 496 -20 hstem
          62 168 146 162 153 177 vstem
          49 585 rmoveto
          11 -68 2 -71 0 -49 rrcurveto
          -137 vlineto
          0 -166 82 -139 232 -5 rrcurveto
          -207 162 207 vlineto
          216 4 114 129 0 232 0 98 -18 95 -30 93 rrcurveto
          -171 -39 rlineto
          31 -102 11 -76 0 -77 0 -158 -53 -57 -100 -3 rrcurveto
          661 -162 -661 vlineto
          -111 1 -35 74 0 82 0 46 2 89 0 51 0 58 -3 52 -9 43 rrcurveto
          endchar
        </CharString>
        <CharString name="q">
          37 -235 -21 216 142 337 141 -7 -20 hstemhm
          42 172 270 169 hintmask 11101100
          347 102 rmoveto
          -73 -60 64 103 111 62 59 70 68 70 -51 -112 hvcurveto
          -109 -58 -65 -79 vhcurveto
          hintmask 11011100
          137 471 rmoveto
          -84 vlineto
          hintmask 11101100
          -46 67 -62 24 -72 0 rrcurveto
          -156 -106 -119 -189 -172 93 -140 168 hvcurveto
          71 0 63 21 47 72 rrcurveto
          -309 169 vlineto
          hintmask 11011100
          829 vlineto
          endchar
        </CharString>
        <CharString name="question">
          -18 -70 226 492 146 hstemhm
          225 216 -190 161 24 171 hintmask 11011000
          607 571 rmoveto
          154 -111 69 -155 vhcurveto
          -171 0 -95 -88 -1 -179 rrcurveto
          170 hlineto
          78 37 43 60 51 44 -31 -54 vhcurveto
          0 -60 -46 -35 -39 -32 -55 -47 -45 -76 0 -102 rrcurveto
          161 hlineto
          0 181 195 -2 0 181 rrcurveto
          hintmask 11100000
          -382 -528 rmoveto
          -64 45 -49 62 63 46 49 64 62 -46 51 -63 vhcurveto
          -62 -45 -51 -62 hvcurveto
          endchar
        </CharString>
        <CharString name="questiondown">
          -18 -271 145 493 225 hstemhm
          74 171 -5 216 -187 161 hintmask 11101000
          607 -5 rmoveto
          -170 hlineto
          -78 -37 -43 -60 -51 -44 31 54 vhcurveto
          0 60 46 35 39 33 55 46 45 77 0 101 rrcurveto
          -161 hlineto
          0 -100 -62 -44 -51 -50 -42 -41 -40 -45 0 -80 0 -155 111 -67 155 0 rrcurveto
          171 0 95 87 1 179 rrcurveto
          hintmask 11010000
          -151 485 rmoveto
          63 -45 49 -62 -62 -47 -49 -63 -63 47 -50 62 vhcurveto
          62 45 50 63 hvcurveto
          endchar
        </CharString>
        <CharString name="quotedbl">
          -26 101 168 123 168 vstem
          95 918 rmoveto
          -107 callsubr
          111 hmoveto
          6 -161 34 -248 99 0 35 248 5 161 rlineto
          endchar
        </CharString>
        <CharString name="quotedblbase">
          -159 -183 309 hstem
          216 -183 rmoveto
          129 0 177 309 -184 0 rlineto
          -340 -309 rmoveto
          130 0 154 309 -171 0 rlineto
          endchar
        </CharString>
        <CharString name="quotedblleft">
          -159 487 308 hstem
          338 795 rmoveto
          -131 0 -176 -308 184 0 rlineto
          340 308 rmoveto
          -131 0 -153 -308 170 0 rlineto
          endchar
        </CharString>
        <CharString name="quotedblright">
          -159 487 308 hstem
          250 487 rmoveto
          129 0 177 308 -184 0 rlineto
          -340 -308 rmoveto
          130 0 154 308 -171 0 rlineto
          endchar
        </CharString>
        <CharString name="quoteleft">
          -376 487 308 hstem
          31 307 vstem
          338 795 rmoveto
          -137 0 -170 -308 187 0 rlineto
          endchar
        </CharString>
        <CharString name="quoteright">
          -376 487 308 hstem
          32 307 vstem
          32 487 rmoveto
          136 0 171 308 -188 0 rlineto
          endchar
        </CharString>
        <CharString name="quotesinglbase">
          -376 -183 309 hstem
          -7 306 vstem
          -7 -183 rmoveto
          135 0 171 309 -188 0 rlineto
          endchar
        </CharString>
        <CharString name="quotesingle">
          -317 101 168 vstem
          95 918 rmoveto
          -107 callsubr
          endchar
        </CharString>
        <CharString name="r">
          -249 -11 -21 457 151 hstem
          72 168 vstem
          240 573 rmoveto
          -56 callsubr
          endchar
        </CharString>
        <CharString name="racute">
          -249 -11 -21 457 151 hstem
          72 168 vstem
          181 654 rmoveto
          -6 callsubr
          -45 -290 rmoveto
          -56 callsubr
          endchar
        </CharString>
        <CharString name="radical">
          290 -239 -21 397 131 hstem
          416 268 rmoveto
          -260 0 -34 -131 156 0 142 -397 198 0 399 1260 -177 0 -240 -782 rlineto
          -59 -187 -19 -129 0 0 0 0 -34 146 -56 170 rrcurveto
          endchar
        </CharString>
        <CharString name="rcaron">
          -249 -11 -21 457 151 hstem
          72 168 vstem
          324 654 rmoveto
          11 callsubr
          60 -81 rmoveto
          -56 callsubr
          endchar
        </CharString>
        <CharString name="registered">
          -104 349 70 178 53 73 53 61 68 hstem
          12 73 121 64 60 67 103 71 vstem
          270 723 rmoveto
          22 hlineto
          25 13 -10 -26 -19 -10 -18 -23 hvcurveto
          -27 hlineto
          -64 126 rmoveto
          -280 64 101 16 vlineto
          59 -101 78 0 -71 113 rlineto
          30 14 15 27 0 37 rrcurveto
          55 -31 34 -77 vhcurveto
          4 -357 rmoveto
          -128 -80 82 126 125 80 85 128 126 81 -85 -125 -126 -81 -82 -126 hvcurveto
          -1 486 rmoveto
          -163 -117 -116 -162 -163 117 -115 163 161 118 115 163 162 -118 116 -161 hvcurveto
          endchar
        </CharString>
        <CharString name="rho">
          6 -236 -21 207 145 361 145 hstemhm
          69 178 -178 166 235 180 hintmask 11110100
          69 -257 rmoveto
          178 hlineto
          -3 93 -5 87 -5 98 45 -54 60 -17 54 0 rrcurveto
          131 126 122 213 199 -107 117 -180 hvcurveto
          hintmask 11101100
          -168 -126 -105 -232 hvcurveto
          166 -116 rmoveto
          130 vlineto
          110 51 68 70 77 37 -59 -114 -130 -54 -58 -64 vhcurveto
          -38 0 -39 9 -40 44 rrcurveto
          endchar
        </CharString>
        <CharString name="ring">
          -98 656 96 134 89 hstem
          135 97 126 97 vstem
          135 815 rmoveto
          -88 72 -71 88 89 71 71 88 89 -71 71 -89 -88 -72 -71 -89 vhcurveto
          97 4 rmoveto
          35 25 32 38 38 25 -32 -35 -35 -25 -32 -38 -38 -25 32 35 vhcurveto
          endchar
        </CharString>
        <CharString name="rupee">
          469 -37 132 351 134 47 144 hstem
          79 178 212 179 67 172 73 173 vstem
          257 395 rmoveto
          -83 callsubr
          -267 376 rmoveto
          -803 178 281 60 vlineto
          176 -281 213 0 -205 310 rlineto
          87 38 60 77 0 122 rrcurveto
          151 -115 105 -182 vhcurveto
          751 -216 rmoveto
          -41 17 -57 8 -56 0 -127 0 -106 -65 0 -120 0 -96 61 -47 61 -29 62 -28 61 -17 0 -39 0 -29 -26 -15 -43 0 -68 0 -67 28 -39 28 rrcurveto
          -151 vlineto
          40 -20 69 -17 75 0 137 0 95 64 0 122 0 87 -63 45 -61 31 -61 31 -61 17 0 40 0 26 23 20 44 0 56 0 55 -15 37 -22 rrcurveto
          endchar
        </CharString>
        <CharString name="s">
          -170 -37 132 351 134 hstem
          63 173 72 174 vstem
          450 555 rmoveto
          -55 callsubr
          endchar
        </CharString>
        <CharString name="sacute">
          -170 -37 132 351 134 hstem
          63 173 72 174 vstem
          215 654 rmoveto
          -7 callsubr
          131 -308 rmoveto
          -55 callsubr
          endchar
        </CharString>
        <CharString name="scaron">
          -170 -37 132 351 134 hstem
          63 173 72 174 vstem
          358 654 rmoveto
          11 callsubr
          236 -99 rmoveto
          -55 callsubr
          endchar
        </CharString>
        <CharString name="scircumflex">
          -170 -37 132 351 134 hstem
          63 173 72 174 vstem
          224 852 rmoveto
          5 callsubr
          82 -297 rmoveto
          -55 callsubr
          endchar
        </CharString>
        <CharString name="second">
          -226 835 -20 hstem
          103 469 rmoveto
          66 callsubr
          266 -366 rmoveto
          115 -1 58 212 27 154 -177 1 rlineto
          endchar
        </CharString>
        <CharString name="section">
          20 -256 151 732 152 hstemhm
          67 172 -154 187 161 182 -159 172 hintmask 11100100
          239 315 rmoveto
          0 13 3 17 11 18 18 -9 21 -10 17 -9 92 -45 55 -22 0 -61 0 -13 -3 -14 -8 -15 -20 12 -23 10 -20 8 rrcurveto
          -102 44 -41 27 0 49 rrcurveto
          328 423 rmoveto
          -64 29 -75 12 -67 0 rrcurveto
          hintmask 11010000
          -174 -102 -87 -128 hvcurveto
          0 -44 14 -33 23 -29 rrcurveto
          hintmask 11101000
          -32 -37 -23 -48 0 -54 0 -106 56 -71 94 -43 194 -84 22 -15 0 -43 0 -39 -37 -23 -65 0 -75 0 -78 22 -77 56 rrcurveto
          -179 vlineto
          59 -33 88 -17 83 0 175 0 109 80 0 133 0 44 -14 34 -23 30 rrcurveto
          hintmask 11010100
          30 36 20 53 0 49 0 123 -68 54 -97 51 -133 70 -58 17 0 47 0 34 28 28 68 0 67 0 73 -23 59 -34 rrcurveto
          endchar
        </CharString>
        <CharString name="semicolon">
          -331 518 206 hstem
          86 205 vstem
          86 620 rmoveto
          -101 callsubr
          -84 -755 rmoveto
          136 0 171 328 -188 -20 rlineto
          endchar
        </CharString>
        <CharString name="seven">
          -16 -12 -21 658 148 hstem
          66 773 rmoveto
          -148 358 vlineto
          -316 -658 184 0 315 658 0 148 rlineto
          endchar
        </CharString>
        <CharString name="sigma">
          21 -50 143 349 144 -132 132 hstemhm
          41 181 227 168 hintmask 10111000
          41 268 rmoveto
          -206 131 -112 161 165 119 110 180 vhcurveto
          0 97 -36 75 -64 36 rrcurveto
          6 vlineto
          66 -3 45 -4 68 -8 rrcurveto
          hintmask 11011000
          147 -354 vlineto
          -154 -147 -104 -214 hvcurveto
          181 hmoveto
          122 46 52 68 73 40 -83 -101 -104 -43 -61 -70 -69 -45 64 111 vhcurveto
          endchar
        </CharString>
        <CharString name="sigma1">
          -114 443 131 hstem
          30 173 121 173 vstem
          30 272 rmoveto
          0 -327 294 76 0 -112 0 -36 -25 -27 -24 -24 rrcurveto
          88 -62 rlineto
          52 34 82 80 0 75 0 202 -294 -139 0 281 0 88 28 62 79 0 57 0 27 -43 2 -58 rrcurveto
          162 hlineto
          -1 145 -98 87 -149 0 -176 0 -104 -123 0 -179 rrcurveto
          endchar
        </CharString>
        <CharString name="six">
          -16 -57 155 241 147 146 155 hstem
          457 178 vstem
          351 98 rmoveto
          -59 0 -52 49 -10 137 32 32 41 23 50 0 rrcurveto
          66 38 -47 -68 -76 -40 -50 -66 hvcurveto
          221 669 rmoveto
          -31 10 -48 10 -46 0 rrcurveto
          -227 -169 -174 -279 -229 94 -162 205 181 104 128 157 158 -95 100 -141 hvcurveto
          -64 0 -55 -22 -42 -36 25 116 73 88 125 0 42 0 35 -7 34 -19 rrcurveto
          endchar
        </CharString>
        <CharString name="slash">
          -264 34 -95 rmoveto
          -102 callsubr
          endchar
        </CharString>
        <CharString name="space">
          -354 endchar
        </CharString>
        <CharString name="sterling">
          -46 -32 143 178 122 186 158 hstemhm
          124 186 -166 182 hintmask 11101000
          252 111 rmoveto
          59 36 15 54 0 65 rrcurveto
          23 186 122 -198 vlineto
          hintmask 11110000
          -2 18 -2 18 0 17 0 92 43 41 85 0 44 0 46 -16 33 -24 rrcurveto
          160 vlineto
          -37 23 -54 15 -69 0 -187 0 -90 -109 0 -175 0 -18 1 -22 2 -20 rrcurveto
          -72 -122 hlineto
          hintmask 11101000
          89 -21 hlineto
          0 -66 -19 -58 -70 -36 rrcurveto
          -140 548 143 vlineto
          endchar
        </CharString>
        <CharString name="summation">
          -114 -271 145 754 143 hstem
          588 771 rmoveto
          -552 -143 hlineto
          176 -369 -176 -385 0 -145 552 0 0 145 -366 0 173 385 -171 369 364 0 rlineto
          endchar
        </CharString>
        <CharString name="t">
          -229 -38 136 351 124 hstem
          100 170 vstem
          270 449 rmoveto
          -54 callsubr
          endchar
        </CharString>
        <CharString name="tau">
          -81 -50 143 353 139 -139 131 hstemhm
          215 173 -173 166 hintmask 10110000
          30 446 rmoveto
          hintmask 11010000
          185 -289 hlineto
          -125 42 -82 127 vhcurveto
          53 0 46 9 39 11 rrcurveto
          -23 133 rlineto
          -27 -7 -20 -3 -22 0 rrcurveto
          hintmask 11001000
          -29 -20 13 43 hvcurveto
          hintmask 11010000
          0 78 2 108 5 111 rrcurveto
          189 139 -455 hlineto
          hintmask 10110000
          -92 -8 rlineto
          endchar
        </CharString>
        <CharString name="tbar">
          -229 -38 136 158 95 98 124 hstem
          100 170 vstem
          270 256 rmoveto
          122 95 -122 98 142 124 -142 143 -170 -143 -87 -124 87 -98 -98 hlineto
          -95 98 -90 vlineto
          -132 67 -72 138 vhcurveto
          32 0 53 6 33 14 rrcurveto
          140 vlineto
          -26 -17 -31 -7 -28 0 rrcurveto
          -38 -30 21 46 hvcurveto
          endchar
        </CharString>
        <CharString name="tcaron">
          -229 -38 136 351 124 hstem
          100 170 vstem
          337 607 rmoveto
          20 callsubr
          -186 -466 rmoveto
          -54 callsubr
          endchar
        </CharString>
        <CharString name="theta">
          -17 -50 143 256 118 249 143 hstem
          55 171 218 172 vstem
          55 407 rmoveto
          -308 112 -149 168 169 112 149 308 304 -112 148 -169 -168 -112 -146 -306 vhcurveto
          171 -58 rmoveto
          218 hlineto
          -7 -202 -45 -54 -57 0 -56 0 -46 54 -7 202 rrcurveto
          118 vmoveto
          7 201 46 48 56 0 57 0 45 -48 7 -201 rrcurveto
          endchar
        </CharString>
        <CharString name="thorn">
          37 -235 -21 216 142 337 141 231 -20 hstem
          73 168 271 171 vstem
          380 102 rmoveto
          -78 -61 65 109 112 72 51 68 72 59 -54 -116 -106 -56 -61 -76 hvcurveto
          -139 709 rmoveto
          -168 -1067 168 313 hlineto
          42 -67 66 -30 75 0 rrcurveto
          168 91 140 172 189 -104 119 -155 hvcurveto
          -75 0 -65 -33 -43 -68 rrcurveto
          endchar
        </CharString>
        <CharString name="three">
          -16 -40 156 188 143 148 -21 53 155 hstemhm
          393 179 -162 178 hintmask 11111000
          108 574 rmoveto
          42 27 70 26 59 0 rrcurveto
          67 47 -26 -62 -64 -70 -28 -81 hvcurveto
          -43 -143 43 hlineto
          hintmask 11110100
          129 39 -43 -50 -53 -45 -42 -85 hvcurveto
          -80 0 -65 22 -58 32 rrcurveto
          -168 vlineto
          56 -27 85 -15 75 0 190 0 105 95 0 133 0 99 -52 63 -89 21 rrcurveto
          hintmask 11111000
          80 33 45 67 0 89 0 129 -106 93 -175 0 -69 0 -70 -23 -44 -22 rrcurveto
          endchar
        </CharString>
        <CharString name="threequarters">
          380 -11 -21 103 99 124 106 106 104 101 108 hstemhm
          229 129 -118 127 492 118 hintmask 11111101
          50 670 rmoveto
          35 25 45 16 36 0 rrcurveto
          38 25 -16 -34 -36 -38 -15 -54 hvcurveto
          -18 -104 19 hlineto
          hintmask 11111011
          82 20 -24 -27 -32 -26 -23 -48 hvcurveto
          -49 0 -44 14 -41 22 rrcurveto
          -110 vlineto
          38 -22 68 -10 47 0 114 0 68 60 0 85 0 74 -49 39 -56 6 rrcurveto
          hintmask 11111101
          59 12 37 42 0 63 0 83 -67 61 -114 0 -45 0 -45 -10 -37 -22 rrcurveto
          675 29 rmoveto
          -514 -848 128 0 512 848 rlineto
          -102 -646 rmoveto
          110 221 0 -221 rlineto
          181 hmoveto
          -63 311 -189 hlineto
          -161 -311 0 -99 232 0 0 -103 118 0 0 103 63 0 rlineto
          endchar
        </CharString>
        <CharString name="threesuperior">
          -269 430 106 36 -20 91 103 102 109 hstemhm
          239 129 -117 126 hintmask 11110100
          129 746 rmoveto
          -103 19 vlineto
          81 22 -23 -28 -31 -27 -25 -48 hvcurveto
          -49 0 -44 14 -41 22 rrcurveto
          -109 vlineto
          39 -22 67 -11 47 0 114 0 68 60 0 86 0 73 -49 41 -56 6 rrcurveto
          hintmask 11111000
          60 12 36 42 0 62 0 84 -66 61 -115 0 -45 0 -45 -12 -36 -21 rrcurveto
          -117 vlineto
          34 26 45 15 36 0 rrcurveto
          38 25 -17 -34 -36 -38 -15 -54 hvcurveto
          endchar
        </CharString>
        <CharString name="tilde">
          -98 711 120 -77 119 hstemhm
          hintmask 10000000
          443 883 rmoveto
          -16 -31 -28 -21 -38 0 rrcurveto
          hintmask 01000000
          -53 0 -30 42 -79 0 -61 0 -53 -47 -23 -49 rrcurveto
          76 -75 rlineto
          31 38 16 14 42 0 rrcurveto
          hintmask 10000000
          -5 callsubr
          endchar
        </CharString>
        <CharString name="tildecomb">
          -687 711 120 -77 119 hstemhm
          hintmask 10000000
          -144 883 rmoveto
          -19 callsubr
          hintmask 01000000
          -52 0 -30 42 -79 0 -61 0 -53 -47 -23 -49 rrcurveto
          76 -75 rlineto
          31 38 16 14 42 0 rrcurveto
          hintmask 10000000
          -5 callsubr
          endchar
        </CharString>
        <CharString name="tonos">
          -261 668 183 hstem
          138 198 vstem
          182 851 rmoveto
          24 callsubr
          endchar
        </CharString>
        <CharString name="trademark">
          206 676 95 hstem
          111 110 vstem
          361 363 rmoveto
          105 0 11 136 rlineto
          2 23 1 21 0 20 0 51 -5 36 0 0 0 0 14 -71 29 -80 rrcurveto
          47 -131 92 0 49 131 rlineto
          33 86 13 65 0 0 0 0 -3 -29 0 -44 0 -22 1 -27 2 -28 rrcurveto
          12 -137 106 0 -41 408 -117 0 -45 -116 rlineto
          -46 -123 -11 -40 0 0 0 0 -6 41 -48 122 rrcurveto
          -44 116 -117 0 rlineto
          -384 -95 rmoveto
          100 -314 110 314 99 95 -309 hlineto
          endchar
        </CharString>
        <CharString name="two">
          -16 -33 148 506 161 hstem
          405 180 vstem
          310 115 rmoveto
          176 131 99 143 0 144 0 162 -112 87 -161 0 -87 0 -93 -32 -52 -38 rrcurveto
          -169 vlineto
          52 42 76 36 69 0 87 0 41 -47 0 -69 0 -127 -186 -170 -153 -105 rrcurveto
          -136 534 148 vlineto
          endchar
        </CharString>
        <CharString name="twosuperior">
          -253 435 105 299 118 hstem
          247 130 vstem
          43 435 rmoveto
          351 105 -196 hlineto
          101 67 78 83 0 104 0 103 -76 60 -107 0 -53 0 -50 -17 -36 -23 rrcurveto
          -122 vlineto
          37 26 46 18 35 0 49 0 25 -24 0 -39 0 -78 -103 -99 -101 -74 rrcurveto
          endchar
        </CharString>
        <CharString name="u">
          -37 135 475 -20 hstem
          67 168 213 169 vstem
          67 167 rmoveto
          -53 callsubr
          endchar
        </CharString>
        <CharString name="uacute">
          -37 135 475 -20 hstem
          67 168 213 169 vstem
          271 654 rmoveto
          1 callsubr
          -307 -696 rmoveto
          -53 callsubr
          endchar
        </CharString>
        <CharString name="ubreve">
          -37 135 475 -20 89 107 hstemhm
          67 168 -127 130 208 130 -128 169 hintmask 11101100
          108 857 rmoveto
          12 callsubr
          hintmask 11110010
          -171 -690 rmoveto
          -53 callsubr
          endchar
        </CharString>
        <CharString name="ucircumflex">
          -37 135 475 -20 hstem
          67 168 213 169 vstem
          270 863 rmoveto
          -185 -209 161 0 95 115 95 -115 162 0 -185 209 rlineto
          -346 -696 rmoveto
          -53 callsubr
          endchar
        </CharString>
        <CharString name="udieresis">
          -37 135 475 -20 101 189 hstemhm
          67 168 -148 193 122 193 -147 169 hintmask 11101000
          87 749 rmoveto
          -17 callsubr
          hintmask 11100100
          315 hmoveto
          -3 callsubr
          hintmask 11110010
          -335 -582 rmoveto
          -53 callsubr
          endchar
        </CharString>
        <CharString name="ugrave">
          -37 135 475 -20 hstem
          67 168 213 169 vstem
          308 863 rmoveto
          -171 0 143 -209 131 0 rlineto
          -344 -487 rmoveto
          -53 callsubr
          endchar
        </CharString>
        <CharString name="uhorn">
          -2 -43 131 -99 -21 hstemhm
          55 174 185 175 66 91 hintmask 10111000
          55 175 rmoveto
          -137 66 -81 133 vhcurveto
          75 0 50 32 42 54 rrcurveto
          hintmask 01111000
          6 -75 162 0 0 446 rlineto
          109 27 47 43 1 134 rrcurveto
          -91 hlineto
          0 -74 -12 -36 -54 -22 rrcurveto
          77 -175 -417 vlineto
          hintmask 10111000
          -18 -38 -35 -20 -48 0 rrcurveto
          -54 -30 30 56 hvcurveto
          389 -174 vlineto
          endchar
        </CharString>
        <CharString name="uhungarumlaut">
          -37 135 475 -20 hstem
          67 168 213 169 vstem
          389 654 rmoveto
          116 0 166 209 -170 0 rlineto
          -333 -209 rmoveto
          21 callsubr
          -205 -696 rmoveto
          -53 callsubr
          endchar
        </CharString>
        <CharString name="umacron">
          -37 135 475 -20 101 114 hstem
          67 168 213 169 vstem
          551 654 rmoveto
          -47 callsubr
          -65 -487 rmoveto
          -53 callsubr
          endchar
        </CharString>
        <CharString name="underscore">
          -63 -227 110 hstem
          15 -117 rmoveto
          -110 596 110 vlineto
          endchar
        </CharString>
        <CharString name="uni00A0">
          -354 endchar
        </CharString>
        <CharString name="uni00AD">
          -263 211 139 hstem
          55 315 vstem
          55 211 rmoveto
          -48 callsubr
          endchar
        </CharString>
        <CharString name="uni00B5">
          51 -236 -21 207 143 -138 146 484 -20 hstemhm
          hintmask 10110000
          28 -257 rmoveto
          159 hlineto
          8 89 8 61 16 95 27 -23 28 -10 27 0 62 0 56 52 29 48 rrcurveto
          3 hlineto
          hintmask 11010000
          4 -70 60 -35 75 0 44 0 27 9 24 11 rrcurveto
          hintmask 10110000
          6 131 rlineto
          hintmask 11010000
          -12 -5 -14 -3 -9 0 -24 0 -17 9 0 27 0 12 48 298 23 146 rrcurveto
          -159 0 -71 -399 rlineto
          hintmask 10110000
          -22 -51 -55 -34 -45 0 -38 0 -31 24 0 58 0 24 45 249 23 129 rrcurveto
          -156 hlineto
          endchar
        </CharString>
        <CharString name="uni0122">
          152 -41 160 174 152 178 163 hstem
          48 192 353 174 vstem
          328 -422 rmoveto
          15 callsubr
          320 558 rmoveto
          -94 callsubr
          endchar
        </CharString>
        <CharString name="uni0123">
          7 -266 153 65 -20 56 134 315 142 hstem
          48 176 236 169 vstem
          559 879 rmoveto
          -123 0 -138 -250 175 0 rlineto
          -135 -507 rmoveto
          -68 callsubr
          122 451 rmoveto
          -81 vlineto
          -32 54 -52 33 -76 0 rrcurveto
          -153 -99 -128 -170 -206 124 -87 121 hvcurveto
          75 0 56 27 36 55 rrcurveto
          -42 vlineto
          -97 -46 -44 -106 vhcurveto
          -76 0 -74 23 -54 42 rrcurveto
          -172 vlineto
          70 -33 78 -13 73 0 rrcurveto
          162 142 87 205 hvcurveto
          547 vlineto
          endchar
        </CharString>
        <CharString name="uni0136">
          95 -11 -21 hstem
          79 178 vstem
          269 -413 rmoveto
          17 callsubr
          -309 72 rmoveto
          -90 callsubr
          endchar
        </CharString>
        <CharString name="uni0137">
          -39 -11 -21 605 -20 hstem
          73 168 vstem
          200 -413 rmoveto
          17 callsubr
          315 72 rmoveto
          -62 callsubr
          endchar
        </CharString>
        <CharString name="uni013B">
          -107 -32 156 hstem
          79 178 vstem
          164 -413 rmoveto
          18 callsubr
          -27 228 rmoveto
          -89 callsubr
          endchar
        </CharString>
        <CharString name="uni013C">
          -362 -37 139 709 -20 hstem
          79 168 vstem
          9 -413 rmoveto
          18 callsubr
          -50 296 rmoveto
          -61 callsubr
          endchar
        </CharString>
        <CharString name="uni0145">
          142 -11 -21 hstem
          79 178 316 178 vstem
          262 -413 rmoveto
          15 callsubr
          -302 72 rmoveto
          -87 callsubr
          endchar
        </CharString>
        <CharString name="uni0146">
          -11 -21 474 137 hstem
          73 168 213 169 vstem
          194 -413 rmoveto
          17 callsubr
          -240 72 rmoveto
          -59 callsubr
          endchar
        </CharString>
        <CharString name="uni0156">
          40 -11 -21 659 144 hstem
          79 178 212 179 vstem
          238 -413 rmoveto
          18 callsubr
          -279 72 rmoveto
          -84 callsubr
          178 -376 rmoveto
          -83 callsubr
          endchar
        </CharString>
        <CharString name="uni0157">
          -249 -11 -21 457 151 hstem
          72 168 vstem
          3 -413 rmoveto
          15 callsubr
          118 677 rmoveto
          -56 callsubr
          endchar
        </CharString>
        <CharString name="uni015E">
          -74 -291 107 808 153 hstem
          49 192 10 120 16 189 vstem
          540 736 rmoveto
          -64 30 -75 11 -67 0 -180 0 -105 -95 0 -136 0 -130 89 -59 86 -39 91 -43 72 -21 0 -60 0 -50 -43 -33 -58 0 -75 0 -78 21 -77 56 rrcurveto
          -179 vlineto
          44 -25 60 -16 63 -6 12 -17 16 -25 0 -28 rrcurveto
          -47 -32 -29 -59 vhcurveto
          -107 vlineto
          146 1 65 77 0 92 0 30 -5 32 -13 23 137 22 86 89 0 126 0 146 -112 56 -100 44 -69 30 -54 30 0 46 0 40 33 31 67 0 rrcurveto
          67 0 73 -21 59 -34 rrcurveto
          endchar
        </CharString>
        <CharString name="uni015F">
          -170 -286 106 626 134 hstemhm
          63 173 -22 121 -27 174 hintmask 11101000
          450 555 rmoveto
          -41 17 -56 8 -57 0 -126 0 -107 -65 0 -120 0 -96 61 -47 62 -29 61 -28 61 -17 0 -39 0 -29 -25 -15 -43 0 -69 0 -65 28 -40 28 rrcurveto
          -151 vlineto
          29 -14 42 -13 49 -6 rrcurveto
          hintmask 11010000
          12 -16 16 -25 0 -29 0 -47 -31 -29 -60 -1 rrcurveto
          -106 vlineto
          146 1 66 77 0 92 0 29 -7 34 -12 22 rrcurveto
          hintmask 11101000
          100 18 66 61 0 101 0 87 -63 45 -62 31 -61 31 -60 17 0 40 0 26 22 20 45 0 56 0 55 -15 36 -22 rrcurveto
          endchar
        </CharString>
        <CharString name="uni0162">
          -24 -281 106 803 143 hstemhm
          243 179 -135 121 hintmask 11100000
          629 771 rmoveto
          -594 -143 208 -660 19 hlineto
          hintmask 11010000
          12 -16 13 -24 0 -26 0 -47 -31 -29 -59 -1 rrcurveto
          -106 vlineto
          146 1 65 77 0 92 0 27 -5 30 -11 22 rrcurveto
          hintmask 11100000
          30 660 207 hlineto
          endchar
        </CharString>
        <CharString name="uni0163">
          -229 -287 106 630 124 hstemhm
          100 170 0 121 hintmask 11100000
          270 449 rmoveto
          142 124 -142 143 -170 -143 -87 -124 87 -283 hlineto
          0 -110 46 -68 95 -20 rrcurveto
          hintmask 11010000
          12 -16 17 -26 0 -30 0 -47 -31 -29 -59 -1 rrcurveto
          -106 vlineto
          146 1 65 77 0 92 0 30 -6 33 -13 22 18 3 19 5 14 6 rrcurveto
          140 vlineto
          -26 -17 -31 -7 -28 0 rrcurveto
          hintmask 11100000
          -38 -30 21 46 hvcurveto
          endchar
        </CharString>
        <CharString name="uni018F">
          109 -43 150 181 141 202 152 hstem
          44 178 341 180 vstem
          44 340 rmoveto
          -236 119 -147 231 vhcurveto
          65 0 60 14 54 32 98 57 72 111 0 150 rrcurveto
          90 vlineto
          236 -149 136 -238 vhcurveto
          -75 0 -132 -20 -53 -20 rrcurveto
          26 -143 rlineto
          69 22 73 9 79 0 136 0 77 -66 7 -130 rrcurveto
          -6 -519 vlineto
          178 -163 rmoveto
          22 340 vlineto
          -3 -102 -66 -79 -99 0 rrcurveto
          -106 -66 56 103 hvcurveto
          endchar
        </CharString>
        <CharString name="uni01CD">
          132 -11 -21 167 144 hstem
          482 845 rmoveto
          11 callsubr
          -30 -566 rmoveto
          -100 callsubr
          93 -311 rmoveto
          -99 callsubr
          endchar
        </CharString>
        <CharString name="uni01CE">
          -75 -36 120 361 138 hstem
          43 176 155 173 vstem
          365 643 rmoveto
          7 callsubr
          153 -407 rmoveto
          -75 callsubr
          -226 167 rmoveto
          -74 callsubr
          endchar
        </CharString>
        <CharString name="uni01CF">
          -290 -32 143 517 143 hstem
          42 313 vstem
          270 845 rmoveto
          184 209 -161 0 -95 -115 -95 115 -161 0 184 -209 rlineto
          -84 -877 rmoveto
          -92 callsubr
          endchar
        </CharString>
        <CharString name="uni01D0">
          -362 -11 -21 605 -20 hstem
          79 168 vstem
          235 642 rmoveto
          7 callsubr
          -12 -674 rmoveto
          -65 callsubr
          endchar
        </CharString>
        <CharString name="uni01D1">
          187 -41 162 502 162 hstem
          48 191 397 191 vstem
          509 845 rmoveto
          185 209 -162 0 -94 -115 -96 115 -161 0 185 -209 rlineto
          -318 -472 rmoveto
          -86 callsubr
          191 hmoveto
          -85 callsubr
          endchar
        </CharString>
        <CharString name="uni01D2">
          -13 -42 132 359 133 hstem
          42 177 238 176 vstem
          411 642 rmoveto
          7 callsubr
          72 -684 rmoveto
          -58 callsubr
          -2 491 rmoveto
          -57 callsubr
          endchar
        </CharString>
        <CharString name="uni01D3">
          107 -44 162 hstem
          73 178 293 178 vstem
          470 845 rmoveto
          184 209 -162 0 -94 -115 -96 115 -161 0 185 -209 rlineto
          218 -568 rmoveto
          -80 callsubr
          endchar
        </CharString>
        <CharString name="uni01D4">
          -37 135 475 -20 hstem
          67 168 213 169 vstem
          414 642 rmoveto
          7 callsubr
          -203 -475 rmoveto
          -53 callsubr
          endchar
        </CharString>
        <CharString name="uni01D5">
          107 -44 162 738 190 60 115 hstemhm
          73 178 -108 192 123 192 -106 178 hintmask 11100000
          607 1106 rmoveto
          115 -420 -115 vlineto
          hintmask 11101000
          -44 -154 rmoveto
          -24 callsubr
          hintmask 11100100
          315 hmoveto
          -23 callsubr
          hintmask 11110010
          86 -675 rmoveto
          -80 callsubr
          endchar
        </CharString>
        <CharString name="uni01D6">
          -37 135 475 -20 101 189 60 115 hstemhm
          67 168 -148 193 122 193 -147 169 hintmask 11110000
          551 903 rmoveto
          2 callsubr
          hintmask 11110100
          -45 -154 rmoveto
          -17 callsubr
          hintmask 11110010
          315 hmoveto
          -3 callsubr
          hintmask 11111001
          -335 -582 rmoveto
          -53 callsubr
          endchar
        </CharString>
        <CharString name="uni01D7">
          107 -44 162 738 190 hstemhm
          73 178 -108 192 123 192 -106 178 hintmask 11000000
          432 1271 rmoveto
          22 callsubr
          hintmask 11010000
          -469 -319 rmoveto
          -24 callsubr
          hintmask 11001000
          315 hmoveto
          -23 callsubr
          hintmask 11100100
          86 -675 rmoveto
          -80 callsubr
          endchar
        </CharString>
        <CharString name="uni01D8">
          -37 135 475 -20 101 189 hstemhm
          67 168 -148 193 122 193 -147 169 hintmask 11100000
          376 1069 rmoveto
          -104 -166 139 0 146 166 rlineto
          hintmask 11101000
          -470 -320 rmoveto
          -17 callsubr
          hintmask 11100100
          315 hmoveto
          -3 callsubr
          hintmask 11110010
          -335 -582 rmoveto
          -53 callsubr
          endchar
        </CharString>
        <CharString name="uni01D9">
          107 -44 162 738 190 hstemhm
          73 178 -108 192 123 192 -106 178 hintmask 11000000
          469 1106 rmoveto
          6 callsubr
          hintmask 11010000
          -182 -154 rmoveto
          -24 callsubr
          hintmask 11001000
          315 hmoveto
          -23 callsubr
          hintmask 11100100
          86 -675 rmoveto
          -80 callsubr
          endchar
        </CharString>
        <CharString name="uni01DA">
          -37 135 475 -20 101 189 hstemhm
          67 168 -148 193 122 193 -147 169 hintmask 11100000
          413 903 rmoveto
          185 210 -162 0 -94 -115 -96 115 -161 0 185 -210 rlineto
          hintmask 11101000
          -183 -154 rmoveto
          -17 callsubr
          hintmask 11100100
          315 hmoveto
          -3 callsubr
          hintmask 11110010
          -335 -582 rmoveto
          -53 callsubr
          endchar
        </CharString>
        <CharString name="uni01DB">
          107 -44 162 738 190 hstemhm
          73 178 -108 192 123 192 -106 178 hintmask 11000000
          466 1106 rmoveto
          -106 165 -178 0 146 -165 rlineto
          hintmask 11010000
          -185 -154 rmoveto
          -24 callsubr
          hintmask 11001000
          315 hmoveto
          -23 callsubr
          hintmask 11100100
          86 -675 rmoveto
          -80 callsubr
          endchar
        </CharString>
        <CharString name="uni01DC">
          -37 135 475 -20 101 189 hstemhm
          67 168 -148 193 122 193 -147 169 hintmask 11100000
          410 903 rmoveto
          -105 166 -179 0 147 -166 rlineto
          hintmask 11101000
          -186 -154 rmoveto
          -17 callsubr
          hintmask 11100100
          315 hmoveto
          -3 callsubr
          hintmask 11110010
          -335 -582 rmoveto
          -53 callsubr
          endchar
        </CharString>
        <CharString name="uni01F0">
          -365 -268 137 704 -20 hstem
          83 168 vstem
          239 642 rmoveto
          184 210 -162 0 -94 -116 -96 116 -161 0 185 -210 rlineto
          -143 -891 rmoveto
          -63 callsubr
          endchar
        </CharString>
</ttFont>
